<svg xmlns="http://www.w3.org/2000/svg" width="24" height="24" viewBox="0 0 24 24" fill="none">
    <path d="M18.3 12H20.1C20.5971 12 21 11.5971 21 11.1V9.3M20.1 11.1C12.9526 5.34778 9.24791 3.79836 3 3M6.6 10.2L6.6 19.2C6.6 20.1941 5.79411 21 4.8 21C3.80589 21 3 20.1941 3 19.2L3 10.2C3 9.20589 3.80589 8.4 4.8 8.4C5.79411 8.4 6.6 9.20589 6.6 10.2ZM21 17.4V19.2C21 20.1941 20.1941 21 19.2 21C18.2059 21 17.4 20.1941 17.4 19.2V17.4C17.4 16.4059 18.2059 15.6 19.2 15.6C20.1941 15.6 21 16.4059 21 17.4ZM13.8 13.8V19.2C13.8 20.1941 12.9941 21 12 21C11.0059 21 10.2 20.1941 10.2 19.2V13.8C10.2 12.8059 11.0059 12 12 12C12.9941 12 13.8 12.8059 13.8 13.8Z" stroke="#FF5E00" stroke-width="1.5" stroke-linecap="round" stroke-linejoin="round"/>
</svg>