<svg xmlns="http://www.w3.org/2000/svg" width="24" height="24" viewBox="0 0 24 24" fill="none">
    <path d="M14.5156 20.4001H14.2888C13.8317 20.356 13.401 20.1713 13.0591 19.8728C12.7173 19.5743 12.4822 19.1776 12.388 18.7403L9.49362 5.69312L6.51282 12.4163C6.42851 12.6042 6.2895 12.764 6.11295 12.876C5.93639 12.988 5.73 13.0473 5.51922 13.0466H2.27922C1.99278 13.0466 1.71808 12.9359 1.51554 12.7389C1.313 12.5419 1.19922 12.2747 1.19922 11.9961C1.19922 11.7175 1.313 11.4503 1.51554 11.2533C1.71808 11.0563 1.99278 10.9456 2.27922 10.9456H4.80642L7.51722 4.86323C7.6997 4.45507 8.01073 4.11383 8.40545 3.88869C8.80018 3.66356 9.25821 3.56618 9.71351 3.61058C10.1688 3.65498 10.5979 3.83888 10.9388 4.13576C11.2797 4.43263 11.5149 4.82715 11.6104 5.26242L14.5048 18.2991L17.4856 11.5969C17.5666 11.4051 17.7042 11.2409 17.881 11.125C18.0579 11.0091 18.266 10.9466 18.4792 10.9456H21.7192C22.0056 10.9456 22.2804 11.0563 22.4829 11.2533C22.6854 11.4503 22.7992 11.7175 22.7992 11.9961C22.7992 12.2747 22.6854 12.5419 22.4829 12.7389C22.2804 12.9359 22.0056 13.0466 21.7192 13.0466H19.192L16.4812 19.129C16.3157 19.5035 16.0417 19.8231 15.6927 20.0488C15.3437 20.2745 14.9347 20.3966 14.5156 20.4001Z" fill="#FF5E00"/>
</svg>