<svg width="24" height="24" viewBox="0 0 24 24" fill="none" xmlns="http://www.w3.org/2000/svg">
<path fill-rule="evenodd" clip-rule="evenodd" d="M6 3.3C4.50883 3.3 3.3 4.50883 3.3 6C3.3 7.49117 4.50883 8.7 6 8.7C7.49117 8.7 8.7 7.49117 8.7 6C8.7 4.50883 7.49117 3.3 6 3.3ZM1.5 6C1.5 3.51472 3.51472 1.5 6 1.5C8.48528 1.5 10.5 3.51472 10.5 6C10.5 8.48528 8.48528 10.5 6 10.5C3.51472 10.5 1.5 8.48528 1.5 6ZM13.5 4.8C13.5 2.97746 14.9775 1.5 16.8 1.5H19.2C21.0225 1.5 22.5 2.97746 22.5 4.8V7.2C22.5 9.02254 21.0225 10.5 19.2 10.5H16.8C14.9775 10.5 13.5 9.02254 13.5 7.2V4.8ZM16.8 3.3C15.9716 3.3 15.3 3.97157 15.3 4.8V7.2C15.3 8.02843 15.9716 8.7 16.8 8.7H19.2C20.0284 8.7 20.7 8.02843 20.7 7.2V4.8C20.7 3.97157 20.0284 3.3 19.2 3.3H16.8ZM1.5 16.8C1.5 14.9775 2.97746 13.5 4.8 13.5H7.2C9.02254 13.5 10.5 14.9775 10.5 16.8V19.2C10.5 21.0225 9.02254 22.5 7.2 22.5H4.8C2.97746 22.5 1.5 21.0225 1.5 19.2V16.8ZM4.8 15.3C3.97157 15.3 3.3 15.9716 3.3 16.8V19.2C3.3 20.0284 3.97157 20.7 4.8 20.7H7.2C8.02843 20.7 8.7 20.0284 8.7 19.2V16.8C8.7 15.9716 8.02843 15.3 7.2 15.3H4.8ZM18 15.3C16.5088 15.3 15.3 16.5088 15.3 18C15.3 19.4912 16.5088 20.7 18 20.7C19.4912 20.7 20.7 19.4912 20.7 18C20.7 16.5088 19.4912 15.3 18 15.3ZM13.5 18C13.5 15.5147 15.5147 13.5 18 13.5C20.4853 13.5 22.5 15.5147 22.5 18C22.5 20.4853 20.4853 22.5 18 22.5C15.5147 22.5 13.5 20.4853 13.5 18Z" fill="#FF5E00"/>
</svg>
