<svg width="20" height="20" fill="none" xmlns="http://www.w3.org/2000/svg">
    <path d="M16.713 3.001c-2.733-.049-5.85 1.38-7.823 3.596a7.402 7.402 0 00-5.072 2.16.292.292 0 00.163.497l2.248.322-.277.31a.291.291 0 00.011.401l3.75 3.75a.291.291 0 00.4.01l.311-.277.322 2.248c.016.11.102.19.206.225a.27.27 0 00.084.013.33.33 0 00.226-.094 7.387 7.387 0 002.141-5.054c2.218-1.977 3.659-5.093 3.595-7.822A.293.293 0 0016.713 3zm-2.688 5.036a1.454 1.454 0 01-1.032.426c-.373 0-.747-.142-1.03-.426a1.461 1.461 0 010-2.063 1.46 1.46 0 012.062 0 1.46 1.46 0 010 2.063zM4.589 12.861c-.624.624-1.481 3.444-1.577 3.763a.293.293 0 00.364.364c.319-.096 3.139-.953 3.763-1.577a1.805 1.805 0 000-2.55 1.805 1.805 0 00-2.55 0z"
          fill="#ff5f21"/>
</svg>