<svg width="20" height="18" fill="none" xmlns="http://www.w3.org/2000/svg"><path fill-rule="evenodd" clip-rule="evenodd" d="M.917 4.833A4.083 4.083 0 0 1 5 .75h10a4.083 4.083 0 0 1 4.083 4.083v8.334A4.083 4.083 0 0 1 15 17.25H6.667a.75.75 0 0 1 0-1.5H15a2.583 2.583 0 0 0 2.583-2.583V4.833A2.583 2.583 0 0 0 15 2.25H5a2.583 2.583 0 0 0-2.583 2.583V9a.75.75 0 1 1-1.5 0V4.833Zm3.459.418a.75.75 0 0 1 1.04-.208l3.151 2.1a2.583 2.583 0 0 0 2.866 0l3.151-2.1a.75.75 0 0 1 .832 1.248l-3.15 2.1a4.083 4.083 0 0 1-4.531 0l-3.151-2.1a.75.75 0 0 1-.208-1.04ZM.916 11.5a.75.75 0 0 1 .75-.75h5a.75.75 0 0 1 0 1.5h-5a.75.75 0 0 1-.75-.75Zm0 2.5a.75.75 0 0 1 .75-.75h5a.75.75 0 0 1 0 1.5h-5a.75.75 0 0 1-.75-.75Z" fill="#FF5F21"/></svg>