<svg xmlns="http://www.w3.org/2000/svg" fill="none" width="20" height="20"><g clip-path="url(#a)"><path fill="url(#b)" d="M15.83 7.92a7.92 7.92 0 0 1-7.91 7.91A7.92 7.92 0 0 1 0 7.92a7.92 7.92 0 0 1 13.97-5.1l-1.22 1.15a6.2 6.2 0 0 0-4.83-2.3 6.25 6.25 0 0 0-6.25 6.25v.03c0 .52.06 1 .19 1.48.14.59.36 1.13.66 1.63a6.22 6.22 0 0 0 5.4 3.1 6.24 6.24 0 0 0 6.22-5.8l.76-.71.86-.8c.05.36.07.7.07 1.07z"/><path fill="url(#c)" d="M19.17 20a.83.83 0 0 1-.6-.24l-6.15-6.16a.83.83 0 1 1 1.18-1.18l6.16 6.16a.83.83 0 0 1-.6 1.42z"/><path fill="url(#d)" d="m19.73 1.44-4.3 4.01-1.38 1.28-3.48 3.25a.83.83 0 0 1-1.12.02l-2.8-2.44-4.13 3.5a5.8 5.8 0 0 1-.66-1.63l4.27-3.6a.83.83 0 0 1 1.09 0l2.76 2.42 3.47-3.23 1.27-1.18L18.6.23a.82.82 0 0 1 1.18.04c.31.33.3.85-.05 1.17z"/><path fill="url(#e)" d="M19.17 4.58a.83.83 0 0 1-.6-.24l-2.9-2.92A.83.83 0 0 1 16.24 0h2.92c.46 0 .83.37.83.83v2.92a.83.83 0 0 1-.83.83z"/></g><defs><linearGradient id="b" x1="15.83" x2="-.57" y1="0" y2=".61" gradientUnits="userSpaceOnUse"><stop stop-color="#FF7426"/><stop offset="1" stop-color="#FF5F21"/></linearGradient><linearGradient id="c" x1="20" x2="11.9" y1="12.18" y2="12.48" gradientUnits="userSpaceOnUse"><stop stop-color="#FF7426"/><stop offset="1" stop-color="#FF5F21"/></linearGradient><linearGradient id="d" x1="20" x2="1.25" y1="0" y2="1.14" gradientUnits="userSpaceOnUse"><stop stop-color="#FF7426"/><stop offset="1" stop-color="#FF5F21"/></linearGradient><linearGradient id="e" x1="20" x2="15.25" y1="0" y2=".18" gradientUnits="userSpaceOnUse"><stop stop-color="#FF7426"/><stop offset="1" stop-color="#FF5F21"/></linearGradient><clipPath id="a"><path fill="#fff" d="M0 0h20v20H0z"/></clipPath></defs></svg>