<svg width="56" height="89" viewBox="0 0 56 89" fill="none" xmlns="http://www.w3.org/2000/svg">
<path d="M12.1973 80.4007C4.65333 73.3144 -0.55758 62.4427 0.0477534 52.813C0.552198 44.7704 3.13496 39.152 11.1178 33.7894C20.5862 27.4383 33.6841 28.0766 41.609 31.8024C50.8857 36.1416 54.6085 42.0878 53.9199 47.9173C53.138 54.5491 42.3328 52.3659 37.1799 63.0463C32.9502 71.8141 41.5661 84.7548 35.9667 87.7031C30.3674 90.6514 21.5724 88.719 12.1973 80.4007Z" fill="#FF5F21"/>
<path d="M19.2875 82.1113C11.4 75.7648 5.37838 65.4027 5.02805 55.7145C4.73611 47.6235 6.66038 41.7387 13.7685 35.6118C22.1967 28.3369 34.768 27.7055 42.691 30.6379C51.9671 34.0694 56.0924 39.6498 55.9984 45.5471C55.8893 52.2505 45.3616 51.1249 41.4598 62.3081C38.2636 71.4872 47.7378 83.5838 42.6758 87.0802C37.6137 90.5767 29.0408 89.511 19.2875 82.1113Z" fill="#242628"/>
<path d="M32 26C39.1797 26 45 20.1797 45 13C45 5.8203 39.1797 0 32 0C24.8203 0 19 5.8203 19 13C19 20.1797 24.8203 26 32 26Z" fill="#242628"/>
</svg>