<svg width="168" height="96" viewBox="0 0 168 96" fill="none" xmlns="http://www.w3.org/2000/svg">
<path fill-rule="evenodd" clip-rule="evenodd" d="M38.0022 96C17.0148 96 0 79.7244 0 59.6434C0 31.1441 20.4631 14.8854 42.7525 0.493301C45.2854 -1.13937 48.4315 1.59026 46.974 4.16255C43.4768 10.3488 41.0728 16.7137 40.4818 23.3634C60.3139 24.5879 76 40.3618 76 59.6434C76 79.7244 58.9852 96 38.0022 96Z" fill="url(#paint0_linear_1177_36317)"/>
<path fill-rule="evenodd" clip-rule="evenodd" d="M130.002 96C109.015 96 92 79.7244 92 59.6434C92 31.1441 112.463 14.8854 134.752 0.493301C137.285 -1.13937 140.432 1.59026 138.974 4.16255C135.477 10.3488 133.073 16.7137 132.482 23.3634C152.314 24.5879 168 40.3618 168 59.6434C168 79.7244 150.985 96 130.002 96Z" fill="url(#paint1_linear_1177_36317)"/>
<defs>
<linearGradient id="paint0_linear_1177_36317" x1="5.66244e-07" y1="96" x2="78.7604" y2="93.6793" gradientUnits="userSpaceOnUse">
<stop stop-color="#F5803D"/>
<stop offset="1" stop-color="#FF5E00"/>
</linearGradient>
<linearGradient id="paint1_linear_1177_36317" x1="92" y1="96" x2="170.76" y2="93.6793" gradientUnits="userSpaceOnUse">
<stop stop-color="#F5803D"/>
<stop offset="1" stop-color="#FF5E00"/>
</linearGradient>
</defs>
</svg>
