<svg width="20" height="20" fill="none" xmlns="http://www.w3.org/2000/svg"><path fill-rule="evenodd" clip-rule="evenodd" d="M5.667 16.75a3.25 3.25 0 0 1-3.25-3.25v-7a3.25 3.25 0 0 1 3.25-3.25h8.666a3.25 3.25 0 0 1 3.25 3.25v4.417H16.5a4.75 4.75 0 0 0-4.75 4.75v1.083H5.667Zm7.583-1.06 3.273-3.273H16.5a3.25 3.25 0 0 0-3.25 3.25v.022ZM.917 13.5a4.75 4.75 0 0 0 4.75 4.75H12.5a.75.75 0 0 0 .53-.22l5.834-5.833a.75.75 0 0 0 .22-.53V6.5a4.75 4.75 0 0 0-4.75-4.75H5.666A4.75 4.75 0 0 0 .917 6.5v7Z" fill="#FF5F21"/><path fill-rule="evenodd" clip-rule="evenodd" d="M5.083 7.5a.75.75 0 0 1 .75-.75h8.334a.75.75 0 0 1 0 1.5H5.833a.75.75 0 0 1-.75-.75Zm0 4.167a.75.75 0 0 1 .75-.75H10a.75.75 0 1 1 0 1.5H5.833a.75.75 0 0 1-.75-.75Z" fill="#FF5F21"/></svg>