<svg width="20" height="20" fill="none" xmlns="http://www.w3.org/2000/svg"><path d="M14.48 3H9.568c-.311 0-.61.124-.83.344L2.344 9.737a1.174 1.174 0 0 0 0 1.66l4.912 4.912a1.175 1.175 0 0 0 1.66 0l6.394-6.393c.22-.22.343-.52.343-.83V4.172c0-.648-.525-1.173-1.173-1.173zM12 9s-2 0-2-2 1.514-2 2-2 2 0 2 2-2 2-2 2z" fill="#FF5F21"/><path d="M16.827 4.173v5.461c0 .27-.108.53-.3.722l-6.498 6.498.1.1c.458.457 1.2.457 1.659 0l5.868-5.867c.22-.22.344-.519.344-.83v-4.91c0-.649-.525-1.174-1.173-1.174z" fill="#FF5F21"/></svg>