<svg width="20" height="21" viewBox="0 0 20 21" fill="none" xmlns="http://www.w3.org/2000/svg">
<path d="M7.9165 11.959C7.9165 12.7673 8.54152 13.4173 9.30818 13.4173H10.8748C11.5415 13.4173 12.0832 12.8507 12.0832 12.1423C12.0832 11.384 11.7498 11.109 11.2582 10.934L8.74984 10.059C8.25817 9.88401 7.92485 9.61735 7.92485 8.85068C7.92485 8.15068 8.4665 7.57568 9.13316 7.57568H10.6998C11.4665 7.57568 12.0915 8.22568 12.0915 9.03402" stroke="#8A8A8A" stroke-width="1.25" stroke-linecap="round" stroke-linejoin="round"/>
<path d="M10 6.75V14.25" stroke="#8A8A8A" stroke-width="1.25" stroke-linecap="round" stroke-linejoin="round"/>
<path d="M18.3332 10.5003C18.3332 15.1003 14.5998 18.8337 9.99984 18.8337C5.39984 18.8337 1.6665 15.1003 1.6665 10.5003C1.6665 5.90033 5.39984 2.16699 9.99984 2.16699" stroke="#8A8A8A" stroke-width="1.25" stroke-linecap="round" stroke-linejoin="round"/>
<path d="M14.1665 3V6.33333H17.4998" stroke="#8A8A8A" stroke-width="1.25" stroke-linecap="round" stroke-linejoin="round"/>
<path d="M18.3332 2.16699L14.1665 6.33366" stroke="#8A8A8A" stroke-width="1.25" stroke-linecap="round" stroke-linejoin="round"/>
</svg>
