<svg width="32" height="32" viewBox="0 0 32 32" fill="none" xmlns="http://www.w3.org/2000/svg">
<path d="M11.4272 20.3601L20.1472 11.6401" stroke="#FF5E00" stroke-width="2" stroke-linecap="round" stroke-linejoin="round"/>
<path d="M11.9735 13.8269C12.8793 13.8269 13.6135 13.0926 13.6135 12.1869C13.6135 11.2811 12.8793 10.5469 11.9735 10.5469C11.0678 10.5469 10.3335 11.2811 10.3335 12.1869C10.3335 13.0926 11.0678 13.8269 11.9735 13.8269Z" stroke="#FF5E00" stroke-width="2" stroke-linecap="round" stroke-linejoin="round"/>
<path d="M20.6932 21.4533C21.5989 21.4533 22.3332 20.7191 22.3332 19.8133C22.3332 18.9076 21.5989 18.1733 20.6932 18.1733C19.7874 18.1733 19.0532 18.9076 19.0532 19.8133C19.0532 20.7191 19.7874 21.4533 20.6932 21.4533Z" stroke="#FF5E00" stroke-width="2" stroke-linecap="round" stroke-linejoin="round"/>
<path d="M15.9998 29.3332C23.3636 29.3332 29.3332 23.3636 29.3332 15.9998C29.3332 8.63604 23.3636 2.6665 15.9998 2.6665C8.63604 2.6665 2.6665 8.63604 2.6665 15.9998C2.6665 23.3636 8.63604 29.3332 15.9998 29.3332Z" stroke="#FF5E00" stroke-width="2" stroke-linecap="round" stroke-linejoin="round"/>
</svg>
