<svg width="143" height="40" viewBox="0 0 143 40" fill="none" xmlns="http://www.w3.org/2000/svg">
<path d="M67.668 16.0526H69.7639V37.6316H67.668V16.0526Z" fill="#7A7A7A"/>
<path d="M72.6445 16.0526H74.7405V30.8684L83.0718 22.3684H85.9014L79.5087 28.921L86.111 37.6316H83.3862L77.8844 30.4473L74.7405 33.5526V37.6316H72.6445V16.0526Z" fill="#7A7A7A"/>
<path d="M116.659 37.9211C115.507 37.9211 114.459 37.7105 113.516 37.2895C112.546 36.8684 111.708 36.2895 111 35.579C110.293 34.8684 109.743 34.0263 109.35 33.0527C108.957 32.1053 108.773 31.079 108.773 29.9737V29.9211C108.773 28.8421 108.957 27.8158 109.35 26.8421C109.743 25.8684 110.293 25.0263 111 24.2894C111.708 23.5526 112.546 22.9737 113.516 22.5526C114.485 22.1315 115.559 21.921 116.712 21.921C117.865 21.921 118.913 22.1315 119.882 22.5526C120.851 22.9737 121.69 23.5526 122.397 24.2631C123.104 24.9737 123.707 25.8158 124.1 26.7895C124.493 27.7369 124.729 28.7632 124.729 29.8684V29.9211C124.729 31 124.467 32.0263 124.074 33C123.681 33.9737 123.078 34.8158 122.371 35.5527C121.663 36.2895 120.799 36.8684 119.83 37.2895C118.86 37.7105 117.786 37.9211 116.659 37.9211ZM116.712 35.8684C117.55 35.8684 118.284 35.7105 118.991 35.3948C119.672 35.079 120.275 34.6579 120.773 34.1316C121.27 33.6053 121.69 32.9737 121.952 32.2632C122.24 31.5527 122.397 30.7895 122.397 29.9737V29.9211C122.397 29.079 122.214 28.3158 121.925 27.6053C121.637 26.8948 121.218 26.2631 120.72 25.7105C120.196 25.1579 119.594 24.7368 118.913 24.421C118.231 24.1052 117.472 23.9473 116.659 23.9473C115.821 23.9473 115.061 24.1052 114.38 24.421C113.699 24.7368 113.096 25.1579 112.625 25.6842C112.153 26.2105 111.786 26.8421 111.498 27.579C111.21 28.2895 111.105 29.079 111.105 29.8684V29.9211C111.105 30.7632 111.236 31.5263 111.524 32.2369C111.813 32.9474 112.179 33.579 112.703 34.1316C113.201 34.6579 113.804 35.079 114.485 35.3948C115.166 35.7105 115.9 35.8684 116.712 35.8684Z" fill="#7A7A7A"/>
<path d="M133.455 37.9211C132.302 37.9211 131.254 37.7105 130.311 37.2895C129.342 36.8684 128.503 36.2895 127.796 35.579C127.089 34.8684 126.539 34.0263 126.146 33.0527C125.753 32.1053 125.543 31.079 125.543 29.9737V29.9211C125.543 28.8421 125.753 27.8158 126.146 26.8421C126.539 25.8684 127.089 25.0263 127.796 24.2894C128.503 23.5526 129.342 22.9737 130.311 22.5526C131.281 22.1315 132.355 21.921 133.508 21.921C134.66 21.921 135.708 22.1315 136.678 22.5526C137.647 22.9737 138.485 23.5526 139.193 24.2631C139.9 24.9737 140.477 25.8158 140.87 26.7895C141.263 27.7369 141.498 28.7632 141.498 29.8684V29.9211C141.498 31 141.263 32.0263 140.87 33C140.477 33.9737 139.9 34.8158 139.193 35.5527C138.485 36.2895 137.621 36.8684 136.651 37.2895C135.656 37.7105 134.608 37.9211 133.455 37.9211ZM133.508 35.8684C134.346 35.8684 135.08 35.7105 135.787 35.3948C136.468 35.079 137.071 34.6579 137.568 34.1316C138.066 33.6053 138.459 32.9737 138.747 32.2632C139.036 31.5527 139.167 30.7895 139.167 29.9737V29.9211C139.167 29.079 139.009 28.3158 138.721 27.6053C138.433 26.8948 138.04 26.2631 137.516 25.7105C136.992 25.1579 136.389 24.7368 135.708 24.421C135.027 24.1052 134.267 23.9473 133.455 23.9473C132.617 23.9473 131.883 24.1052 131.176 24.421C130.495 24.7368 129.892 25.1579 129.42 25.6842C128.949 26.2105 128.556 26.8421 128.294 27.579C128.006 28.2895 127.875 29.079 127.875 29.8684V29.9211C127.875 30.7632 128.006 31.5263 128.294 32.2369C128.582 32.9474 128.975 33.579 129.473 34.1316C129.971 34.6579 130.573 35.079 131.254 35.3948C131.962 35.7105 132.722 35.8684 133.508 35.8684Z" fill="#7A7A7A"/>
<path d="M63.422 23.6842C62.2954 22.5526 60.6187 21.8421 58.4703 21.8421C57.4748 21.8421 56.4006 21.8947 55.5884 22.0789L54.4095 24.2105C55.143 24 56.5578 23.9474 58.2084 23.9474C59.6493 23.9474 60.7497 24.4474 61.5357 25.1579C62.3216 25.8421 62.6884 26.8684 62.6884 28.2368V28.7105C62.1644 28.5 61.3261 28.3421 60.6187 28.2368C59.9113 28.1316 59.0729 28.0526 58.1036 28.0526C57.1342 28.0526 56.2696 28.1579 55.4836 28.3684C54.6977 28.5789 54.0165 28.8947 53.4401 29.3158C52.8637 29.7368 52.4445 30.2368 52.1301 30.8684C51.8157 31.5 51.7109 32.2105 51.7109 33.0526V33.1053C51.7109 33.8947 51.8157 34.5789 52.1301 35.1842C52.4445 35.7895 52.8113 36.2632 53.3615 36.6842C53.8855 37.0789 54.5143 37.3947 55.1954 37.5789C55.8766 37.7632 56.584 37.8684 57.2914 37.8684C58.6275 37.8684 59.7279 37.6053 60.6187 37.0789C61.5095 36.5526 62.2168 35.9474 62.7408 35.2632V37.6053H65.0988V28.1842C65.0464 26.2632 64.4962 24.7632 63.422 23.6842ZM62.6884 31.921C62.6884 32.5263 62.6098 33.0789 62.3478 33.5789C62.0858 34.0789 61.7715 34.5 61.2999 34.8684C60.8283 35.2368 60.3043 35.5 59.7017 35.7105C59.0991 35.8947 58.4441 36 57.7368 36C57.239 36 56.715 35.921 56.2696 35.7895C55.798 35.6579 55.3788 35.4474 55.0382 35.2105C54.6977 34.9474 54.3833 34.6316 54.1737 34.2632C53.9641 33.8684 53.8069 33.4474 53.8069 32.9737V32.921C53.8069 32 54.2523 31.2632 55.012 30.6842C55.798 30.1316 56.9246 29.8421 58.3393 29.8421C59.2825 29.8421 60.0947 29.921 60.8283 30.0526C61.5619 30.1842 62.1906 30.3421 62.7146 30.5V31.921H62.6884Z" fill="#7A7A7A"/>
<path d="M97.8478 23.6842C96.7212 22.5526 95.0445 21.8421 92.8961 21.8421C91.9006 21.8421 90.8264 21.8947 90.0142 22.0789L88.8352 24.2105C89.5688 24 90.9836 23.9474 92.6341 23.9474C94.0751 23.9474 95.1755 24.4474 95.9614 25.1579C96.7474 25.8421 97.1142 26.8684 97.1142 28.2368V28.7105C96.5902 28.5 95.7518 28.3421 95.0445 28.2368C94.3371 28.1316 93.4987 28.0526 92.5293 28.0526C91.56 28.0526 90.6954 28.1579 89.9094 28.3684C89.1234 28.5789 88.4423 28.8947 87.8659 29.3158C87.2895 29.7368 86.8703 30.2368 86.5559 30.8684C86.2415 31.5 86.1367 32.2105 86.1367 33.0526V33.1053C86.1367 33.8947 86.2415 34.5789 86.5559 35.1842C86.8703 35.7895 87.2371 36.2632 87.7873 36.6842C88.3113 37.0789 88.94 37.3947 89.6212 37.5789C90.3024 37.7632 91.0098 37.8684 91.7172 37.8684C93.0533 37.8684 94.1537 37.6053 95.0445 37.0789C95.9352 36.5526 96.6426 35.9474 97.1666 35.2632V37.6053H99.5245V28.1842C99.4721 26.2632 98.922 24.7632 97.8478 23.6842ZM97.1142 31.921C97.1142 32.5263 97.0356 33.0789 96.7736 33.5789C96.5116 34.0789 96.1972 34.5 95.7257 34.8684C95.2541 35.2368 94.7301 35.5 94.1275 35.7105C93.5249 35.8947 92.8699 36 92.1625 36C91.6648 36 91.1408 35.921 90.6954 35.7895C90.2238 35.6579 89.8046 35.4474 89.464 35.2105C89.1234 34.9474 88.809 34.6316 88.5994 34.2632C88.3899 33.8684 88.2327 33.4474 88.2327 32.9737V32.921C88.2327 32 88.678 31.2632 89.4378 30.6842C90.2238 30.1316 91.3504 29.8421 92.7651 29.8421C93.7083 29.8421 94.5205 29.921 95.2541 30.0526C95.9876 30.1842 96.6164 30.3421 97.1404 30.5V31.921H97.1142Z" fill="#7A7A7A"/>
<path d="M50.0109 35.6053C49.6441 35.6842 49.2249 35.7105 48.8319 35.7105C48.0721 35.7105 47.4171 35.5263 46.9456 35.1579C46.474 34.7895 46.1858 34.1316 46.1858 33.1842V24.2105H50.0895L51.1112 22.3684H46.1858V17.6316H44.0898V33.5C44.0898 34.2632 44.1684 34.9211 44.378 35.4737C44.5876 36.0263 44.8496 36.4737 45.2426 36.8158C45.6356 37.1579 46.081 37.4211 46.605 37.579C47.129 37.7369 47.7053 37.8158 48.3079 37.8158C48.8581 37.8158 49.4083 37.7632 49.8537 37.6579C50.2205 37.579 50.5349 37.4474 50.9279 37.2632L50.0109 35.6053Z" fill="#7A7A7A"/>
<path d="M107.987 35.6053C107.961 35.6053 107.961 35.6053 107.987 35.6053C107.621 35.6842 107.201 35.7105 106.808 35.7105C106.049 35.7105 105.394 35.5263 104.922 35.1579C104.451 34.7895 104.162 34.1316 104.162 33.1842V24.2105H108.066L109.088 22.3684H104.162V17.6316H102.066V33.5C102.066 34.2632 102.145 34.9211 102.355 35.4737C102.564 36.0263 102.826 36.4737 103.219 36.8158C103.612 37.1579 104.058 37.4211 104.582 37.579C105.106 37.7369 105.682 37.8158 106.284 37.8158C106.835 37.8158 107.385 37.7632 107.83 37.6579C108.197 37.579 108.511 37.4474 108.904 37.2632L107.987 35.6053Z" fill="#7A7A7A"/>
<path d="M38.7433 19.6053C38.7433 9.47372 30.5691 1.23688 20.4562 1.23688C10.3695 1.23688 2.19531 9.47372 2.19531 19.6053C2.19531 29.7368 10.3695 37.9737 20.4824 37.9737C21.8972 37.9737 23.2857 37.8158 24.6219 37.5C27.3204 36.8684 32.4292 33.3684 34.0012 31.1842C36.6997 27.4737 36.3067 26.421 38.6647 21.3158C38.7171 20.7632 38.7433 20.1842 38.7433 19.6053Z" fill="#7A7A7A"/>
<path d="M43.409 4.68414C41.8895 7.36835 36.571 12.7105 29.1304 12.2368C26.0389 11.921 23.5238 11.3157 22.8164 12.2368C22.8164 12.2368 24.9385 12.1578 26.6153 14.342C27.2965 15.3684 27.4013 16.9999 27.4013 16.9999C27.7943 17.2894 30.257 19.6052 35.2873 20.7631C35.2873 20.7631 37.1212 19.8947 37.1212 17.7368C37.1212 16.9473 36.9116 16.5262 36.9116 16.5262C36.5186 16.5789 35.1301 16.842 33.0079 16.6578C34.2131 16.6315 38.4574 15.8157 41.0773 13.9473C42.3611 13.0526 44.6142 11.5789 44.457 7.71046C43.9068 8.31572 41.8895 10.5789 39.1909 11.7631C40.1079 11.1578 41.7847 10.0789 43.2256 8.18414C44.457 6.6052 43.409 4.68414 43.409 4.68414Z" fill="#7A7A7A"/>
<path d="M9.95181 18.5C9.50642 18.9473 8.24886 19.8947 8.22266 23.6315C8.22266 25.0789 9.53262 29.8684 13.3053 29.8684C13.3839 29.6053 13.5935 28.9474 13.7245 28.3947C13.9865 28.3947 15.506 28.5 17.3138 28.1579C17.5758 28.3947 21.3485 31.4737 24.5972 37.4737C26.1168 37.0526 30.754 36 34.8935 30.8158C38.4042 26.421 38.64 21.2631 38.64 21.2631C36.0462 21.1052 31.5924 20.2894 27.3743 16.9737C27.3743 16.2894 27.2957 14.9737 26.0906 13.6842C24.9116 12.3947 23.2872 12.2105 22.7894 12.2105C22.8418 12.0789 23.1038 11.7631 25.0688 11.7631C26.0644 11.7631 26.9551 12.1052 27.6625 12.1052C28.2389 12.1052 29.968 12.0263 31.3042 10.5526C28.9986 10.8421 26.6407 10.6052 23.654 9.57892C20.3005 8.42102 18.4928 8.13155 15.4013 8.5526C11.8382 9.18418 9.34922 12.1579 9.34922 15.5789C9.40162 16.6052 9.55882 17.5526 9.95181 18.5Z" fill="#F5F5F5"/>
<path d="M14.2206 25.0263C14.2206 25.7105 14.011 27.1053 13.9062 27.579C14.4826 27.579 15.9236 27.6316 17.3908 27.1579C17.9147 26.9474 17.8623 26.4737 17.7837 26.3157C17.7051 26.1315 17.417 25.421 17.3646 24.8684C17.286 24.3157 17.2074 23.2105 17.2598 22.9736C17.1288 23.2105 16.8668 23.9736 15.8974 24.5789C15.1114 25.1052 14.2206 25.0263 14.2206 25.0263Z" fill="#7A7A7A"/>
<path d="M12.7286 18.3947C9.76806 18.3947 9.53227 22.2368 9.53227 22.3158C9.45367 24.3158 9.84666 27.5 12.8858 29.2632C13.0168 28.7895 13.4884 27.3158 13.6718 24.9473C13.698 24.7631 13.7503 24.3947 14.1695 24.3947C14.5887 24.3947 16.1083 24.2631 16.7109 22.5C17.0515 21.5789 17.6802 21.1579 17.6802 21.1579C15.3747 20.2105 15.3223 18.6052 12.7286 18.3947Z" fill="#7A7A7A"/>
<path d="M25.3554 20.3947C24.4385 20.3947 23.7311 20.3684 22.0281 20.8421C20.0894 21.4737 19.775 23.2368 19.775 24.1842C19.775 24.421 19.8274 24.7105 19.9322 25.0526C20.5872 27.1053 18.6484 27.7895 18.6484 27.7895C20.2204 27.7632 20.9802 26.9737 21.1374 26.8421C21.6352 27.2105 22.2639 27.4737 23.0761 27.4737C25.5388 27.4737 26.4296 27.0526 26.4296 27.0526C26.4296 27.0526 28.7614 26.3684 28.7614 23.7632C28.7614 21.1842 26.2724 20.3947 25.3554 20.3947Z" fill="#7A7A7A"/>
<path d="M20.0655 17.7368C20.0655 16.921 19.4106 16.2894 18.6246 16.2894C17.8124 16.2894 17.1836 16.9473 17.1836 17.7368C17.1836 18.5526 17.8386 19.1842 18.6246 19.1842C19.4368 19.1842 20.0655 18.5263 20.0655 17.7368Z" fill="#7A7A7A"/>
<path d="M18.8828 16.7369C19.2234 16.9737 19.433 17.3685 19.433 17.7895C19.433 18.2369 19.2234 18.6053 18.8828 18.8421C19.3806 18.7369 19.7212 18.2895 19.7212 17.7895C19.7474 17.2632 19.3806 16.8421 18.8828 16.7369Z" fill="#F5F5F5"/>
</svg>
