<svg xmlns="http://www.w3.org/2000/svg" width="120" height="40" fill="none"><path fill="#7A7A7A" fill-rule="evenodd" d="M72.238 7.711v7.711h1.696l.01-3.228c.012-3.608.001-3.42.227-4.045.842-2.327 3.867-2.676 4.69-.541.267.693.288 1.047.288 4.747v3.067H80.848V11.89c0-4.023-.006-4.127-.253-4.926-.843-2.728-4.633-3.065-6.453-.573l-.19.26-.008-3.325L73.936 0h-1.698v7.711ZM42.186.208c-1.16.295-1.036 2.05.156 2.2 1.236.155 1.728-1.61.595-2.133a1.429 1.429 0 0 0-.75-.067ZM25.67 4.759c-1.267.106-2.217.679-3.003 1.812l-.12.175V4.993h-1.728v15.215H22.545l.007-3.102.008-3.103.176.227c2.019 2.613 6.164 1.59 7.258-1.792 1.307-4.04-.673-7.89-3.964-7.707l-.361.028Zm9.585-.002c-1.05.071-2.288.46-2.935.921l-.081.058v.87c0 .567.01.869.03.869a.927.927 0 0 0 .197-.139c.647-.533 1.481-.919 2.262-1.046 1.908-.31 2.827.322 2.986 2.056.046.496.074.442-.255.485-3.382.44-4.167.62-4.904 1.116-1.973 1.33-1.718 4.614.424 5.447 1.727.672 3.486.188 4.55-1.252l.215-.29v1.57H39.414l-.01-3.848-.009-3.848-.08-.361c-.13-.598-.23-.838-.562-1.353-.598-.927-1.831-1.37-3.499-1.255Zm20.264 0c-1.04.068-2.129.406-2.892.896l-.124.08v.87c0 .535.01.872.028.872.015 0 .15-.095.3-.21 1.39-1.074 3.41-1.396 4.35-.695.496.37.827 1.214.827 2.108v.113l-1.34.188c-2.606.364-2.992.456-3.7.88-1.19.713-1.738 2.162-1.375 3.637.642 2.608 4.622 2.992 6.234.601l.166-.247.008.786.008.786h1.698v-3.464c0-2.06-.013-3.623-.03-3.856-.183-2.416-1.55-3.516-4.158-3.345Zm10.757 0c-1.235.1-2.3.754-3.036 1.86l-.108.163V4.993h-1.669v15.215h1.669l.008-3.118.007-3.118.174.23c.807 1.065 1.707 1.484 3.106 1.448 2.846-.075 4.508-2.186 4.51-5.723 0-3.485-1.733-5.407-4.66-5.17Zm25.77 0c-.967.066-1.919.338-2.684.767l-.3.168-.007.891c-.005.49-.001.892.007.892.009 0 .114-.079.234-.175 2.062-1.653 4.628-1.436 5.098.432.28 1.115.388 1.023-1.51 1.292-2.393.338-2.818.448-3.521.91-1.987 1.308-1.696 4.695.472 5.49 1.787.655 3.578.087 4.61-1.464l.079-.117v1.58H96.254l-.011-3.716c-.012-4.015-.009-3.917-.171-4.567-.428-1.708-1.822-2.533-4.027-2.383Zm9.18 0c-2.37.18-3.824 1.697-3.468 3.619.169.908.65 1.456 1.757 1.997.45.22.728.342 1.595.697 1.527.626 2.041 1.382 1.583 2.332-.534 1.109-3.057 1.09-4.733-.035a2.582 2.582 0 0 0-.256-.16c-.01 0-.018.417-.018.927v.928l.315.133c2.71 1.145 6.086.174 6.499-1.87.378-1.872-.323-2.763-3.034-3.856-1.595-.643-1.994-1.012-1.994-1.849 0-1.478 2.646-1.92 4.485-.748a.529.529 0 0 0 .142.07c.019 0 .029-.297.029-.868v-.869l-.256-.094c-.772-.285-1.778-.42-2.646-.354Zm8.525 0c-3.437.28-5.431 4.523-3.881 8.258 1.101 2.65 4.996 3.559 7.651 1.786l.183-.122v-.81c0-.446-.008-.81-.018-.81-.01 0-.106.064-.213.143-2.856 2.095-6.064.926-6.289-2.293l-.019-.273h7.279l-.016-.85c-.068-3.471-1.74-5.269-4.677-5.03Zm7.828.002c-2.027.246-2.499 3.129-.665 4.057 1.184.598 2.685-.064 3.012-1.327.393-1.524-.806-2.918-2.347-2.73Zm-68.327.118c-.862.227-1.633.974-2.01 1.95l-.083.214-.008-1.024-.008-1.024h-1.668v10.429h1.669v-2.696c0-4.019.078-4.53.842-5.488.684-.86 1.907-1.133 2.708-.604.06.04.123.073.139.073.02 0 .03-.302.03-.884v-.884l-.095-.03c-.349-.112-1.15-.128-1.516-.032Zm36.911-.003c-.865.23-1.596.939-1.997 1.935l-.095.237V6.02l-.001-1.027H82.34v10.429h1.728v-2.784c0-3.331.013-3.539.27-4.328.526-1.621 1.952-2.377 3.213-1.704.104.055.2.1.213.1.012 0 .023-.397.023-.883v-.884l-.096-.03c-.342-.11-1.18-.129-1.53-.035Zm-44.554 5.334v5.214H43.307V4.993H41.608v5.215Zm76.614-5.112c.852.182 1.512 1.053 1.441 1.9-.135 1.605-2.05 2.297-3.104 1.122-1.152-1.284 0-3.378 1.663-3.022Zm-1.239 1.8v1.317h.497V7.176l.154.01.154.008.315.473c.381.572.35.546.671.546.328 0 .334.037-.107-.619l-.366-.543.168-.094c.503-.28.491-1.058-.02-1.294-.121-.056-.2-.063-.8-.073l-.666-.01v1.316Zm1.178-.848c.418.246.14.716-.424.717h-.257V5.96l.293.017c.212.011.319.031.388.072Zm-91.747.241c2.955.56 2.924 6.876-.04 7.8-1.443.449-2.9-.202-3.542-1.584-.439-.943-.41-3.454.05-4.459.525-1.148 1.19-1.635 2.49-1.824.166-.024.761.014 1.042.067Zm40.624.003c2.949.617 2.951 6.775.003 7.774-1.817.616-3.68-.62-3.88-2.576-.038-.38-.038-1.708 0-2.154.188-2.179 1.834-3.472 3.877-3.044Zm43.805 0c1.07.222 1.69 1.132 1.821 2.667l.019.23h-2.74c-2.591 0-2.741-.004-2.741-.052.001-1.33 1.26-2.715 2.65-2.915.179-.026.712.012.991.07Zm-73.108 4.617c-.046 2.228-1.231 3.469-3.125 3.274-1.89-.194-2.271-2.661-.522-3.368.456-.184 2.395-.53 3.377-.6l.216-.017.07-.005-.016.716Zm20.272-.133c0 1.07-.136 1.642-.525 2.22-1.297 1.927-4.32 1.484-4.209-.617.057-1.069.593-1.568 1.952-1.816.303-.055 2.3-.333 2.504-.348l.212-.017.066-.005v.583Zm36.515-.014c0 2.32-1.176 3.605-3.129 3.42-2.05-.195-2.252-2.803-.267-3.457.442-.146 2.553-.48 3.33-.528l.067-.004v.569ZM9.968 13.679C4.241 15.246.478 18.983.055 23.524c-.29 3.106.577 5.508 2.505 6.944 3.19 2.378 8.42 1.066 9.093-2.28.61-3.028-1.071-5.114-4.419-5.484l-.186-.02.015-.92c.045-2.858 1.042-4.878 3.245-6.572l.32-.246v-1.415l-.067.002a7.22 7.22 0 0 0-.593.146Zm8.566.062c-1.943.534-3.173 1.039-4.492 1.841-.856.52-2.168 1.53-2.373 1.825a9.408 9.408 0 0 1-.402.433c-1.246 1.291-2.321 3.226-2.532 4.553l-.018.114.166.048c3.351.983 4.597 5.466 2.158 7.77-.123.117-.117.144.062.277 1.888 1.406 4.976 1.548 7.028.324.25-.15.248-.17-.038-.32-2.687-1.41-3.46-5.105-1.562-7.463.112-.14.121-.176.048-.2-.094-.03-.919-.164-1.009-.164h-.09l.016-.864c.051-2.903 1.145-5.079 3.369-6.7l.223-.162v-.717l.002-.716-.066.002a5.11 5.11 0 0 0-.49.119Zm1.64 8.096c-.944.098-1.731.35-2.431.78-.223.136-.224.131.08.294 1.99 1.067 2.933 3.224 2.434 5.567-.14.657-.688 1.815-.93 1.966-.147.092.138.19.773.268.08.01.185.025.231.034l.085.016-.017.832c-.058 2.958-1.048 4.963-3.293 6.67l-.27.207v1.474l.08-.02c5.36-1.305 9.424-4.747 10.213-8.649.055-.274.083-.242-.338-.4-2.129-.799-3.162-2.265-3.162-4.49 0-1.197.521-2.52 1.27-3.22.115-.108.103-.127-.235-.357-1.169-.795-2.795-1.147-4.49-.972Zm8.286.104c-2.527.26-4.334 2.125-4.333 4.472.001 2.436 1.445 3.93 4.2 4.344.226.034.441.068.477.075l.066.014v.7c0 2.937-1.027 5.07-3.267 6.785l-.305.233v.72c0 .839-.05.763.42.644 1.832-.465 4.023-1.416 5.158-2.24.08-.06.248-.174.372-.256 4.27-2.822 5.936-8.636 3.633-12.673-1.212-2.125-3.48-3.12-6.42-2.818Zm-11.5 1.442c-2.003 2.205-1.138 5.944 1.615 6.976l.144.054.115-.131c1.903-2.171 1.295-5.683-1.196-6.9-.477-.234-.465-.234-.678.001Z" clip-rule="evenodd"/></svg>