<svg width="115" height="29" viewBox="0 0 115 29" fill="none" xmlns="http://www.w3.org/2000/svg">
<path d="M42.4677 16.4035C42.1068 17.644 41.5274 18.6688 40.7295 19.4779C39.9316 20.269 38.9818 20.8533 37.8799 21.2309C36.7781 21.5904 35.5623 21.7702 34.2325 21.7702C32.3328 21.7702 30.6896 21.4107 29.3028 20.6915C27.916 19.9543 26.8522 18.9026 26.1113 17.5362C25.3704 16.1697 25 14.5246 25 12.6009C25 10.6771 25.3704 9.03202 26.1113 7.6656C26.8522 6.29919 27.916 5.2564 29.3028 4.53723C30.6896 3.80009 32.3233 3.43151 34.204 3.43151C35.5148 3.43151 36.7211 3.61131 37.823 3.97089C38.9248 4.31249 39.8556 4.84288 40.6155 5.56204C41.3754 6.28121 41.9168 7.20713 42.2398 8.33982L37.9369 9.98491C37.671 8.87021 37.234 8.10609 36.6261 7.69257C36.0372 7.27905 35.2869 7.07229 34.375 7.07229C33.4821 7.07229 32.7033 7.27905 32.0384 7.69257C31.3925 8.10609 30.8891 8.72637 30.5281 9.55341C30.1862 10.3625 30.0152 11.3783 30.0152 12.6009C30.0152 13.8055 30.1767 14.8213 30.4996 15.6483C30.8226 16.4754 31.307 17.0957 31.9529 17.5092C32.6178 17.9227 33.4347 18.1295 34.4035 18.1295C35.3154 18.1295 36.0847 17.8957 36.7116 17.4283C37.3575 16.9428 37.7945 16.2057 38.0224 15.2168L42.4677 16.4035Z" fill="#232323"/>
<path d="M43.7119 21.5006V2.29883H48.5562V10.4703C48.9741 9.57139 49.5725 8.89717 50.3514 8.4477C51.1303 7.98024 52.0326 7.74651 53.0585 7.74651C54.0463 7.74651 54.9012 7.9263 55.623 8.28588C56.3639 8.64547 56.9433 9.17585 57.3613 9.87704C57.7792 10.5782 57.9882 11.4592 57.9882 12.52V21.5006H53.1439V13.7875C53.1439 12.8166 52.954 12.1514 52.574 11.7918C52.2131 11.4143 51.7287 11.2255 51.1208 11.2255C50.6648 11.2255 50.2374 11.3333 49.8385 11.5491C49.4395 11.7648 49.1261 12.1065 48.8981 12.5739C48.6701 13.0414 48.5562 13.6527 48.5562 14.4078V21.5006H43.7119Z" fill="#232323"/>
<path d="M68.1929 12.9515C68.1929 12.3222 68.0029 11.8278 67.623 11.4682C67.262 11.0906 66.7681 10.9018 66.1412 10.9018C65.5143 10.9018 64.9729 11.0547 64.517 11.3603C64.08 11.648 63.7761 12.1694 63.6051 12.9245L59.5018 12.0076C59.7677 10.7131 60.4706 9.67927 61.6104 8.90616C62.7502 8.13306 64.3555 7.74651 66.4262 7.74651C67.8129 7.74651 68.9907 7.94428 69.9596 8.33982C70.9474 8.71738 71.6978 9.29272 72.2107 10.0658C72.7426 10.8209 73.0086 11.7559 73.0086 12.8706V17.8058C73.0086 18.507 73.3411 18.8576 74.0059 18.8576C74.3479 18.8576 74.6233 18.8217 74.8323 18.7497L74.5474 21.3657C73.9775 21.6174 73.2841 21.7433 72.4672 21.7433C71.7263 21.7433 71.0709 21.6354 70.501 21.4196C69.9311 21.1859 69.4847 20.8443 69.1617 20.3948C68.8388 19.9274 68.6773 19.3431 68.6773 18.6419V18.4801L69.2187 18.2913C69.2187 19.0644 68.9718 19.7116 68.4778 20.233C68.0029 20.7544 67.376 21.141 66.5971 21.3927C65.8372 21.6444 65.0394 21.7702 64.2035 21.7702C63.2347 21.7702 62.3893 21.6264 61.6674 21.3387C60.9455 21.0511 60.3851 20.6376 59.9862 20.0982C59.6062 19.5408 59.4163 18.8576 59.4163 18.0486C59.4163 17.0777 59.7202 16.2776 60.3281 15.6483C60.955 15.0011 61.9334 14.5516 63.2632 14.2999L68.6488 13.2481L68.6203 15.6753L65.8847 16.2147C65.3148 16.3226 64.8874 16.4844 64.6024 16.7001C64.3365 16.8979 64.2035 17.2035 64.2035 17.6171C64.2035 18.0126 64.3555 18.3093 64.6594 18.507C64.9634 18.7048 65.3243 18.8037 65.7423 18.8037C66.0652 18.8037 66.3692 18.7587 66.6541 18.6688C66.9581 18.5789 67.224 18.4441 67.452 18.2643C67.68 18.0665 67.8604 17.8238 67.9934 17.5362C68.1264 17.2485 68.1929 16.9069 68.1929 16.5113V12.9515Z" fill="#232323"/>
<path d="M75.6046 21.5006V8.0162H79.8789L80.0784 10.9288C80.4393 9.92198 80.9712 9.13989 81.6741 8.58254C82.396 8.02518 83.3079 7.74651 84.4097 7.74651C84.7706 7.74651 85.0746 7.77348 85.3215 7.82741C85.5875 7.88135 85.7965 7.95327 85.9484 8.04316L85.464 11.8188C85.274 11.7469 85.0271 11.6929 84.7231 11.657C84.4382 11.603 84.0867 11.5761 83.6688 11.5761C83.0989 11.5761 82.567 11.6929 82.0731 11.9267C81.5791 12.1604 81.1802 12.511 80.8762 12.9784C80.5913 13.4279 80.4488 14.0033 80.4488 14.7044V21.5006H75.6046Z" fill="#232323"/>
<path d="M100.195 4.40239L100.594 7.47682C100.48 7.44086 100.366 7.42288 100.252 7.42288C100.138 7.4049 100.024 7.39592 99.9096 7.39592C99.0738 7.39592 98.4469 7.59369 98.0289 7.98923C97.63 8.36679 97.4305 8.84324 97.4305 9.41857L95.7208 8.82526C95.7208 8.08811 95.8633 7.37794 96.1482 6.69473C96.4332 6.01152 96.8701 5.45417 97.459 5.02267C98.0669 4.59117 98.8268 4.37542 99.7387 4.37542C99.7957 4.37542 99.8622 4.37542 99.9381 4.37542C100.033 4.37542 100.119 4.38441 100.195 4.40239ZM95.2934 18.507C96.9461 18.507 98.2094 18.8396 99.0833 19.5049C99.9761 20.1521 100.423 21.087 100.423 22.3096C100.423 23.4243 100.1 24.3502 99.4537 25.0874C98.8078 25.8245 97.896 26.3729 96.7182 26.7325C95.5593 27.11 94.1821 27.2988 92.5863 27.2988C90.0027 27.2988 88.141 26.9932 87.0012 26.3819C85.8614 25.7706 85.2915 24.9436 85.2915 23.9008C85.2915 23.1456 85.6144 22.5344 86.2603 22.0669C86.9062 21.5994 87.9796 21.3477 89.4803 21.3118L89.3663 21.7433C88.2075 21.5994 87.3432 21.2758 86.7732 20.7724C86.2033 20.269 85.9184 19.5858 85.9184 18.7228C85.9184 17.8598 86.2793 17.1586 87.0012 16.6192C87.7231 16.0798 88.6824 15.7832 89.8792 15.7292L91.646 16.5113H91.19C90.4492 16.5473 89.9267 16.6642 89.6228 16.8619C89.3188 17.0597 89.1669 17.3024 89.1669 17.5901C89.1669 17.8957 89.2998 18.1295 89.5658 18.2913C89.8318 18.4351 90.2307 18.507 90.7626 18.507H95.2934ZM92.6148 24.3323C93.5267 24.3323 94.277 24.2693 94.866 24.1435C95.4739 24.0356 95.9298 23.8738 96.2337 23.6581C96.5377 23.4603 96.6897 23.2266 96.6897 22.9569C96.6897 22.6872 96.5852 22.4714 96.3762 22.3096C96.1673 22.1658 95.7873 22.0939 95.2364 22.0939H90.1357C89.7748 22.0939 89.4803 22.1838 89.2523 22.3636C89.0434 22.5433 88.9389 22.7681 88.9389 23.0378C88.9389 23.4513 89.2618 23.7659 89.9077 23.9817C90.5536 24.2154 91.456 24.3323 92.6148 24.3323ZM92.7858 7.74651C94.2296 7.74651 95.4644 7.9263 96.4902 8.28588C97.516 8.64547 98.2949 9.16686 98.8268 9.85007C99.3777 10.5153 99.6532 11.3423 99.6532 12.3312C99.6532 13.3021 99.3777 14.1291 98.8268 14.8123C98.2949 15.4955 97.516 16.0169 96.4902 16.3765C95.4644 16.7181 94.2296 16.8889 92.7858 16.8889C90.5251 16.8889 88.8059 16.4934 87.6281 15.7023C86.4693 14.9112 85.8899 13.7875 85.8899 12.3312C85.8899 11.3423 86.1558 10.5153 86.6878 9.85007C87.2387 9.16686 88.027 8.64547 89.0529 8.28588C90.0787 7.9263 91.323 7.74651 92.7858 7.74651ZM92.7858 10.3625C92.1589 10.3625 91.646 10.5333 91.247 10.8749C90.8671 11.2165 90.6771 11.7019 90.6771 12.3312C90.6771 12.9425 90.8671 13.4189 91.247 13.7605C91.646 14.1021 92.1589 14.2729 92.7858 14.2729C93.3937 14.2729 93.8971 14.1021 94.296 13.7605C94.695 13.4189 94.8944 12.9425 94.8944 12.3312C94.8944 11.7019 94.695 11.2165 94.296 10.8749C93.8971 10.5333 93.3937 10.3625 92.7858 10.3625Z" fill="#232323"/>
<path d="M108.161 21.7702C106.584 21.7702 105.217 21.4916 104.058 20.9342C102.918 20.3769 102.035 19.5768 101.408 18.534C100.781 17.4912 100.467 16.2327 100.467 14.7584C100.467 13.2841 100.781 12.0255 101.408 10.9828C102.035 9.93996 102.908 9.13989 104.029 8.58254C105.169 8.02518 106.47 7.74651 107.933 7.74651C109.434 7.74651 110.707 8.02518 111.752 8.58254C112.815 9.12191 113.623 9.87704 114.174 10.8479C114.725 11.8008 115 12.8975 115 14.1381C115 14.4617 114.991 14.7853 114.972 15.109C114.953 15.4326 114.924 15.7023 114.886 15.918H103.602V13.4639H112.749L110.441 14.2999C110.441 13.2212 110.232 12.3941 109.814 11.8188C109.415 11.2435 108.788 10.9558 107.933 10.9558C107.325 10.9558 106.803 11.0906 106.366 11.3603C105.948 11.63 105.625 12.0525 105.397 12.6278C105.188 13.2032 105.084 13.9403 105.084 14.8393C105.084 15.7203 105.207 16.4394 105.454 16.9968C105.701 17.5362 106.052 17.9317 106.508 18.1834C106.964 18.4171 107.515 18.534 108.161 18.534C108.883 18.534 109.453 18.3992 109.871 18.1295C110.308 17.8598 110.631 17.4822 110.84 16.9968L114.715 18.2104C114.449 18.9835 113.984 19.6397 113.319 20.1791C112.673 20.7005 111.894 21.096 110.982 21.3657C110.089 21.6354 109.149 21.7702 108.161 21.7702Z" fill="#232323"/>
<path d="M10.9457 2.38965C4.90054 2.38965 0 7.02961 0 12.7533C0 18.477 4.90054 23.1169 10.9457 23.1169H16.5914C17.3245 23.1169 17.9187 22.5543 17.9187 21.8602V10.0911L12.9177 16.8027L10.7 14.0875L6.67727 18.2352L10.7 7.27011L12.9177 10.5338L17.9187 4.39035V3.64639C17.9187 2.95231 17.3245 2.38965 16.5914 2.38965H10.9457Z" fill="#F54D1E"/>
</svg>
