<svg xmlns="http://www.w3.org/2000/svg" width="157" height="24" fill="none"><path fill="#4284F4" d="M23.5 12.3c0-.9-.2-1.7-.3-2.5H12v4.6h6.3c-.3 1.6-1 2.8-2.3 3.7v3h4c2.2-2 3.5-5.2 3.5-8.8Z"/><path fill="#34A853" d="M12 24c3.2 0 6-1 8-3l-4-3a7.2 7.2 0 0 1-10.7-3.7h-4v3c2 4 6 6.7 10.7 6.7Z"/><path fill="#FBBC04" d="M5.3 14.3a7.1 7.1 0 0 1 0-4.6v-3h-4a12 12 0 0 0 0 10.7l4-3.1Z"/><path fill="#EA4335" d="M12 4.8c1.8 0 3.3.6 4.6 1.8L20 3A12 12 0 0 0 1.3 6.6l4 3.1c1-2.8 3.6-5 6.7-5Z"/><path fill="#5F6368" d="M41.2 16.6a6.1 6.1 0 0 1 0-10.8 7.2 7.2 0 0 1 5.8-.3c.8.3 1.4.7 2 1.3l-1 1c-.5-.5-1-.8-1.6-1A5.2 5.2 0 0 0 42 7c-.7.4-1.4 1-1.8 1.7-.4.7-.7 1.5-.7 2.5s.3 1.8.7 2.6c.4.7 1 1.3 1.8 1.7.8.4 1.6.6 2.4.6a5 5 0 0 0 2.1-.4 5 5 0 0 0 1.5-1l.7-1.1.3-1.5h-4.6v-1.3h6v.9a7 7 0 0 1-.3 2.1c-.2.7-.6 1.3-1.1 1.8a6 6 0 0 1-4.6 1.8c-1.2 0-2.2-.2-3.2-.8ZM54 16.8c-.6-.4-1.2-1-1.6-1.6-.3-.7-.5-1.4-.5-2.3 0-.8.2-1.6.5-2.3a4.7 4.7 0 0 1 4-2.2c.9 0 1.6.2 2.3.6.8.4 1.3 1 1.7 1.6.4.7.5 1.5.5 2.3 0 .9-.1 1.6-.5 2.3a4.7 4.7 0 0 1-4 2.2c-.9 0-1.6-.2-2.3-.6Zm4-1 1-1.1c.3-.5.5-1.1.5-1.7a3 3 0 0 0-.5-1.7 3 3 0 0 0-1-1.2 3.1 3.1 0 0 0-3 0c-.6.3-1 .7-1.2 1.2-.3.4-.5 1-.5 1.7a3 3 0 0 0 4.6 2.8ZM64.3 16.8c-.7-.4-1.2-1-1.6-1.6-.4-.7-.6-1.4-.6-2.3 0-.8.2-1.6.6-2.3.4-.7 1-1.2 1.6-1.6.7-.4 1.5-.6 2.4-.6.9 0 1.6.2 2.3.6.7.4 1.2 1 1.6 1.6.4.7.6 1.5.6 2.3 0 .9-.2 1.6-.6 2.3-.4.7-.9 1.2-1.6 1.6a4.7 4.7 0 0 1-4.7 0Zm3.9-1c.5-.3.8-.7 1-1.1.3-.5.5-1.1.5-1.7a3 3 0 0 0-.4-1.7 3 3 0 0 0-1.1-1.2 3.1 3.1 0 0 0-3 0c-.5.3-.9.7-1.2 1.2-.2.4-.4 1-.4 1.7a3 3 0 0 0 4.6 2.8ZM74.2 20.3c-.7-.4-1.2-1-1.4-1.7l1.3-.5c.2.4.5.9 1 1.2.4.3 1 .4 1.6.4a3 3 0 0 0 2.1-.7c.5-.5.8-1.2.8-2v-1h-.1a3.7 3.7 0 0 1-3 1.5 3.9 3.9 0 0 1-3.6-2.2 5 5 0 0 1-.5-2.3 4.6 4.6 0 0 1 2-4c.6-.4 1.3-.6 2.1-.6.7 0 1.3.2 1.8.5.5.2.9.6 1.2 1V8.7H81v8.1c0 1.4-.4 2.5-1.2 3.1-.8.8-1.8 1.1-3 1.1-1.1 0-2-.2-2.6-.7Zm4-4.5c.4-.3.8-.7 1-1.1.2-.5.4-1.1.4-1.8s-.2-1.3-.4-1.7c-.3-.5-.6-.9-1-1.1-.5-.3-1-.4-1.5-.4s-1 .1-1.4.4c-.5.2-.8.6-1 1-.4.5-.5 1.1-.5 1.8s.1 1.2.4 1.8a2.8 2.8 0 0 0 2.5 1.5c.5 0 1-.2 1.5-.4ZM83.1 5.3h1.5v11.9h-1.5v-12ZM88.4 16.8a4 4 0 0 1-1.5-1.6 5 5 0 0 1 0-4.5c.3-.7.8-1.3 1.4-1.7a4 4 0 0 1 2.3-.6 4.1 4.1 0 0 1 3.7 2c.3.7.5 1.5.5 2.3v.5h-7a3 3 0 0 0 3 3c1.1 0 2-.6 2.6-1.6l1.2.6c-.4.7-.9 1.2-1.5 1.6-.7.4-1.5.6-2.4.6a4 4 0 0 1-2.3-.6Zm4.8-4.8c0-.3-.1-.7-.3-1-.2-.4-.5-.7-.9-1-.4-.2-.8-.3-1.5-.3s-1.2.2-1.7.6c-.5.4-.8 1-1 1.7h5.4ZM100 5.3h4.2a4 4 0 0 1 3.3 1.7c.4.6.5 1.1.5 1.8s-.1 1.3-.5 1.9a4 4 0 0 1-3.3 1.7h-2.7v4.9h-1.4v-12Zm4.2 5.7c.5 0 1-.1 1.3-.3.3-.3.6-.5.8-.9.2-.3.3-.6.3-1s0-.7-.3-1c-.2-.4-.5-.7-.8-.9-.4-.2-.8-.3-1.3-.3h-2.7V11h2.7ZM111 17c-.5-.2-.9-.6-1.2-1-.2-.4-.4-.9-.4-1.4 0-1 .4-1.6 1.1-2.1.7-.5 1.6-.8 2.6-.8a5.2 5.2 0 0 1 2.6.6v-.5c0-.7-.3-1.2-.8-1.6-.4-.3-1-.5-1.7-.5-.5 0-1 0-1.4.3l-1 .8-1-.8c.3-.5.8-.9 1.4-1.2.6-.3 1.2-.4 2-.4 1.2 0 2.1.3 2.8.9.7.6 1 1.4 1 2.5V17h-1.4V16a3 3 0 0 1-1.2 1c-.5.4-1 .5-1.7.5a3 3 0 0 1-1.7-.4Zm3.2-1.2a2.7 2.7 0 0 0 1.5-2.3l-1-.5-1.3-.1a3 3 0 0 0-1.8.4c-.4.4-.7.8-.7 1.3 0 .4.2.8.6 1.1.4.3.8.4 1.4.4.5 0 1 0 1.3-.3ZM118.8 8.8h1.4v1.4h.1c.2-.6.6-1 1-1.2a3 3 0 0 1 1.7-.4h.6v1.5l-.8-.1c-.7 0-1.3.2-1.8.7-.5.5-.7 1.1-.7 1.9v4.7h-1.5V8.8Zm9 8.5-.8-.5-.5-.8-.2-1v-5h-1.5V8.6h1.5V6.3h1.5v2.4h2.1v1.2h-2.1v4.8c0 .4 0 .8.2 1 .3.3.6.4 1 .4s.7 0 1-.3v1.4a2.6 2.6 0 0 1-1.2.2 2 2 0 0 1-1-.1ZM131.6 8.7h1.4v1.2h.1c.2-.4.6-.8 1.1-1 .6-.4 1.1-.5 1.7-.5 1 0 1.9.3 2.4.9.6.6.9 1.4.9 2.4v5.5h-1.5v-5.3c0-.8-.2-1.3-.6-1.7-.3-.3-.9-.5-1.5-.5-.5 0-1 .1-1.3.4-.4.2-.7.6-.9 1-.2.4-.3.8-.3 1.3v4.8h-1.5V8.7ZM143 16.8a4 4 0 0 1-1.6-1.6 5 5 0 0 1 0-4.5c.3-.7.8-1.3 1.4-1.7a4 4 0 0 1 2.3-.6 4.1 4.1 0 0 1 3.7 2c.3.7.5 1.5.5 2.3v.5h-7a3 3 0 0 0 3 3c1.1 0 2-.6 2.6-1.6l1.2.6c-.4.7-.9 1.2-1.6 1.6-.6.4-1.4.6-2.3.6a4 4 0 0 1-2.3-.6Zm4.7-4.8-.3-1c-.2-.4-.5-.7-1-1-.3-.2-.8-.3-1.4-.3-.7 0-1.3.2-1.8.6-.5.4-.8 1-.9 1.7h5.4ZM151 8.7h1.3V10h.1a3 3 0 0 1 3.6-1.4V10c-.4-.2-.8-.2-1.2-.2-.5 0-.9 0-1.2.3-.4.2-.7.5-.9 1-.2.3-.3.7-.3 1.2v4.8H151V8.7Z"/><path stroke="#5F6368" stroke-miterlimit="10" stroke-width=".3" d="M41.2 16.6a6.1 6.1 0 0 1 0-10.8 7.2 7.2 0 0 1 5.8-.3c.8.3 1.4.7 2 1.3l-1 1c-.5-.5-1-.8-1.6-1A5.2 5.2 0 0 0 42 7c-.7.4-1.4 1-1.8 1.7-.4.7-.7 1.5-.7 2.5s.3 1.8.7 2.6c.4.7 1 1.3 1.8 1.7.8.4 1.6.6 2.4.6a5 5 0 0 0 2.1-.4 5 5 0 0 0 1.5-1l.7-1.1.3-1.5h-4.6v-1.3h6v.9a7 7 0 0 1-.3 2.1c-.2.7-.6 1.3-1.1 1.8a6 6 0 0 1-4.6 1.8c-1.2 0-2.2-.2-3.2-.8ZM54 16.8c-.6-.4-1.2-1-1.6-1.6-.3-.7-.5-1.4-.5-2.3 0-.8.2-1.6.5-2.3a4.7 4.7 0 0 1 4-2.2c.9 0 1.6.2 2.3.6.8.4 1.3 1 1.7 1.6.4.7.5 1.5.5 2.3 0 .9-.1 1.6-.5 2.3a4.7 4.7 0 0 1-4 2.2c-.9 0-1.6-.2-2.3-.6Zm4-1 1-1.1c.3-.5.5-1.1.5-1.7a3 3 0 0 0-.5-1.7 3 3 0 0 0-1-1.2 3.1 3.1 0 0 0-3 0c-.6.3-1 .7-1.2 1.2-.3.4-.5 1-.5 1.7a3 3 0 0 0 4.6 2.8ZM64.3 16.8c-.7-.4-1.2-1-1.6-1.6-.4-.7-.6-1.4-.6-2.3 0-.8.2-1.6.6-2.3.4-.7 1-1.2 1.6-1.6.7-.4 1.5-.6 2.4-.6.9 0 1.6.2 2.3.6.7.4 1.2 1 1.6 1.6.4.7.6 1.5.6 2.3 0 .9-.2 1.6-.6 2.3-.4.7-.9 1.2-1.6 1.6a4.7 4.7 0 0 1-4.7 0Zm3.9-1c.5-.3.8-.7 1-1.1.3-.5.5-1.1.5-1.7a3 3 0 0 0-.4-1.7 3 3 0 0 0-1.1-1.2 3.1 3.1 0 0 0-3 0c-.5.3-.9.7-1.2 1.2-.2.4-.4 1-.4 1.7a3 3 0 0 0 4.6 2.8ZM74.2 20.3c-.7-.4-1.2-1-1.4-1.7l1.3-.5c.2.4.5.9 1 1.2.4.3 1 .4 1.6.4a3 3 0 0 0 2.1-.7c.5-.5.8-1.2.8-2v-1h-.1a3.7 3.7 0 0 1-3 1.5 3.9 3.9 0 0 1-3.6-2.2 5 5 0 0 1-.5-2.3 4.6 4.6 0 0 1 2-4c.6-.4 1.3-.6 2.1-.6.7 0 1.3.2 1.8.5.5.2.9.6 1.2 1V8.7H81v8.1c0 1.4-.4 2.5-1.2 3.1-.8.8-1.8 1.1-3 1.1-1.1 0-2-.2-2.6-.7Zm4-4.5c.4-.3.8-.7 1-1.1.2-.5.4-1.1.4-1.8s-.2-1.3-.4-1.7c-.3-.5-.6-.9-1-1.1-.5-.3-1-.4-1.5-.4s-1 .1-1.4.4c-.5.2-.8.6-1 1-.4.5-.5 1.1-.5 1.8s.1 1.2.4 1.8a2.8 2.8 0 0 0 2.5 1.5c.5 0 1-.2 1.5-.4ZM83.1 5.3h1.5v11.9h-1.5v-12ZM88.4 16.8a4 4 0 0 1-1.5-1.6 5 5 0 0 1 0-4.5c.3-.7.8-1.3 1.4-1.7a4 4 0 0 1 2.3-.6 4.1 4.1 0 0 1 3.7 2c.3.7.5 1.5.5 2.3v.5h-7a3 3 0 0 0 3 3c1.1 0 2-.6 2.6-1.6l1.2.6c-.4.7-.9 1.2-1.5 1.6-.7.4-1.5.6-2.4.6a4 4 0 0 1-2.3-.6Zm4.8-4.8c0-.3-.1-.7-.3-1-.2-.4-.5-.7-.9-1-.4-.2-.8-.3-1.5-.3s-1.2.2-1.7.6c-.5.4-.8 1-1 1.7h5.4ZM100 5.3h4.2a4 4 0 0 1 3.3 1.7c.4.6.5 1.1.5 1.8s-.1 1.3-.5 1.9a4 4 0 0 1-3.3 1.7h-2.7v4.9h-1.4v-12Zm4.2 5.7c.5 0 1-.1 1.3-.3.3-.3.6-.5.8-.9.2-.3.3-.6.3-1s0-.7-.3-1c-.2-.4-.5-.7-.8-.9-.4-.2-.8-.3-1.3-.3h-2.7V11h2.7ZM111 17c-.5-.2-.9-.6-1.2-1-.2-.4-.4-.9-.4-1.4 0-1 .4-1.6 1.1-2.1.7-.5 1.6-.8 2.6-.8a5.2 5.2 0 0 1 2.6.6v-.5c0-.7-.3-1.2-.8-1.6-.4-.3-1-.5-1.7-.5-.5 0-1 0-1.4.3l-1 .8-1-.8c.3-.5.8-.9 1.4-1.2.6-.3 1.2-.4 2-.4 1.2 0 2.1.3 2.8.9.7.6 1 1.4 1 2.5V17h-1.4V16a3 3 0 0 1-1.2 1c-.5.4-1 .5-1.7.5a3 3 0 0 1-1.7-.4Zm3.2-1.2a2.7 2.7 0 0 0 1.5-2.3l-1-.5-1.3-.1a3 3 0 0 0-1.8.4c-.4.4-.7.8-.7 1.3 0 .4.2.8.6 1.1.4.3.8.4 1.4.4.5 0 1 0 1.3-.3ZM118.8 8.8h1.4v1.4h.1c.2-.6.6-1 1-1.2a3 3 0 0 1 1.7-.4h.6v1.5l-.8-.1c-.7 0-1.3.2-1.8.7-.5.5-.7 1.1-.7 1.9v4.7h-1.5V8.8Zm9 8.5-.8-.5-.5-.8-.2-1v-5h-1.5V8.6h1.5V6.3h1.5v2.4h2.1v1.2h-2.1v4.8c0 .4 0 .8.2 1 .3.3.6.4 1 .4s.7 0 1-.3v1.4a2.6 2.6 0 0 1-1.2.2 2 2 0 0 1-1-.1ZM131.6 8.7h1.4v1.2h.1c.2-.4.6-.8 1.1-1 .6-.4 1.1-.5 1.7-.5 1 0 1.9.3 2.4.9.6.6.9 1.4.9 2.4v5.5h-1.5v-5.3c0-.8-.2-1.3-.6-1.7-.3-.3-.9-.5-1.5-.5-.5 0-1 .1-1.3.4-.4.2-.7.6-.9 1-.2.4-.3.8-.3 1.3v4.8h-1.5V8.7ZM143 16.8a4 4 0 0 1-1.6-1.6 5 5 0 0 1 0-4.5c.3-.7.8-1.3 1.4-1.7a4 4 0 0 1 2.3-.6 4.1 4.1 0 0 1 3.7 2c.3.7.5 1.5.5 2.3v.5h-7a3 3 0 0 0 3 3c1.1 0 2-.6 2.6-1.6l1.2.6c-.4.7-.9 1.2-1.6 1.6-.6.4-1.4.6-2.3.6a4 4 0 0 1-2.3-.6Zm4.7-4.8-.3-1c-.2-.4-.5-.7-1-1-.3-.2-.8-.3-1.4-.3-.7 0-1.3.2-1.8.6-.5.4-.8 1-.9 1.7h5.4ZM151 8.7h1.3V10h.1a3 3 0 0 1 3.6-1.4V10c-.4-.2-.8-.2-1.2-.2-.5 0-.9 0-1.2.3-.4.2-.7.5-.9 1-.2.3-.3.7-.3 1.2v4.8H151V8.7Z"/></svg>