<svg width="634" height="1018" viewBox="0 0 634 1018" fill="none" xmlns="http://www.w3.org/2000/svg">
<g filter="url(#filter0_bd_404_289)">
<path d="M283.007 286.654C362.442 286.654 426.837 222.497 426.837 143.355C426.837 64.2128 362.442 0.0556641 283.007 0.0556641C203.572 0.0556641 139.178 64.2128 139.178 143.355C139.178 222.497 203.572 286.654 283.007 286.654Z" fill="url(#paint0_radial_404_289)" fill-opacity="0.5" shape-rendering="crispEdges"/>
<path d="M426.337 143.355C426.337 222.219 362.168 286.154 283.007 286.154C203.847 286.154 139.678 222.219 139.678 143.355C139.678 64.4907 203.847 0.555664 283.007 0.555664C362.168 0.555664 426.337 64.4907 426.337 143.355Z" stroke="white" shape-rendering="crispEdges"/>
</g>
<g filter="url(#filter1_b_404_289)">
<path d="M158.829 940.385C71.4627 869.142 4.76416 752.822 0.883719 644.066C-2.34998 553.24 18.9643 487.179 97.6979 418.402C191.054 336.737 330.299 329.649 418.059 362.567C520.807 401.088 566.5 463.731 565.46 529.931C564.251 605.18 447.641 592.545 404.422 718.082C369.02 821.123 473.96 956.914 417.891 996.163C361.821 1035.41 266.863 1023.45 158.829 940.385Z" fill="url(#paint1_radial_404_289)" fill-opacity="0.4"/>
<path d="M98.0269 418.778L98.0271 418.778C191.219 337.256 330.263 330.169 417.884 363.035L418.059 362.567L417.884 363.035C520.515 401.513 565.996 464.01 564.96 529.923C564.66 548.578 557.219 561.777 545.518 573.062C535.423 582.799 522.18 591.091 507.604 600.218C505.244 601.696 502.849 603.195 500.427 604.726C465.692 626.684 425.615 654.987 403.949 717.92L403.949 717.92C395.063 743.783 394.991 771.678 398.981 799.554C402.897 826.914 410.732 854.294 418.016 879.75L418.426 881.182C425.831 907.065 432.568 930.883 433.963 950.68C435.358 970.468 431.409 986.09 417.604 995.754C361.814 1034.81 267.119 1023.01 159.14 939.993C71.8658 868.823 5.2577 752.632 1.3834 644.048C-0.231923 598.678 4.28551 559.532 19.0165 523.153C33.7467 486.776 58.7045 453.128 98.0269 418.778Z" stroke="white"/>
</g>
<defs>
<filter id="filter0_bd_404_289" x="69.1777" y="-69.9443" width="564.548" height="562.729" filterUnits="userSpaceOnUse" color-interpolation-filters="sRGB">
<feFlood flood-opacity="0" result="BackgroundImageFix"/>
<feGaussianBlur in="BackgroundImageFix" stdDeviation="35"/>
<feComposite in2="SourceAlpha" operator="in" result="effect1_backgroundBlur_404_289"/>
<feColorMatrix in="SourceAlpha" type="matrix" values="0 0 0 0 0 0 0 0 0 0 0 0 0 0 0 0 0 0 127 0" result="hardAlpha"/>
<feMorphology radius="15.1567" operator="erode" in="SourceAlpha" result="effect2_dropShadow_404_289"/>
<feOffset dx="131.105" dy="130.348"/>
<feGaussianBlur stdDeviation="45.4701"/>
<feComposite in2="hardAlpha" operator="out"/>
<feColorMatrix type="matrix" values="0 0 0 0 0.366667 0 0 0 0 0.0984496 0 0 0 0 0.01375 0 0 0 0.08 0"/>
<feBlend mode="normal" in2="effect1_backgroundBlur_404_289" result="effect2_dropShadow_404_289"/>
<feBlend mode="normal" in="SourceGraphic" in2="effect2_dropShadow_404_289" result="shape"/>
</filter>
<filter id="filter1_b_404_289" x="-69.4269" y="274.181" width="704.904" height="813.533" filterUnits="userSpaceOnUse" color-interpolation-filters="sRGB">
<feFlood flood-opacity="0" result="BackgroundImageFix"/>
<feGaussianBlur in="BackgroundImageFix" stdDeviation="35"/>
<feComposite in2="SourceAlpha" operator="in" result="effect1_backgroundBlur_404_289"/>
<feBlend mode="normal" in="SourceGraphic" in2="effect1_backgroundBlur_404_289" result="shape"/>
</filter>
<radialGradient id="paint0_radial_404_289" cx="0" cy="0" r="1" gradientUnits="userSpaceOnUse" gradientTransform="translate(230.661 50.7465) rotate(57.4004) scale(280.023 258.094)">
<stop stop-color="white"/>
<stop offset="0.411483" stop-color="#F8F8F8"/>
<stop offset="0.725587" stop-color="#E3E0DE"/>
<stop offset="0.92193" stop-color="#F5F5F5"/>
</radialGradient>
<radialGradient id="paint1_radial_404_289" cx="0" cy="0" r="1" gradientUnits="userSpaceOnUse" gradientTransform="translate(180.228 463.309) rotate(61.8801) scale(628.603 530.612)">
<stop stop-color="white"/>
<stop offset="0.411483" stop-color="#F8F8F8"/>
<stop offset="0.725587" stop-color="#E3E0DE"/>
<stop offset="0.92193" stop-color="#F5F5F5"/>
</radialGradient>
</defs>
</svg>
