<svg xmlns="http://www.w3.org/2000/svg" width="136" height="24" fill="none"><path fill="#D5E7FF" d="m12 0 2.74 1.777L18 1.608l1.484 2.908L22.392 6l-.169 3.261L24 12.001l-1.777 2.739.17 3.26-2.909 1.484L18 22.393l-3.26-.17L12 24l-2.74-1.776-3.26.169-1.484-2.909L1.608 18l.169-3.26L0 12l1.777-2.739-.17-3.26 2.909-1.485L6 1.608l3.26.169L12 0Z"/><path fill="#1E5BC2" fill-rule="evenodd" d="M16.75 8.215a.808.808 0 0 1 .038 1.131l-5.895 6.4a.785.785 0 0 1-1.154 0l-2.527-2.743a.808.808 0 0 1 .039-1.13.782.782 0 0 1 1.116.039l1.949 2.116 5.317-5.774a.782.782 0 0 1 1.116-.039Z" clip-rule="evenodd"/><path fill="#5F6368" d="M36.372 17.9V6.35h4.101c.801 0 1.465.137 1.992.41.527.275.92.644 1.179 1.11.263.46.395.974.395 1.542 0 .491-.088.9-.264 1.225-.17.32-.4.579-.69.775a3.308 3.308 0 0 1-.938.434v.101c.373.026.737.153 1.094.38.361.227.659.548.891.961.238.414.357.92.357 1.52a3.13 3.13 0 0 1-.403 1.581c-.27.465-.69.835-1.264 1.109-.574.268-1.315.403-2.225.403h-4.225Zm1.465-1.294h2.721c.9 0 1.543-.17 1.93-.511.388-.347.582-.778.582-1.295 0-.393-.098-.75-.295-1.07a2.095 2.095 0 0 0-.837-.775c-.362-.196-.796-.295-1.302-.295h-2.799v3.946Zm0-5.186h2.566c.424 0 .804-.08 1.14-.24.336-.166.6-.396.79-.69a1.83 1.83 0 0 0 .295-1.04c0-.51-.178-.94-.535-1.286-.351-.346-.899-.52-1.643-.52h-2.613v3.776ZM48.051 6.35V17.9h-1.465V6.35h1.465ZM50.629 17.9V6.35h2.07l2.852 7.303c.068.17.145.385.233.643.088.253.178.527.271.822a29.151 29.151 0 0 1 .504 1.682h-.325a580.201 580.201 0 0 0 .511-1.651c.099-.3.192-.579.28-.837.087-.264.165-.484.232-.66l2.814-7.302h2.085V17.9h-1.441v-7.418l.015-.954c.01-.33.018-.666.023-1.007.01-.347.018-.68.023-1h.132c-.113.356-.232.718-.356 1.085-.12.367-.238.72-.357 1.062a44.74 44.74 0 0 1-.325.93c-.099.28-.184.512-.256.698l-2.597 6.605h-1.264l-2.628-6.605c-.072-.18-.158-.408-.256-.682l-.325-.915a2309.624 2309.624 0 0 1-.737-2.178h.147c.01.29.018.602.024.938.01.33.018.666.023 1.007l.015.977c.006.316.008.6.008.853v6.605H50.63ZM66.2 6.35V17.9h-1.466V6.35H66.2ZM77.735 18.056c-.998 0-1.884-.24-2.659-.721-.775-.48-1.385-1.163-1.83-2.047-.439-.889-.658-1.94-.658-3.155 0-1.22.22-2.271.658-3.155.445-.889 1.055-1.574 1.83-2.054.775-.486 1.662-.729 2.659-.729.584 0 1.134.085 1.651.256.522.17.99.421 1.403.752.419.33.765.731 1.04 1.201.278.466.47.995.573 1.59h-1.465a3.026 3.026 0 0 0-.434-1.047 2.788 2.788 0 0 0-.73-.767 2.995 2.995 0 0 0-.953-.473 3.774 3.774 0 0 0-1.085-.155 3.49 3.49 0 0 0-1.907.535c-.558.356-1 .876-1.326 1.558-.325.677-.488 1.506-.488 2.488 0 .977.163 1.807.488 2.489.331.677.776 1.194 1.334 1.55a3.514 3.514 0 0 0 1.899.527c.377 0 .739-.051 1.085-.155.352-.108.67-.266.954-.473a2.79 2.79 0 0 0 .729-.767c.201-.305.346-.654.434-1.047h1.465a4.55 4.55 0 0 1-.566 1.59c-.274.465-.62.863-1.039 1.193-.413.331-.881.584-1.403.76a5.26 5.26 0 0 1-1.659.256ZM87.902 18.087c-.832 0-1.55-.186-2.155-.558a3.707 3.707 0 0 1-1.388-1.55c-.325-.667-.488-1.44-.488-2.319 0-.883.158-1.661.473-2.333.32-.677.773-1.207 1.357-1.59.584-.382 1.266-.573 2.046-.573.47 0 .93.08 1.38.24.45.16.853.411 1.21.752.361.341.648.788.86 1.341.212.548.318 1.215.318 2v.559h-6.73v-1.17h5.986l-.644.426c0-.569-.09-1.07-.271-1.504-.181-.44-.45-.783-.806-1.031-.352-.248-.786-.372-1.303-.372-.517 0-.961.126-1.333.38a2.412 2.412 0 0 0-.853.992 3.036 3.036 0 0 0-.295 1.333v.76c0 .635.109 1.176.326 1.62.222.444.532.783.93 1.016.398.232.86.348 1.388.348.346 0 .659-.049.938-.147.284-.103.525-.256.721-.457.201-.202.357-.45.465-.745l1.341.334c-.129.444-.354.837-.674 1.178-.32.336-.719.6-1.194.79-.476.187-1.01.28-1.605.28ZM93.31 17.9V9.28h1.333v1.334h.093c.155-.44.434-.791.837-1.055a2.43 2.43 0 0 1 1.38-.403c.103 0 .222.006.357.016.14.005.25.01.333.015v1.396a3.595 3.595 0 0 0-.31-.047 3.408 3.408 0 0 0-.527-.038c-.398 0-.76.085-1.085.255-.32.17-.572.409-.752.713-.181.3-.272.65-.272 1.047v5.388H93.31ZM102.717 9.28v1.194h-4.48V9.28h4.48Zm-3.155-2.077h1.388v8.48c0 .378.075.654.224.83.155.17.416.256.783.256.088 0 .199-.008.334-.023.139-.02.266-.041.38-.062l.263 1.178c-.145.047-.307.08-.488.1a3.77 3.77 0 0 1-.535.04c-.744 0-1.323-.194-1.737-.582-.408-.387-.612-.93-.612-1.628v-8.59ZM104.31 17.9V9.28h1.388v8.62h-1.388Zm.698-10.054a.949.949 0 0 1-.674-.271.862.862 0 0 1-.287-.651c0-.254.095-.468.287-.644a.949.949 0 0 1 .674-.271.94.94 0 0 1 .682.271c.191.176.287.39.287.644 0 .253-.096.47-.287.65a.94.94 0 0 1-.682.272ZM111.919 9.28v1.194h-5.039V9.28h5.039Zm-3.356 8.62V8.095c0-.486.113-.894.341-1.225.232-.33.535-.581.907-.752.372-.17.767-.255 1.186-.255.315 0 .579.025.791.077.211.047.366.09.465.132l-.349 1.186a4.496 4.496 0 0 0-.295-.07 1.857 1.857 0 0 0-.457-.046c-.419 0-.724.106-.915.318-.191.212-.287.524-.287.938V17.9h-1.387ZM113.544 17.9V9.28h1.387v8.62h-1.387Zm.697-10.054a.949.949 0 0 1-.674-.271.866.866 0 0 1-.287-.651c0-.254.096-.468.287-.644a.949.949 0 0 1 .674-.271.94.94 0 0 1 .682.271c.192.176.287.39.287.644 0 .253-.095.47-.287.65a.94.94 0 0 1-.682.272ZM120.78 18.087c-.832 0-1.55-.186-2.155-.558a3.706 3.706 0 0 1-1.387-1.55c-.326-.667-.489-1.44-.489-2.319 0-.883.158-1.661.473-2.333.321-.677.773-1.207 1.357-1.59.584-.382 1.266-.573 2.046-.573.471 0 .931.08 1.38.24.45.16.853.411 1.21.752.361.341.648.788.86 1.341.212.548.318 1.215.318 2v.559h-6.729v-1.17h5.985l-.644.426c0-.569-.09-1.07-.271-1.504a2.28 2.28 0 0 0-.806-1.031c-.352-.248-.786-.372-1.303-.372-.516 0-.961.126-1.333.38a2.419 2.419 0 0 0-.853.992 3.04 3.04 0 0 0-.294 1.333v.76c0 .635.108 1.176.325 1.62.223.444.533.783.931 1.016.398.232.86.348 1.387.348.346 0 .659-.049.938-.147.284-.103.525-.256.721-.457.202-.202.357-.45.465-.745l1.341.334a2.87 2.87 0 0 1-.674 1.178c-.32.336-.718.6-1.194.79-.475.187-1.01.28-1.605.28ZM129.421 18.087c-.719 0-1.355-.183-1.908-.55-.547-.367-.976-.884-1.286-1.55-.305-.673-.458-1.463-.458-2.373 0-.91.155-1.695.465-2.357.31-.666.739-1.18 1.287-1.542.553-.362 1.189-.543 1.907-.543.543 0 .98.088 1.31.263.331.176.59.38.776.613.186.232.33.434.434.604h.093V6.35h1.387V17.9h-1.341v-1.332h-.139a5.497 5.497 0 0 1-.442.62 2.542 2.542 0 0 1-.791.628c-.331.18-.762.271-1.294.271Zm.209-1.248c.527 0 .971-.137 1.333-.411.362-.274.636-.654.822-1.14.191-.485.287-1.049.287-1.69 0-.635-.093-1.19-.279-1.666-.186-.481-.463-.853-.83-1.117-.362-.268-.806-.403-1.333-.403-.538 0-.99.14-1.357.419-.362.279-.636.659-.822 1.14a4.617 4.617 0 0 0-.271 1.627c0 .61.091 1.16.271 1.652.186.49.463.878.83 1.163.367.284.817.426 1.349.426Z"/></svg>