<svg width="113" height="29" viewBox="0 0 113 29" fill="none" xmlns="http://www.w3.org/2000/svg">
<path d="M22.7715 19.4461C22.5998 18.5136 22.2993 17.6301 22.0172 16.7774C21.9436 16.5565 21.87 16.3356 21.7964 16.1148L21.7412 15.9675C21.41 15.0964 21.3671 14.0596 21.6124 12.7835C22.2441 8.09637 21.5204 4.26202 19.3433 0.709871C19.2083 0.476742 18.9569 0.323368 18.6932 0.298828H18.638C18.638 0.298828 18.6257 0.298828 18.6196 0.298828C18.6135 0.298828 18.6073 0.298828 18.6012 0.298828H18.546C18.27 0.317233 18.0063 0.476742 17.8591 0.709871C17.5279 1.22521 17.1968 1.70987 16.884 2.17613C16.1235 3.29269 15.406 4.34791 14.7068 5.70987C13.6704 5.26815 12.591 5.04116 11.5055 5.02275C10.4199 5.04116 9.34668 5.26815 8.30409 5.70987C7.59881 4.34791 6.88126 3.29269 6.12692 2.17613C5.80801 1.70987 5.48297 1.22521 5.15179 0.716006C5.0046 0.482877 4.74089 0.323368 4.46491 0.304963H4.40972C4.40358 0.304963 4.39745 0.304963 4.39132 0.304963C4.09694 0.304963 3.81483 0.470607 3.66151 0.722141C1.4782 4.26815 0.760657 8.10251 1.38621 12.7958C1.63153 14.0657 1.5886 15.1025 1.25742 15.9737L1.20222 16.1148L1.19609 16.1393C0.601203 17.8939 -0.0120848 19.7037 0.00018099 21.6669C0.0124467 22.5442 0.208699 23.2007 0.588937 23.624C1.25129 24.2743 2.10376 24.6301 2.92556 24.9737C3.2506 25.1086 3.58791 25.2498 3.91295 25.4093L4.04788 25.4706C6.33544 26.4767 8.70273 27.5136 11.1068 28.2436L11.1743 28.262L11.2479 28.2866C11.3276 28.2927 11.4073 28.2988 11.4932 28.2988C11.4932 28.2988 11.5055 28.2988 11.5116 28.2988C11.5974 28.2988 11.6772 28.2927 11.7569 28.2804L11.8305 28.262L11.898 28.2436C14.302 27.5074 16.6632 26.4706 18.9508 25.4645L19.0857 25.4031C19.4107 25.2436 19.748 25.1025 20.0731 24.9675C20.8949 24.624 21.7473 24.2682 22.4158 23.6117C23.3051 22.5626 22.9678 20.6056 22.7654 19.4399L22.7715 19.4461ZM3.02982 7.24361C3.18927 5.78963 3.60018 4.51969 4.45265 2.87552C4.73476 3.32337 5.01074 3.72828 5.28058 4.12091C5.80188 4.88165 6.29251 5.60558 6.77701 6.53809C6.20052 6.91233 5.66695 7.34791 5.18246 7.82644L5.12726 7.88165C4.28093 8.74668 3.54498 9.72214 2.95009 10.7774C2.8765 9.55036 2.90716 8.36631 3.02982 7.24361ZM12.4928 25.489C12.5296 25.4461 12.5664 25.4031 12.6032 25.3663C12.7198 25.2375 12.8363 25.1148 12.916 24.9369C13.1552 24.4645 13.1123 23.8878 12.8056 23.4093C12.5112 22.9491 12.039 22.6731 11.5361 22.6731C11.5238 22.6731 11.5116 22.6731 11.4993 22.6731C10.978 22.6731 10.4874 22.9369 10.193 23.4093C9.88637 23.8939 9.84344 24.4645 10.0826 24.9369C10.1685 25.1148 10.2789 25.2436 10.3954 25.3724C10.4322 25.4093 10.469 25.4522 10.5058 25.4951C10.5426 25.5381 10.5549 25.5933 10.5426 25.6485C10.5181 25.759 10.4138 25.8817 10.2911 25.943C10.1378 26.0166 9.9293 26.0228 9.64106 25.943C8.51874 25.5258 7.40256 25.0473 6.32317 24.5872C5.80188 24.3663 5.28058 24.1455 4.75929 23.9246C3.97428 23.5994 3.09115 23.2375 2.29388 22.7896C1.95657 22.5994 1.76032 22.4399 1.72965 22.17C1.67446 21.6608 1.80938 20.4093 1.89524 19.9246C2.01176 19.1577 2.27548 18.3786 2.52692 17.624C2.79677 16.8326 3.06662 16.0105 3.18314 15.1945C4.31772 16.4461 5.80188 17.489 7.37803 18.1332C7.75213 18.305 8.14464 18.4522 8.54941 18.581C8.63527 18.5994 8.72113 18.6301 8.80699 18.6547C8.9971 18.716 9.19336 18.7774 9.39574 18.7835C9.76371 18.7896 10.1133 18.581 10.2973 18.2252C10.4751 17.8694 10.4445 17.4706 10.2237 17.1823C10.0888 16.9859 9.87411 16.8448 9.60426 16.7712C9.10136 16.6056 8.57394 16.4215 8.07104 16.2313C6.4213 15.5626 4.86355 14.5933 3.43459 13.3479C5.10886 9.11478 8.1201 6.59331 11.4993 6.59331C14.8785 6.59331 17.8898 9.11478 19.564 13.3479C18.1351 14.5933 16.5773 15.5626 14.9337 16.2313C14.4247 16.4215 13.8973 16.6117 13.4005 16.7712C13.1245 16.8448 12.9099 16.9859 12.775 17.1761C12.548 17.4706 12.5174 17.8694 12.6952 18.2252C12.8731 18.5749 13.2043 18.7835 13.5661 18.7835C13.5722 18.7835 13.5845 18.7835 13.5906 18.7835C13.793 18.7774 13.9893 18.716 14.1794 18.6547C14.2652 18.624 14.3511 18.5994 14.4431 18.5749C14.8417 18.4461 15.2281 18.2927 15.6022 18.127C17.1784 17.4829 18.6625 16.4399 19.7971 15.1884C19.9136 16.0044 20.1835 16.8203 20.4533 17.6178C20.7048 18.3724 20.9685 19.1516 21.085 19.9185C21.1709 20.4031 21.3058 21.6547 21.2506 22.1577C21.2199 22.4277 21.0237 22.5872 20.6864 22.7774C19.8891 23.2252 19.006 23.5872 18.2209 23.9123C17.6997 24.1271 17.1784 24.3479 16.6571 24.5749C15.5777 25.035 14.4615 25.5074 13.3514 25.9246C13.0571 25.9982 12.8485 25.9982 12.6952 25.9246C12.5726 25.8632 12.4683 25.7405 12.4438 25.6301C12.4315 25.5688 12.4438 25.5197 12.4806 25.4767L12.4928 25.489ZM20.0547 10.7774C19.4721 9.73441 18.7545 8.78349 17.9266 7.93073L17.8714 7.87552C17.3746 7.37858 16.8165 6.9246 16.2216 6.53196C16.7061 5.60558 17.1968 4.88779 17.7119 4.12705L17.7364 4.09024C18.0002 3.70374 18.27 3.3111 18.546 2.86938C19.7603 5.02889 20.2509 7.61785 20.0485 10.7774H20.0547Z" fill="#344054"/>
<path d="M33 22.5534V6.5565H43.4684V8.8111H35.5469V13.6209H42.605V15.8755H35.5469V22.5534H33Z" fill="#344054"/>
<path d="M50.2747 22.8111C49.1523 22.8111 48.1235 22.5463 47.1881 22.0166C46.2672 21.487 45.5333 20.7641 44.9865 19.8479C44.4397 18.9318 44.1663 17.8939 44.1663 16.7344C44.1663 15.5606 44.4397 14.5228 44.9865 13.6209C45.5333 12.7048 46.2672 11.989 47.1881 11.4737C48.1091 10.944 49.1379 10.6792 50.2747 10.6792C51.4259 10.6792 52.4547 10.944 53.3612 11.4737C54.2822 11.989 55.0088 12.7048 55.5413 13.6209C56.0881 14.5228 56.3615 15.5606 56.3615 16.7344C56.3615 17.9082 56.0881 18.9532 55.5413 19.8694C54.9945 20.7855 54.2606 21.5084 53.3397 22.0381C52.4187 22.5534 51.3971 22.8111 50.2747 22.8111ZM50.2747 20.5565C50.9654 20.5565 51.5769 20.3919 52.1094 20.0626C52.6418 19.7334 53.0591 19.2825 53.3612 18.7099C53.6778 18.123 53.8361 17.4645 53.8361 16.7344C53.8361 16.0043 53.6778 15.353 53.3612 14.7804C53.0591 14.2078 52.6418 13.7569 52.1094 13.4277C51.5769 13.0984 50.9654 12.9338 50.2747 12.9338C49.5984 12.9338 48.9868 13.0984 48.44 13.4277C47.9076 13.7569 47.4831 14.2078 47.1665 14.7804C46.8644 15.353 46.7133 16.0043 46.7133 16.7344C46.7133 17.4645 46.8644 18.123 47.1665 18.7099C47.4831 19.2825 47.9076 19.7334 48.44 20.0626C48.9868 20.3919 49.5984 20.5565 50.2747 20.5565Z" fill="#344054"/>
<path d="M58.3325 22.5534V6.29883H60.7716V22.5534H58.3325Z" fill="#344054"/>
<path d="M68.6092 22.8111C67.4868 22.8111 66.4795 22.5463 65.5874 22.0166C64.7096 21.4727 64.0117 20.7426 63.4937 19.8264C62.9901 18.9103 62.7383 17.8796 62.7383 16.7344C62.7383 15.5892 62.9973 14.5585 63.5153 13.6424C64.0333 12.7262 64.7312 12.0033 65.609 11.4737C66.4867 10.944 67.4796 10.6792 68.5876 10.6792C69.5229 10.6792 70.3503 10.8653 71.0698 11.2375C71.7893 11.6097 72.3577 12.125 72.775 12.7835L72.408 13.3418V6.29883H74.8255V22.5534H72.516V20.1915L72.7966 20.6424C72.3936 21.3438 71.8181 21.8806 71.0698 22.2528C70.3216 22.625 69.5014 22.8111 68.6092 22.8111ZM68.8466 20.5565C69.5229 20.5565 70.1273 20.3919 70.6597 20.0626C71.2065 19.7334 71.631 19.2825 71.9332 18.7099C72.2498 18.123 72.408 17.4645 72.408 16.7344C72.408 16.0043 72.2498 15.353 71.9332 14.7804C71.631 14.2078 71.2065 13.7569 70.6597 13.4277C70.1273 13.0984 69.5229 12.9338 68.8466 12.9338C68.1703 12.9338 67.5588 13.0984 67.012 13.4277C66.4652 13.7569 66.0407 14.2078 65.7385 14.7804C65.4363 15.353 65.2852 16.0043 65.2852 16.7344C65.2852 17.4645 65.4363 18.123 65.7385 18.7099C66.0407 19.2825 66.458 19.7334 66.9904 20.0626C67.5372 20.3919 68.1559 20.5565 68.8466 20.5565Z" fill="#344054"/>
<path d="M82.7452 22.8111C81.5797 22.8111 80.5436 22.5463 79.6371 22.0166C78.7449 21.4727 78.047 20.7426 77.5434 19.8264C77.0398 18.896 76.788 17.8581 76.788 16.7129C76.788 15.5391 77.0398 14.5013 77.5434 13.5994C78.0614 12.6976 78.7521 11.989 79.6155 11.4737C80.4789 10.944 81.4574 10.6792 82.551 10.6792C83.4287 10.6792 84.213 10.8295 84.9037 11.1301C85.5944 11.4307 86.1771 11.8459 86.652 12.3755C87.1268 12.8909 87.4866 13.4849 87.7312 14.1577C87.9902 14.8305 88.1197 15.5463 88.1197 16.305C88.1197 16.4911 88.1125 16.6843 88.0981 16.8847C88.0837 17.0851 88.055 17.2712 88.0118 17.443H78.709V15.5105H86.6304L85.4648 16.3909C85.6087 15.6894 85.5584 15.0667 85.3138 14.5228C85.0835 13.9645 84.7238 13.5279 84.2345 13.2129C83.7597 12.8837 83.1985 12.7191 82.551 12.7191C81.9034 12.7191 81.3279 12.8837 80.8242 13.2129C80.3206 13.5279 79.9321 13.9859 79.6587 14.5872C79.3853 15.1741 79.2773 15.8898 79.3349 16.7344C79.263 17.5217 79.3709 18.2088 79.6587 18.7958C79.9609 19.3827 80.3782 19.8407 80.9106 20.17C81.4574 20.4992 82.0761 20.6639 82.7668 20.6639C83.4719 20.6639 84.0691 20.5064 84.5583 20.1915C85.0619 19.8765 85.4577 19.4686 85.7454 18.9675L87.7312 19.9338C87.501 20.4778 87.1412 20.9716 86.652 21.4154C86.1771 21.8448 85.6015 22.1884 84.9252 22.4461C84.2633 22.6894 83.5367 22.8111 82.7452 22.8111Z" fill="#344054"/>
<path d="M90.09 22.5534V10.9369H92.4211V13.2774L92.2052 12.9338C92.4642 12.1751 92.8815 11.6311 93.4571 11.3019C94.0327 10.9583 94.7234 10.7866 95.5292 10.7866H96.2415V12.9982H95.227C94.4212 12.9982 93.7665 13.2487 93.2629 13.7497C92.7736 14.2365 92.529 14.9379 92.529 15.854V22.5534H90.09Z" fill="#344054"/>
<path d="M97.4999 22.5534V6.29883H99.939V22.5534H97.4999Z" fill="#344054"/>
<path d="M103.417 27.2988C103.129 27.2988 102.841 27.2702 102.553 27.2129C102.28 27.17 102.028 27.0984 101.798 26.9982V24.9154C101.97 24.9583 102.179 24.9941 102.424 25.0228C102.668 25.0657 102.906 25.0872 103.136 25.0872C103.812 25.0872 104.309 24.9369 104.625 24.6363C104.956 24.35 105.251 23.899 105.51 23.2835L106.287 21.5228L106.244 23.5626L101.193 10.9369H103.805L107.539 20.6209H106.654L110.367 10.9369H113L107.841 23.8203C107.568 24.5074 107.223 25.1086 106.805 25.624C106.402 26.1536 105.92 26.5616 105.359 26.8479C104.812 27.1485 104.165 27.2988 103.417 27.2988Z" fill="#344054"/>
</svg>
