<svg width="15" height="21" viewBox="0 0 15 21" fill="none" xmlns="http://www.w3.org/2000/svg">
<g clip-path="url(#clip0_881_31818)">
<path d="M3.87261 18.9154C2.09592 17.2356 0.868683 14.6583 1.01125 12.3755C1.13005 10.469 1.73832 9.13708 3.61838 7.86584C5.84831 6.36025 8.93302 6.51158 10.7994 7.39479C12.9842 8.42344 13.861 9.83305 13.6988 11.215C13.5147 12.7871 10.9699 12.2695 9.75633 14.8014C8.76016 16.8799 10.7893 19.9476 9.4706 20.6465C8.15189 21.3454 6.08056 20.8873 3.87261 18.9154Z" fill="#FF5E00"/>
<path d="M5.55212 19.3743C3.70652 17.877 2.29752 15.4323 2.21555 13.1465C2.14724 11.2376 2.5975 9.84919 4.26074 8.40367C6.23286 6.6873 9.17442 6.53833 11.0283 7.23018C13.1989 8.03979 14.1641 9.35636 14.1422 10.7477C14.1166 12.3293 11.6532 12.0637 10.7402 14.7021C9.99238 16.8678 12.2092 19.7217 11.0248 20.5467C9.84031 21.3716 7.83432 21.1202 5.55212 19.3743Z" fill="white"/>
<path d="M8.47195 6.02351C10.15 6.02351 11.5103 4.6751 11.5103 3.01175C11.5103 1.34841 10.15 0 8.47195 0C6.79391 0 5.43359 1.34841 5.43359 3.01175C5.43359 4.6751 6.79391 6.02351 8.47195 6.02351Z" fill="white"/>
</g>
<defs>
<clipPath id="clip0_881_31818">
<rect width="15" height="21" fill="white"/>
</clipPath>
</defs>
</svg>
