<svg width="180" height="104" viewBox="0 0 180 104" fill="none" xmlns="http://www.w3.org/2000/svg">
    <path fill-rule="evenodd" clip-rule="evenodd"
          d="M139.056 104C116.441 104 98.1064 86.3681 98.1064 64.6137C98.1064 33.7394 120.156 16.1259 144.174 0.534478C146.904 -1.23424 150.294 1.72284 148.723 4.50949C144.955 11.2113 142.364 18.1065 141.727 25.3104C163.097 26.6369 180 43.7253 180 64.6137C180 86.3681 161.666 104 139.056 104Z"
          fill="#FF7426"/>
    <path fill-rule="evenodd" clip-rule="evenodd"
          d="M40.9445 104C18.3344 104 0.00012275 86.3681 0.00012275 64.6137C0.00012275 33.7394 22.0453 16.1259 46.0632 0.534478C48.7925 -1.23424 52.1826 1.72284 50.6168 4.50949C46.8484 11.2113 44.2532 18.1065 43.6211 25.3104C64.9863 26.6369 81.8937 43.7253 81.8937 64.6137C81.8937 86.3681 63.5594 104 40.9445 104Z"
          fill="#FF7426"/>
    <defs>
        <linearGradient id="paint0_linear_3176:2870" x1="98.1064" y1="104" x2="182.975" y2="101.513"
                        gradientUnits="userSpaceOnUse">
            <stop stop-color="#FF7426"/>
            <stop offset="1" stop-color="#FF7426"/>
        </linearGradient>
        <linearGradient id="paint1_linear_3176:2870" x1="0.00012268" y1="104" x2="84.8689" y2="101.513"
                        gradientUnits="userSpaceOnUse">
            <stop stop-color="#FF7426"/>
            <stop offset="1" stop-color="#FF7426"/>
        </linearGradient>
    </defs>
</svg>
