<svg width="20" height="20" fill="none" xmlns="http://www.w3.org/2000/svg"><path fill-rule="evenodd" clip-rule="evenodd" d="M4.544 13.192c-.976.488-1.294 1.023-1.294 1.391 0 .369.318.904 1.294 1.392.931.465 2.27.775 3.79.775 1.519 0 2.858-.31 3.789-.775.976-.488 1.294-1.023 1.294-1.392 0-.368-.318-.903-1.294-1.391-.931-.466-2.27-.775-3.79-.775s-2.858.31-3.79.775Zm-.67-1.342c1.18-.59 2.757-.933 4.46-.933 1.701 0 3.28.343 4.46.933 1.135.568 2.123 1.49 2.123 2.733s-.988 2.166-2.123 2.734c-1.18.59-2.759.933-4.46.933-1.703 0-3.28-.343-4.46-.933-1.136-.568-2.124-1.491-2.124-2.734 0-1.242.988-2.165 2.123-2.733Zm4.459-8.6a2.583 2.583 0 1 0 0 5.167 2.583 2.583 0 0 0 0-5.167ZM4.25 5.833a4.083 4.083 0 1 1 8.167 0 4.083 4.083 0 0 1-8.167 0Z" fill="#FF5F21"/><path fill-rule="evenodd" clip-rule="evenodd" d="M12.617 8.413c-.307.51-.704.96-1.167 1.33a3.25 3.25 0 1 0 1.265-6.32c.282.511.477 1.077.565 1.677a1.75 1.75 0 0 1-.662 3.313Zm2.707 7.834c.329-.516.51-1.077.51-1.664l-.002-.088c.352-.156.598-.32.749-.468.16-.158.169-.25.169-.277 0-.026-.01-.12-.17-.277-.161-.16-.435-.338-.833-.504a5.57 5.57 0 0 0-.512-.183c-.519-.743-1.35-1.385-2.391-1.865 1.323.036 2.544.274 3.48.664.507.21.966.481 1.31.82.346.341.616.796.616 1.345 0 .549-.27 1.004-.617 1.345-.343.339-.802.61-1.309.82a7.5 7.5 0 0 1-1 .332Z" fill="#FF5F21"/></svg>