<svg width="24" height="24" viewBox="0 0 24 24" fill="none" xmlns="http://www.w3.org/2000/svg">
<circle cx="12" cy="12" r="12" fill="url(#paint0_linear_881_31834)"/>
<path d="M17.0429 8.23787C16.9682 8.1625 16.8792 8.10267 16.7812 8.06185C16.6832 8.02102 16.5781 8 16.472 8C16.3658 8 16.2607 8.02102 16.1627 8.06185C16.0647 8.10267 15.9758 8.1625 15.901 8.23787L9.90986 14.2371L7.39278 11.7119C7.31516 11.637 7.22353 11.578 7.12312 11.5384C7.02271 11.4989 6.9155 11.4795 6.80759 11.4813C6.69969 11.4832 6.59321 11.5063 6.49423 11.5493C6.39525 11.5923 6.30572 11.6544 6.23074 11.732C6.15576 11.8097 6.0968 11.9013 6.05723 12.0017C6.01766 12.1021 5.99826 12.2093 6.00012 12.3172C6.00199 12.4251 6.02509 12.5316 6.06811 12.6306C6.11113 12.7296 6.17322 12.8191 6.25084 12.8941L9.33889 15.9821C9.41365 16.0575 9.50259 16.1173 9.60059 16.1582C9.69859 16.199 9.8037 16.22 9.90986 16.22C10.016 16.22 10.1211 16.199 10.2191 16.1582C10.3171 16.1173 10.4061 16.0575 10.4808 15.9821L17.0429 9.42002C17.1246 9.34471 17.1897 9.25332 17.2343 9.15159C17.2788 9.04986 17.3018 8.94001 17.3018 8.82895C17.3018 8.71789 17.2788 8.60803 17.2343 8.50631C17.1897 8.40458 17.1246 8.31318 17.0429 8.23787Z" fill="white"/>
<defs>
<linearGradient id="paint0_linear_881_31834" x1="24" y1="-4.80418e-06" x2="-0.858852" y2="0.925253" gradientUnits="userSpaceOnUse">
<stop stop-color="#F5803D"/>
<stop offset="1" stop-color="#FF5E00"/>
</linearGradient>
</defs>
</svg>
