<svg width="20" height="20" fill="none" xmlns="http://www.w3.org/2000/svg"><path fill-rule="evenodd" clip-rule="evenodd" d="M6.667.917a.75.75 0 0 1 .75.75v2.5a.75.75 0 0 1-1.5 0v-2.5a.75.75 0 0 1 .75-.75Zm6.666 0a.75.75 0 0 1 .75.75v2.5a.75.75 0 0 1-1.5 0v-2.5a.75.75 0 0 1 .75-.75Z" fill="#FF5F21"/><path fill-rule="evenodd" clip-rule="evenodd" d="M1.75 6.917a4.75 4.75 0 0 1 4.75-4.75h7a4.75 4.75 0 0 1 4.75 4.75v7.416a4.75 4.75 0 0 1-4.75 4.75h-7a4.75 4.75 0 0 1-4.75-4.75V6.917Zm4.75-3.25a3.25 3.25 0 0 0-3.25 3.25v7.416a3.25 3.25 0 0 0 3.25 3.25h7a3.25 3.25 0 0 0 3.25-3.25V6.917a3.25 3.25 0 0 0-3.25-3.25h-7Z" fill="#FF5F21"/><path fill-rule="evenodd" clip-rule="evenodd" d="M12.994 10.269a.75.75 0 0 1 .07 1.058l-2.286 2.613a1.75 1.75 0 0 1-2.41.215l-1.336-1.07a.75.75 0 1 1 .937-1.17l1.336 1.068a.25.25 0 0 0 .344-.03l2.287-2.614a.75.75 0 0 1 1.058-.07ZM1.75 7.5a.75.75 0 0 1 .75-.75h15a.75.75 0 0 1 0 1.5h-15a.75.75 0 0 1-.75-.75Z" fill="#FF5F21"/></svg>