<svg width="154" height="20" viewBox="0 0 154 20" fill="none" xmlns="http://www.w3.org/2000/svg">
<path d="M9.7513 2.07431V17.9257C9.75065 18.4756 9.52747 19.0029 9.13067 19.3917C8.7339 19.7806 8.19594 19.9994 7.63479 20C7.34422 19.9994 7.05692 19.9403 6.79067 19.8262C6.52447 19.7121 6.28505 19.5456 6.08728 19.3369C5.88955 19.1283 5.73771 18.882 5.64123 18.6134C5.54475 18.3449 5.50568 18.0597 5.52643 17.7756L5.78929 14.2377L4.15173 15.4092C3.90129 15.5886 3.61481 15.7138 3.31128 15.7765C3.00774 15.8391 2.69408 15.8379 2.39108 15.7728C2.08808 15.7077 1.80265 15.5803 1.5537 15.3989C1.30475 15.2175 1.09797 14.9863 0.947062 14.7208L0.776757 14.4198C0.625913 14.1544 0.534284 13.8606 0.507929 13.5579C0.481574 13.2551 0.521094 12.9504 0.623876 12.6637C0.726658 12.3771 0.89036 12.1151 1.10416 11.8951C1.31795 11.6751 1.57697 11.502 1.86409 11.3874L5.34142 10L1.86409 8.6126C1.57697 8.498 1.31795 8.32494 1.10416 8.10494C0.89036 7.88489 0.726658 7.62289 0.623876 7.33626C0.521094 7.04962 0.481574 6.74485 0.507929 6.44213C0.534284 6.1394 0.625913 5.84562 0.776757 5.58017L0.947883 5.27923C1.0988 5.01366 1.30557 4.78251 1.55452 4.60111C1.80346 4.41974 2.08889 4.2923 2.3919 4.2272C2.6949 4.1621 3.00856 4.16085 3.31209 4.22352C3.61563 4.28621 3.90211 4.41136 4.15255 4.59077L5.79007 5.7623L5.52643 2.22436C5.50563 1.94006 5.5448 1.65462 5.64149 1.3858C5.73819 1.11698 5.89033 0.870562 6.08841 0.661885C6.28653 0.453204 6.52633 0.286744 6.79293 0.172871C7.05957 0.0589975 7.34722 0.000151681 7.63804 0C8.19863 0.00148562 8.73577 0.220607 9.13184 0.609383C9.52791 0.998162 9.75065 1.52491 9.7513 2.07431Z" fill="#7A7A7A"/>
<path d="M19.417 11.3874L15.9397 10L19.417 8.6126C19.7042 8.49809 19.9633 8.32511 20.1772 8.10511C20.3911 7.88511 20.5548 7.62306 20.6576 7.33638C20.7604 7.0497 20.7999 6.74489 20.7735 6.44213C20.7471 6.13936 20.6553 5.84557 20.5044 5.58017L20.3332 5.27923C20.1823 5.01366 19.9755 4.78251 19.7266 4.60111C19.4776 4.41974 19.1922 4.2923 18.8892 4.2272C18.5862 4.1621 18.2725 4.16085 17.969 4.22352C17.6655 4.28621 17.379 4.41136 17.1286 4.59077L15.491 5.7623L15.753 2.22436C15.7741 1.94021 15.7351 1.65487 15.6387 1.38611C15.5422 1.11735 15.3904 0.870945 15.1925 0.662251C14.9946 0.453557 14.755 0.287053 14.4885 0.173114C14.2221 0.0591745 13.9346 0.000245464 13.6439 0C13.0827 0.000637123 12.5447 0.219384 12.148 0.608255C11.7512 0.997123 11.528 1.52436 11.5273 2.07431V17.9257C11.528 18.4756 11.7512 19.0029 12.148 19.3917C12.5447 19.7806 13.0827 19.9994 13.6439 20C13.9347 20 14.2224 19.9412 14.489 19.8274C14.7557 19.7135 14.9955 19.5471 15.1935 19.3383C15.3916 19.1296 15.5436 18.8832 15.6402 18.6143C15.7367 18.3454 15.7757 18.0599 15.7546 17.7756L15.4927 14.2377L17.1302 15.4092C17.3807 15.5886 17.6671 15.7138 17.9706 15.7765C18.2742 15.8391 18.5878 15.8379 18.8909 15.7728C19.1938 15.7077 19.4793 15.5803 19.7282 15.3989C19.9772 15.2175 20.1839 14.9863 20.3349 14.7208L20.506 14.4198C20.6569 14.1543 20.7486 13.8604 20.7749 13.5576C20.8012 13.2547 20.7616 12.9499 20.6586 12.6632C20.5556 12.3765 20.3917 12.1145 20.1777 11.8946C19.9636 11.6746 19.7044 11.5017 19.417 11.3874Z" fill="#7A7A7A"/>
<path d="M65.4393 13.8775V6.12272H66.7827C69.3006 6.12272 71.3638 7.0688 71.3638 10.0001C71.3638 12.9499 69.3171 13.8775 66.7827 13.8775H65.4393ZM67.3914 16.5303C71.2722 16.5303 74.6785 14.2675 74.6785 9.94472C74.6785 5.65889 71.3269 3.46904 67.3141 3.46904H62.7126C62.6526 3.46679 62.5923 3.47676 62.5363 3.49835C62.4798 3.51993 62.429 3.55266 62.3865 3.59447C62.3435 3.63628 62.3101 3.68628 62.2883 3.74133C62.2662 3.79639 62.2562 3.8553 62.2584 3.91439V16.0858C62.2562 16.1448 62.2662 16.2037 62.2883 16.2588C62.3101 16.3137 62.3435 16.3637 62.3865 16.4054C62.429 16.4472 62.4803 16.4799 62.5363 16.5014C62.5923 16.5228 62.6526 16.5327 62.7126 16.5303H67.3914ZM59.3853 16.5303C59.4457 16.5327 59.5056 16.5228 59.5616 16.5013C59.6181 16.4798 59.6689 16.4472 59.7119 16.4054C59.7544 16.3637 59.7878 16.3137 59.81 16.2587C59.8317 16.2037 59.8421 16.1448 59.8395 16.0858V3.91436C59.8421 3.85527 59.8317 3.79636 59.81 3.7413C59.7878 3.68625 59.7544 3.63625 59.7119 3.59444C59.6689 3.55262 59.6181 3.5199 59.5621 3.49832C59.5056 3.47673 59.4457 3.46676 59.3853 3.46901H57.2278C57.1675 3.46676 57.1076 3.47673 57.0511 3.49832C56.9951 3.5199 56.9439 3.55262 56.9013 3.59444C56.8588 3.63625 56.8253 3.68625 56.8032 3.7413C56.7815 3.79636 56.7711 3.85527 56.7732 3.91436V11.6884L51.2616 3.67363C51.2199 3.61177 51.1639 3.56077 51.0979 3.5251C51.0319 3.48943 50.9577 3.47017 50.8825 3.46901H48.4441C48.3833 3.4663 48.323 3.47594 48.2665 3.49732C48.2101 3.5187 48.1584 3.55135 48.1154 3.59322C48.0724 3.63508 48.0386 3.68523 48.0164 3.74051C47.9943 3.79579 47.9839 3.85499 47.9865 3.91436V16.0858C47.9839 16.1448 47.9943 16.2037 48.0164 16.2587C48.0381 16.3137 48.0716 16.3637 48.1146 16.4054C48.1571 16.4472 48.2079 16.4798 48.2644 16.5013C48.3204 16.5228 48.3807 16.5327 48.4406 16.5303H50.5981C50.6585 16.5327 50.7184 16.5228 50.7749 16.5013C50.8309 16.4798 50.8821 16.4472 50.9247 16.4054C50.9672 16.3637 51.0006 16.3137 51.0228 16.2587C51.0449 16.2037 51.0549 16.1448 51.0527 16.0858V8.29327L56.6 16.3449C56.6434 16.403 56.7003 16.4501 56.7663 16.4823C56.8318 16.5145 56.9048 16.531 56.9782 16.5303H59.3853ZM45.1165 3.46896H42.8453C42.5943 3.46896 42.3909 3.66836 42.3909 3.91432V16.0849C42.3909 16.3309 42.5943 16.5302 42.8453 16.5302H45.1165C45.3674 16.5302 45.5711 16.3309 45.5711 16.0849V3.91432C45.5711 3.66836 45.3674 3.46896 45.1165 3.46896ZM39.5178 16.5303C39.578 16.5327 39.6381 16.5228 39.6943 16.5014C39.7505 16.4799 39.8015 16.4472 39.8442 16.4054C39.8869 16.3637 39.9203 16.3137 39.9423 16.2588C39.9643 16.2037 39.9745 16.1448 39.9722 16.0858V3.91439C39.9745 3.8553 39.9643 3.79639 39.9423 3.74133C39.9203 3.68628 39.8869 3.63628 39.8442 3.59447C39.8016 3.55266 39.7505 3.51993 39.6944 3.49835C39.6382 3.47676 39.5781 3.46679 39.5178 3.46904H37.1131C37.0373 3.46812 36.9626 3.48649 36.8963 3.52236C36.83 3.55823 36.7744 3.61037 36.7348 3.67366L33.043 9.33246L29.3519 3.67366C29.3122 3.61031 29.2564 3.55813 29.19 3.52227C29.1235 3.48639 29.0487 3.46805 28.9728 3.46904H26.4936C26.4336 3.46735 26.374 3.47775 26.3183 3.49958C26.2626 3.52142 26.2121 3.55423 26.1699 3.59598C26.1277 3.63773 26.0946 3.68754 26.0729 3.74231C26.0511 3.79708 26.041 3.85565 26.0433 3.91439V16.0858C26.041 16.1445 26.0511 16.2031 26.0729 16.2578C26.0947 16.3125 26.1277 16.3622 26.1699 16.4039C26.2121 16.4457 26.2626 16.4784 26.3184 16.5001C26.374 16.5219 26.4337 16.5322 26.4936 16.5303H28.6511C28.7113 16.5327 28.7714 16.5228 28.8276 16.5014C28.8837 16.4799 28.9348 16.4472 28.9775 16.4054C29.0201 16.3637 29.0535 16.3137 29.0756 16.2588C29.0976 16.2037 29.1078 16.1448 29.1055 16.0858V8.29331L32.4379 13.4137C32.4773 13.4771 32.533 13.5293 32.5993 13.5652C32.6656 13.6011 32.7404 13.6194 32.8161 13.6183H33.1756C33.2506 13.6153 33.324 13.5953 33.3897 13.5597C33.4555 13.5242 33.512 13.4742 33.5547 13.4137L36.9051 8.23714V16.0858C36.9028 16.1448 36.913 16.2037 36.935 16.2588C36.957 16.3137 36.9904 16.3637 37.0331 16.4054C37.0758 16.4472 37.1268 16.4799 37.183 16.5014C37.2392 16.5228 37.2993 16.5327 37.3595 16.5303H39.5178ZM153.289 15.4734C153.354 15.4345 153.407 15.3799 153.444 15.3147C153.481 15.2496 153.499 15.1763 153.498 15.1019V10.2785C153.501 10.2194 153.49 10.1605 153.468 10.1054C153.446 10.0503 153.413 10.0003 153.37 9.95855C153.327 9.91672 153.276 9.88399 153.22 9.86242C153.164 9.84084 153.104 9.83084 153.044 9.8331H150.79C150.73 9.83084 150.67 9.84084 150.614 9.86242C150.558 9.88399 150.507 9.91672 150.464 9.95855C150.421 10.0003 150.388 10.0503 150.366 10.1054C150.344 10.1605 150.334 10.2194 150.336 10.2785V13.6736C149.729 13.9623 149.061 14.1085 148.387 14.1005C145.925 14.1005 144.392 12.356 144.392 10.0185C144.392 7.6625 145.964 5.89957 148.273 5.89957C149.314 5.89957 150.374 6.25182 151.037 6.79025C151.264 6.97561 151.377 7.01255 151.491 7.01255C151.557 7.01229 151.623 6.9971 151.682 6.96816C151.741 6.93919 151.792 6.89727 151.832 6.84561L153.025 5.23191C153.095 5.1477 153.134 5.04344 153.138 4.93502C153.134 4.87799 153.12 4.82225 153.094 4.77119C153.068 4.72012 153.031 4.6748 152.986 4.63812C151.624 3.52513 149.977 3.17206 148.197 3.17206C144.127 3.17206 141.079 6.0111 141.079 10.0369C141.079 14.1189 144.221 16.8272 148.291 16.8272C149.882 16.8272 151.756 16.4195 153.289 15.4734ZM138.944 16.5303C139.005 16.5327 139.065 16.5228 139.121 16.5014C139.177 16.4799 139.228 16.4472 139.271 16.4054C139.314 16.3637 139.347 16.3137 139.369 16.2588C139.391 16.2037 139.401 16.1448 139.399 16.0858V3.9144C139.401 3.85531 139.391 3.79639 139.369 3.74134C139.347 3.68628 139.314 3.63628 139.271 3.59447C139.228 3.55266 139.177 3.51993 139.121 3.49835C139.065 3.47677 139.005 3.46679 138.944 3.46905H136.786C136.726 3.46678 136.666 3.47676 136.61 3.49835C136.554 3.51994 136.503 3.55268 136.46 3.59451C136.417 3.63633 136.384 3.68634 136.362 3.74139C136.34 3.79645 136.33 3.85535 136.333 3.9144V11.6884L130.823 3.67367C130.782 3.61177 130.726 3.56073 130.66 3.52505C130.594 3.48936 130.52 3.47013 130.445 3.46905H128.003C127.942 3.46679 127.882 3.47677 127.826 3.49835C127.769 3.51993 127.719 3.55266 127.676 3.59447C127.633 3.63628 127.6 3.68628 127.578 3.74134C127.556 3.79639 127.546 3.85531 127.548 3.9144V16.0858C127.546 16.1448 127.556 16.2037 127.578 16.2588C127.6 16.3137 127.633 16.3637 127.676 16.4054C127.719 16.4472 127.77 16.4799 127.826 16.5014C127.882 16.5228 127.942 16.5327 128.003 16.5303H130.16C130.221 16.5327 130.281 16.5228 130.337 16.5014C130.393 16.4799 130.444 16.4472 130.487 16.4054C130.53 16.3637 130.563 16.3137 130.585 16.2588C130.607 16.2037 130.617 16.1448 130.615 16.0858V8.29331L136.161 16.345C136.205 16.403 136.262 16.45 136.328 16.4822C136.394 16.5145 136.467 16.531 136.541 16.5303H138.944ZM114.817 10C114.817 7.69944 116.331 5.89957 118.736 5.89957C121.139 5.89957 122.658 7.70344 122.658 10C122.658 12.2966 121.144 14.1005 118.739 14.1005C116.334 14.1005 114.817 12.3006 114.817 10ZM111.504 10C111.504 14.0628 114.684 16.8272 118.736 16.8272C122.787 16.8272 125.968 14.0628 125.968 10C125.968 5.93727 122.787 3.17206 118.736 3.17206C114.684 3.17206 111.504 5.93808 111.504 10ZM106.989 7.77331C106.989 9.25782 105.702 9.55472 104.509 9.55472H102.107V6.02961H104.663C105.834 6.02961 106.989 6.38187 106.989 7.77331ZM107.609 16.5303H110.075C110.416 16.5303 110.586 16.4196 110.586 16.215C110.581 16.0723 110.528 15.9354 110.435 15.8258L107.387 11.5552C109.148 11.0176 110.132 9.4777 110.132 7.60319C110.132 4.7088 107.747 3.46581 104.945 3.46581H99.4353C99.3754 3.46356 99.315 3.47353 99.259 3.49512C99.2025 3.5167 99.1517 3.54942 99.1092 3.59124C99.0662 3.63305 99.0328 3.68305 99.0111 3.7381C98.9889 3.79316 98.9789 3.85207 98.9811 3.91116V16.0858C98.9789 16.1448 98.9889 16.2037 99.0111 16.2587C99.0328 16.3137 99.0662 16.3637 99.1092 16.4054C99.1517 16.4472 99.2025 16.4798 99.259 16.5013C99.315 16.5228 99.3754 16.5327 99.4353 16.5303H101.65C101.71 16.5327 101.77 16.5228 101.827 16.5013C101.883 16.4798 101.934 16.4472 101.977 16.4054C102.019 16.3637 102.053 16.3137 102.075 16.2587C102.097 16.2037 102.107 16.1448 102.105 16.0858V12.0038H104.301L107.249 16.3265C107.289 16.385 107.343 16.4337 107.405 16.4691C107.467 16.5044 107.537 16.5253 107.609 16.5303ZM92.9997 16.5302C93.06 16.5325 93.1199 16.5225 93.1759 16.501C93.2324 16.4794 93.2832 16.4468 93.3258 16.405C93.3683 16.3633 93.4017 16.3134 93.4234 16.2584C93.4456 16.2035 93.4556 16.1447 93.4534 16.0857V6.12259H96.8996C96.9599 6.12485 97.0199 6.11489 97.0763 6.09327C97.1323 6.0717 97.1831 6.03893 97.2257 5.9971C97.2687 5.95531 97.3017 5.90527 97.3238 5.85025C97.3455 5.79519 97.3555 5.73629 97.3533 5.67723V3.91187C97.3555 3.85282 97.3455 3.79391 97.3238 3.73886C97.3017 3.68381 97.2687 3.6338 97.2257 3.59198C97.1831 3.55015 97.1323 3.51741 97.0763 3.49582C97.0199 3.47423 96.9599 3.46425 96.8996 3.46651H86.8289C86.7686 3.46426 86.7082 3.47424 86.6522 3.49582C86.5962 3.5174 86.545 3.55013 86.5024 3.59194C86.4599 3.63375 86.4264 3.68375 86.4043 3.73881C86.3821 3.79386 86.3722 3.85278 86.3743 3.91187V5.67723C86.3722 5.73633 86.3821 5.79523 86.4043 5.85029C86.4264 5.90536 86.4599 5.95536 86.5024 5.99714C86.545 6.03897 86.5962 6.0717 86.6522 6.09327C86.7082 6.11485 86.7686 6.12485 86.8289 6.12259H90.2742V16.0857C90.2721 16.1445 90.2821 16.2032 90.3038 16.258C90.3259 16.3129 90.3589 16.3627 90.4015 16.4044C90.4436 16.4461 90.4944 16.4788 90.5504 16.5005C90.6064 16.5221 90.6663 16.5322 90.7262 16.5302H92.9997ZM80.4294 16.8272C83.5916 16.8272 85.6549 15.1421 85.6549 12.5976C85.6549 9.90697 83.3623 9.20242 81.3003 8.6271C79.5215 8.12638 78.9909 7.75484 78.9909 7.06876C78.9909 6.2334 79.7859 5.73267 80.8648 5.73267C81.7736 5.73267 82.6663 6.08497 83.3072 6.53033C83.5152 6.67876 83.6103 6.7157 83.7231 6.7157C83.7957 6.71221 83.866 6.69191 83.9285 6.65646C83.991 6.62102 84.0444 6.57144 84.0835 6.51187L85.1625 5.00889C85.2185 4.92723 85.2506 4.8325 85.2567 4.73446C85.2567 4.66753 85.2393 4.6017 85.2063 4.54314C85.1733 4.48459 85.1256 4.43527 85.0678 4.39982C83.8582 3.59011 82.4245 3.16278 80.9599 3.17531C78.0252 3.17531 75.8673 4.78982 75.8673 7.12731C75.8673 9.89174 77.8364 10.5778 80.1836 11.2647C81.9851 11.7839 82.5313 12.1923 82.5313 12.9346C82.5313 13.7876 81.8114 14.2706 80.6569 14.2706C79.5588 14.2706 78.3283 13.8253 77.552 13.25C77.4382 13.1568 77.2493 13.0277 77.1165 13.0277C77.0027 13.0277 76.8707 13.1015 76.757 13.25L75.678 14.7746C75.6189 14.8492 75.5859 14.9402 75.5829 15.0345C75.5894 15.1551 75.6437 15.2683 75.7344 15.3499C76.9276 16.308 78.6904 16.8272 80.4294 16.8272Z" fill="#7A7A7A"/>
</svg>
