<svg xmlns="http://www.w3.org/2000/svg" width="24" height="24" viewBox="0 0 24 24" fill="none">
    <path d="M9.40894 4.04461C10.7202 4.30724 11.8649 5.07323 12.6558 6.14562C13.405 7.15236 13.8629 8.4436 13.8629 9.82239C13.8629 10.7197 13.3842 12.0985 12.5101 13.7837C12.7806 14.2652 13.072 14.7904 13.405 15.3594C14.5081 13.346 15.3406 11.3106 15.3406 9.82239C15.3406 8.13721 14.8411 6.58333 13.9878 5.33586C13.1761 4.15404 12.073 3.21296 10.7618 2.7096C10.0541 2.4032 9.26325 2.25 8.43073 2.25C4.60114 2.25 1.5 5.64226 1.5 9.82239C1.5 12.8645 4.97577 18.1389 7.03626 21.0059C7.36926 21.4874 7.88959 21.75 8.43073 21.75C8.97186 21.75 9.49219 21.4874 9.8252 21.0059C10.2623 20.415 10.741 19.7146 11.2613 18.9487C10.9491 18.4672 10.6577 17.9857 10.3663 17.5042C9.84601 18.2921 9.28406 19.1019 8.68048 19.9554C8.57642 20.1086 8.32666 20.1086 8.20178 19.9554C4.93414 15.4251 2.99854 11.6389 2.99854 9.82239C2.99854 6.58333 5.43366 3.93519 8.43073 3.93519C8.76373 3.93519 9.07593 3.97896 9.40894 4.04461Z" fill="#C77C3B"/>
    <path d="M12.6213 18.9487C13.1279 19.7146 13.6345 20.415 14.0778 21.0059C14.4155 21.4874 14.9432 21.75 15.492 21.75C16.0408 21.75 16.5686 21.4874 16.9063 21.0059C18.9749 18.1389 22.5 12.8426 22.5 9.82239C22.5 5.64226 19.3549 2.25 15.4709 2.25C14.6266 2.25 13.8245 2.4032 13.0857 2.7096C13.5923 3.10354 14.0778 3.54125 14.4788 4.04461C14.7955 3.97896 15.1332 3.93519 15.4709 3.93519C18.5105 3.93519 20.9802 6.56145 20.9802 9.82239C20.9802 11.6389 19.0171 15.4251 15.7031 19.9554C15.5976 20.1086 15.3443 20.1086 15.2176 19.9554C14.6055 19.1019 14.0356 18.2921 13.5078 17.5042C12.6213 16.1473 11.8614 14.8998 11.2915 13.7837C10.4049 12.0766 9.94053 10.6978 9.94053 9.82239C9.94053 8.42172 10.4049 7.15236 11.1648 6.14562C10.7638 5.79545 10.2994 5.53283 9.79277 5.33586C8.92733 6.58333 8.42073 8.13721 8.42073 9.82239C8.42073 11.3106 9.26506 13.346 10.3838 15.3594C11.0804 16.6069 11.8614 17.8325 12.6213 18.9487Z" fill="#C77C3B"/>
</svg>