<svg width="140" height="22" viewBox="0 0 140 22" fill="none" xmlns="http://www.w3.org/2000/svg">
<path fill-rule="evenodd" clip-rule="evenodd" d="M135.046 0.161119L135.065 0.322237L135.398 0.339813L135.731 0.357389V1.46764V2.5779H135.934H136.137V1.46764V0.357389L136.471 0.339813L136.804 0.322237L136.822 0.161119L136.841 0H135.934H135.028L135.046 0.161119ZM137.239 1.28895V2.5779H137.442H137.645L137.648 1.71372L137.652 0.849534L137.922 1.39148L138.193 1.93342H138.382H138.571L138.859 1.36218L139.146 0.790945L139.149 1.68442L139.152 2.5779H139.326H139.5V1.28895V0H139.326H139.152L138.791 0.732357L138.43 1.46471H138.385H138.34L137.979 0.732357L137.618 0H137.428H137.239V1.28895ZM79.0299 8.37816V16.5806H79.6387H80.2474L80.2484 12.8748L80.2495 9.16911L80.3344 8.76414L80.4193 8.35912L80.5914 7.98732L80.7636 7.61551L81.0578 7.30113L81.3521 6.98668L81.6893 6.80506L82.0265 6.62344L82.398 6.53497L82.7694 6.4465H83.3202H83.871L84.2345 6.53309L84.5979 6.61969L84.8985 6.7736L85.1991 6.92751L85.4917 7.23088L85.7843 7.53425L85.9432 7.8637L86.1022 8.19314L86.2012 8.53465L86.3001 8.87617L86.321 12.7284L86.3418 16.5806H86.9205H87.4991L87.4796 12.5526L87.4601 8.52463L87.3559 8.1731L87.2519 7.82157L87.1083 7.51439L86.9647 7.20715L86.7088 6.86312L86.4528 6.51903L86.1475 6.28104L85.8422 6.04312L85.4934 5.86823L85.1445 5.69334L84.7687 5.5863L84.3928 5.47926L83.4362 5.48154L82.4796 5.48389L82.0145 5.64038L81.5495 5.79687L81.1922 6.01827L80.8349 6.23968L80.5556 6.49173L80.2764 6.74383L80.2615 3.45977L80.2465 0.175766H79.6382H79.0299V8.37816ZM62.2166 1.84554V3.0466H63.695H65.1734V1.84554V0.644474H63.695H62.2166V1.84554ZM21.8066 5.03399L21.4877 5.08074L21.1108 5.1787L20.734 5.27672L20.2654 5.51049L19.7968 5.74431L19.4151 6.06245L19.0335 6.38053L18.7746 6.74952L18.5157 7.11851L18.3719 7.41145L18.2281 7.70439L18.1093 8.05593L17.9905 8.40746L17.9016 8.84687L17.8126 9.28629L17.7446 10.0479L17.6766 10.8096L17.7154 11.6298L17.7541 12.4501L17.8442 13.036L17.9343 13.6218L18.0983 14.0765L18.2623 14.5312L18.4753 14.8855L18.6883 15.2398L19.05 15.6089L19.4117 15.9781L19.7728 16.2259L20.1339 16.4737L20.4573 16.6182L20.7807 16.7628L21.2792 16.8883L21.7776 17.0139L22.6472 17.0148L23.5169 17.0157L24.0387 16.8787L24.5605 16.7416L24.8705 16.6032L25.1806 16.4648L25.578 16.1977L25.9755 15.9307L26.3116 15.5587L26.6477 15.1867L26.8422 14.86L27.0366 14.5334L27.171 14.1948L27.3054 13.8562L27.3983 13.3973L27.4913 12.9383L27.5548 12.3134L27.6183 11.6884L27.5864 10.6631L27.5545 9.63782L27.4307 8.99926L27.3069 8.36076L27.1405 7.90014L26.9742 7.43952L26.7662 7.09361L26.5583 6.74764L26.291 6.4472L26.0236 6.1467L25.6627 5.88645L25.3018 5.6262L24.9311 5.4509L24.5605 5.27567L24.0967 5.15363L23.6328 5.03164L22.8791 5.00944L22.1254 4.98723L21.8066 5.03399ZM29.9234 11.0146V17.0493H31.3728H32.8222L32.8232 13.3435L32.8242 9.63782L32.9061 9.24738L32.988 8.85695L33.0843 8.66882L33.1806 8.48069L33.4379 8.22794L33.6952 7.97519L34.0269 7.84887L34.3586 7.72256L34.8804 7.74535L35.4022 7.76814L35.6846 7.91133L35.967 8.05446L36.2203 8.33914L36.4735 8.62382L36.5901 9.00518L36.7067 9.38653V13.2179V17.0493H38.2122H39.7176L39.7341 13.0799L39.7505 9.11052L39.9017 8.78828L40.0531 8.46605L40.2674 8.24587L40.4817 8.02563L40.7248 7.89434L40.968 7.76298H41.5767H42.1855L42.3774 7.86885L42.5693 7.97466L42.8022 8.18734L43.0352 8.40001L43.1684 8.66741L43.3016 8.93475L43.3668 9.24522L43.432 9.55568V13.3025V17.0493H44.9104H46.3888V12.887V8.72477L46.2974 8.27317L46.2059 7.82157L46.0715 7.48299L45.9371 7.14441L45.7427 6.81215L45.5482 6.47989L45.1423 6.06116L44.7365 5.64243L44.3017 5.42899L43.8668 5.21555L43.49 5.11495L43.1131 5.0143L42.2725 5.01401L41.4318 5.01372L40.9484 5.14507L40.4652 5.27643L40.1078 5.45823L39.7505 5.64008L39.4918 5.81937L39.2332 5.99865L39.0244 6.18935L38.8155 6.38L38.4378 6.01476L38.06 5.64952L37.6587 5.43696L37.2575 5.22434L36.8953 5.12996L36.5331 5.03551L35.9966 5.00042L35.4602 4.96538L35.0336 5.03281L34.6069 5.10025L34.2509 5.22106L33.8948 5.34187L33.5524 5.5515L33.2101 5.76119L33.0161 5.93326L32.8222 6.10534V5.54271V4.98003H31.3728H29.9234V11.0146ZM49.3457 11.0146V17.0493H50.7951H52.2445L52.2463 13.4607L52.2481 9.87217L52.3025 9.44905L52.3569 9.02586L52.5004 8.73965L52.6439 8.45345L52.7873 8.28131L52.9307 8.10913L53.2398 7.93605L53.549 7.76298H54.1578H54.7665L55.0113 7.89516L55.2561 8.02734L55.4583 8.20679L55.6605 8.38619L55.8057 8.68974L55.9509 8.99334L56.0105 9.37417L56.0701 9.75499L56.0705 13.4021L56.071 17.0493H57.5494H59.0278L59.0274 12.9041L59.027 8.75899L58.9675 8.37816L58.9081 7.99734L58.786 7.61651L58.6639 7.23569L58.5332 6.97204L58.4024 6.70839L58.1209 6.34309L57.8393 5.97773L57.5204 5.73383L57.2016 5.48992L56.8412 5.32324L56.4809 5.1565L55.9426 5.06147L55.4043 4.96638L54.8535 5.00059L54.3027 5.03486L53.8734 5.15661L53.4441 5.27842L53.0445 5.51424L52.645 5.75L52.4448 5.9277L52.2445 6.10534V5.54271V4.98003H50.7951H49.3457V11.0146ZM62.2166 11.0146V17.0493H63.695H65.1734V11.0146V4.98003H63.695H62.2166V11.0146ZM6.08852 5.17319L5.76345 5.3117L5.58801 5.4379L5.41263 5.56415L5.22328 5.78205L5.03392 5.99999L4.88724 6.32375L4.74062 6.64746L4.71505 7.09302L4.68954 7.53859L4.78706 7.87746L4.88451 8.21634L5.01751 8.42908L5.15057 8.64181L5.37628 8.86462L5.60198 9.08744L5.9521 9.25717L6.30229 9.42696L6.67838 9.46592L7.05442 9.50482L7.42785 9.40815L7.80123 9.31148L8.08004 9.13073L8.35879 8.94993L8.55997 8.71241L8.76115 8.47489L8.87902 8.22894L8.99683 7.98298L9.06095 7.61516L9.12507 7.2474L9.05602 6.85709L8.98703 6.46677L8.81953 6.17043L8.65204 5.87409L8.40726 5.63159L8.16248 5.38915L7.84076 5.23008L7.51911 5.07101L6.96635 5.05285L6.41366 5.03469L6.08852 5.17319ZM72.2466 5.53638L71.8698 5.61302L71.4815 5.76142L71.0933 5.90983L70.7568 6.12444L70.4203 6.33905L70.0817 6.67019L69.7432 7.00133L69.5114 7.34244L69.2797 7.6836L69.1135 8.0455L68.9473 8.40746L68.8058 8.90546L68.6643 9.40346L68.6004 9.93076L68.5364 10.4581L68.5381 11.0146L68.5397 11.5712L68.5959 12.0107L68.6521 12.4501L68.7713 12.9188L68.8905 13.3875L69.0776 13.8272L69.2647 14.2669L69.4845 14.6014L69.7043 14.936L70.0253 15.2658L70.3464 15.5955L70.7313 15.8452L71.1161 16.095L71.4929 16.2455L71.8698 16.3961L72.3915 16.4954L72.9133 16.5947L73.6381 16.5625L74.3628 16.5302L74.7106 16.436L75.0585 16.3417L75.422 16.1707L75.7855 15.9998L76.1177 15.7391L76.4499 15.4784L76.7093 15.2082L76.9688 14.9381L76.5833 14.5486L76.1979 14.1592L75.8597 14.5056L75.5216 14.8522L75.2 15.0674L74.8783 15.2826L74.5046 15.4123L74.1309 15.542L73.5511 15.5687L72.9713 15.5955L72.5365 15.5029L72.1017 15.4104L71.6906 15.206L71.2795 15.0015L70.9566 14.688L70.6337 14.3744L70.3959 14.0027L70.1582 13.631L70.0199 13.187L69.8817 12.743L69.8106 12.295L69.7396 11.8469L69.7683 10.7131L69.797 9.57923L69.9186 9.12224L70.0402 8.66519L70.2592 8.24341L70.4782 7.82157L70.8551 7.43659L71.232 7.0516L71.5509 6.86951L71.8698 6.68747L72.3046 6.56485L72.7394 6.44228L73.3482 6.44187L73.9569 6.44146L74.3001 6.5328L74.6432 6.62414L74.9878 6.80975L75.3323 6.99536L75.7626 7.40132L76.1928 7.80734L76.5195 7.51908L76.8462 7.23077L76.907 7.13333L76.9679 7.0359L76.8249 6.87853L76.6819 6.72122L76.247 6.36863L75.8122 6.01599L75.4064 5.82335L75.0005 5.63077L74.5536 5.53972L74.1067 5.44874L73.3651 5.45424L72.6235 5.45975L72.2466 5.53638ZM93.901 5.51031L93.5532 5.56439L93.1763 5.67987L92.7995 5.79535L92.4516 6.00638L92.1038 6.21736L91.8238 6.4922L91.5437 6.76698L91.4326 6.92224L91.3214 7.0775L91.7271 7.44092L92.1327 7.80429L92.5531 7.37015L92.9734 6.93595L93.2933 6.77805L93.6132 6.62009L94.018 6.53344L94.4228 6.44679L95.1293 6.44574L95.8357 6.44474L96.2536 6.53356L96.6715 6.62238L96.9222 6.73446L97.1729 6.8466L97.4545 7.11277L97.7361 7.37894L97.8845 7.68811L98.0329 7.99734L98.0977 8.3078L98.1624 8.61826V9.49012V10.3619L95.8288 10.3815L93.4952 10.4012L93.032 10.5658L92.5687 10.7303L92.2493 10.9274L91.9298 11.1244L91.6617 11.4064L91.3936 11.6884L91.2457 11.9521L91.0977 12.2157L91.0065 12.5757L90.9152 12.9357V13.4861V14.0366L91.0044 14.3826L91.0936 14.7285L91.2715 15.0429L91.4495 15.3572L91.7307 15.6413L92.0118 15.9254L92.4199 16.1318L92.8281 16.3381L93.2775 16.4446L93.7271 16.5511L94.8577 16.5504L95.9882 16.5497L96.441 16.4179L96.8938 16.2861L97.1686 16.1453L97.4436 16.0045L97.7885 15.7408L98.1334 15.4771L98.15 16.0309L98.1666 16.5846L98.7588 16.568L99.3509 16.5513V12.4208V8.29028L99.2501 7.92176L99.1492 7.5533L98.9935 7.2187L98.8379 6.88415L98.4566 6.4987L98.0754 6.11319L97.6985 5.92781L97.3217 5.74238L96.8579 5.61765L96.3941 5.49291L95.3215 5.47457L94.2489 5.45623L93.901 5.51031ZM103.612 11.0146V16.5806H104.219H104.825L104.843 12.7577L104.86 8.93475L104.996 8.52463L105.131 8.11451L105.326 7.78818L105.521 7.46184L105.832 7.16479L106.143 6.86781L106.37 6.75063L106.598 6.63345L106.913 6.53907L107.228 6.44474H107.762H108.296L108.665 6.55987L109.034 6.67499L109.396 6.96999L109.758 7.26498H109.803H109.848L110.209 6.89722L110.569 6.52946V6.46489V6.40027L110.323 6.19791L110.077 5.99548L109.811 5.83934L109.545 5.68321L109.091 5.56597L108.638 5.44874L108.024 5.44915L107.41 5.44955L106.923 5.56738L106.437 5.68514L106.025 5.9025L105.612 6.11981L105.221 6.50421L104.83 6.88861V6.16867V5.44874H104.221H103.612V11.0146ZM115.444 5.51242L115.187 5.56328L114.893 5.65907L114.599 5.75492L114.338 5.90309L114.077 6.05126L113.828 6.25421L113.579 6.45716L113.354 6.75854L113.129 7.05992L112.952 7.41995L112.775 7.78003L112.634 8.21863L112.492 8.65728L112.391 9.29402L112.29 9.93076L112.291 11.0146L112.293 12.0985L112.384 12.6844L112.475 13.2703L112.631 13.7683L112.786 14.2663L112.947 14.589L113.108 14.9115L113.378 15.2743L113.648 15.6372L113.93 15.8467L114.213 16.0564L114.582 16.2257L114.952 16.3951L115.396 16.4878L115.84 16.5806H116.387H116.934L117.415 16.4884L117.896 16.3962L118.266 16.2266L118.636 16.057L119.002 15.7628L119.368 15.4687L119.463 15.3215L119.559 15.1744H119.623H119.687L119.657 16.5952L119.626 18.016L119.504 18.4813L119.381 18.9466L119.166 19.3861L118.951 19.8257L118.63 20.1557L118.309 20.4857L118.044 20.6423L117.778 20.7988L117.324 20.9161L116.87 21.0333L116.285 21.0324L115.7 21.0315L115.337 20.9449L114.973 20.8583L114.692 20.714L114.41 20.5697L113.936 20.2092L113.463 19.8487L113.103 20.189L112.744 20.5293L112.719 20.5472L112.695 20.5651L112.83 20.7105L112.965 20.8561L113.376 21.1423L113.787 21.4284L114.14 21.6075L114.492 21.7866L114.864 21.8913L115.237 21.9961L116.251 21.9981L117.266 22L117.643 21.8955L118.019 21.791L118.396 21.6135L118.773 21.436L119.121 21.1664L119.469 20.8968L119.749 20.5696L120.029 20.2423L120.286 19.715L120.543 19.1877L120.672 18.719L120.801 18.2503L120.818 11.8495L120.835 5.44874H120.253H119.672V6.1518V6.85486H119.655H119.639L119.234 6.45487L118.83 6.05483L118.396 5.84187L117.962 5.62883L117.515 5.53878L117.068 5.44874L116.384 5.45518L115.7 5.46157L115.444 5.51242ZM127.834 5.56491L127.386 5.67963L127.051 5.85077L126.715 6.02191L126.365 6.28819L126.014 6.55442L125.747 6.89863L125.479 7.24283L125.248 7.70797L125.017 8.1731L124.895 8.59078L124.773 9.00846L124.687 9.58679L124.601 10.1651L124.6 11.0528L124.6 11.9404L124.715 12.6208L124.83 13.3011L125.021 13.815L125.212 14.3289L125.486 14.745L125.76 15.1612L126.123 15.5047L126.487 15.8482L126.835 16.0351L127.183 16.2219L127.703 16.3775L128.223 16.5331L129.006 16.5635L129.789 16.5939L130.33 16.4985L130.872 16.403L131.292 16.2382L131.712 16.0734L132.2 15.7468L132.688 15.4203L132.943 15.1916L133.199 14.9629L132.763 14.6033L132.328 14.2436L132.073 14.4816L131.818 14.7196L131.408 14.994L130.998 15.2684L130.596 15.404L130.195 15.5396L129.528 15.5677L128.861 15.5959L128.453 15.508L128.045 15.4202L127.646 15.2297L127.247 15.0392L126.894 14.6821L126.542 14.3249L126.328 13.9121L126.113 13.4994L125.995 13.0626L125.877 12.6258L125.819 12.0692L125.761 11.5126L125.76 11.3808L125.759 11.249H129.53H133.3L133.337 11.1507L133.375 11.0524L133.309 10.1693L133.243 9.28629L133.123 8.79455L133.004 8.30276L132.776 7.80968L132.547 7.31666L132.361 7.07111L132.175 6.82557L131.967 6.59836L131.76 6.37115L131.333 6.08606L130.906 5.80097L130.434 5.64612L129.963 5.49127L129.122 5.47076L128.281 5.4502L127.834 5.56491ZM7.4642 5.77015L7.67037 5.85721L7.8941 6.03626L8.11784 6.21531L8.28035 6.54973L8.44286 6.88415L8.43839 7.26498L8.43393 7.64581L8.28435 7.93875L8.13477 8.23169L7.96994 8.38754L7.80511 8.54344L7.5452 8.6789L7.28535 8.81429L6.87846 8.81242L6.47164 8.81049L6.2268 8.68183L5.9819 8.55311L5.78826 8.35748L5.59462 8.1618L5.48237 7.93307L5.37007 7.70439L5.37146 7.23569L5.37286 6.76698L5.47403 6.57733L5.57514 6.38773L5.76206 6.1726L5.94897 5.95746L6.23932 5.82083L6.52961 5.68426L6.89383 5.68368L7.25804 5.68309L7.4642 5.77015ZM117.124 6.4704L117.446 6.50163L117.775 6.61617L118.104 6.73071L118.361 6.9087L118.617 7.08669L118.831 7.38163L119.045 7.67662L119.243 8.23708L119.442 8.7976L119.537 9.33485L119.632 9.87217L119.633 10.9854L119.634 12.0985L119.535 12.6551L119.437 13.2117L119.315 13.5925L119.192 13.9734L119.031 14.298L118.871 14.6227L118.626 14.8698L118.382 15.117L118.027 15.2873L117.672 15.4575L117.328 15.521L116.984 15.5846L116.516 15.5837L116.048 15.5828L115.677 15.4943L115.305 15.4059L114.962 15.221L114.619 15.0362L114.415 14.7977L114.212 14.5593L114.08 14.2956L113.948 14.032L113.825 13.6511L113.703 13.2703L113.609 12.8309L113.515 12.3915L113.484 11.3858L113.453 10.3801L113.522 9.80392L113.591 9.2277L113.705 8.78828L113.819 8.34887L113.944 8.02663L114.069 7.70439L114.196 7.49898L114.321 7.29363L114.559 7.0768L114.797 6.85996L115.017 6.74636L115.237 6.63275L115.498 6.5618L115.758 6.49085L116.135 6.44855L116.512 6.40619L116.657 6.42265L116.802 6.43918L117.124 6.4704ZM129.78 6.53754L130.137 6.63035L130.465 6.8067L130.793 6.98299L131.088 7.25578L131.383 7.52863L131.583 7.87272L131.784 8.21675L131.937 8.68101L132.09 9.14526L132.129 9.73531L132.169 10.3254L132.109 10.3484L132.05 10.3713L128.919 10.3561L125.788 10.3409L125.808 9.93076L125.827 9.52064L125.913 9.08123L125.999 8.64181L126.23 8.15523L126.462 7.6686L126.792 7.33499L127.123 7.00133L127.477 6.8118L127.831 6.6222L128.143 6.53737L128.455 6.45248L128.94 6.44861L129.424 6.44474L129.78 6.53754ZM23.5243 7.89586L23.7636 8.02171L23.9994 8.29239L24.2351 8.56301L24.3514 8.92462L24.4676 9.28629L24.5285 9.63395L24.5895 9.98156L24.589 10.9815L24.5886 11.9814L24.5297 12.3622L24.471 12.743L24.3423 13.1238L24.2136 13.5047L23.9173 13.8074L23.621 14.1102L23.312 14.2029L23.003 14.2956L22.6222 14.2959L22.2414 14.2962L21.9521 14.1934L21.6627 14.0905L21.3944 13.8269L21.126 13.5632L21.0018 13.2223L20.8775 12.8813L20.7848 12.3434L20.6921 11.8056L20.7231 10.7217L20.7541 9.63782L20.8654 9.2277L20.9767 8.81758L21.0998 8.57484L21.2228 8.33217L21.4646 8.12307L21.7063 7.91391L21.9448 7.82514L22.1834 7.73638L22.7342 7.75314L23.285 7.76996L23.5243 7.89586ZM98.1624 12.2663V13.2836L98.1046 13.5914L98.0469 13.8991L97.8922 14.2473L97.7377 14.5953L97.4717 14.8345L97.2057 15.0736L96.8455 15.2457L96.4853 15.4178L96.0338 15.4991L95.5824 15.5805L94.9736 15.5821L94.3649 15.5837L94.0004 15.5239L93.6359 15.4642L93.3173 15.3436L92.9986 15.2232L92.7541 15.0376L92.5096 14.852L92.3258 14.4863L92.1421 14.1207L92.1004 13.7274L92.0587 13.3342L92.1222 12.9891L92.1857 12.6439L92.3024 12.4005L92.4191 12.1571L92.6349 11.9327L92.8508 11.7083L93.1383 11.561L93.4259 11.4138L93.7794 11.3361L94.1329 11.2583L96.1477 11.2536L98.1624 11.249V12.2663ZM2.27526 12.5448L1.9634 12.5978L1.6229 12.7812L1.28246 12.9645L1.04545 13.2243L0.808496 13.4842L0.654219 13.8166L0.5 14.1491V14.735V15.3209L0.668192 15.689L0.836383 16.057L1.17346 16.3724L1.5106 16.6878L1.83776 16.8115L2.16499 16.9352L2.4929 16.9699L2.82088 17.0045L3.18387 16.9105L3.54681 16.8166L3.85171 16.6195L4.15661 16.4224L4.32324 16.2232L4.48992 16.024L4.66913 15.6431L4.84828 15.2623L4.84561 14.735L4.843 14.2077L4.68815 13.868L4.53329 13.5284L4.36348 13.3202L4.19366 13.1119L3.91983 12.9153L3.64607 12.7185L3.37752 12.6329L3.10897 12.5473L2.84807 12.5196L2.58717 12.4918L2.27526 12.5448ZM10.434 12.6196L10.2221 12.6961L9.96539 12.8481L9.70867 13.0002L9.48946 13.2454L9.27019 13.4906L9.11742 13.8199L8.96465 14.1491L8.96482 14.7643L8.96506 15.3795L9.13412 15.7173L9.30324 16.0551L9.60199 16.3406L9.90081 16.6262L10.1299 16.7443L10.3589 16.8624L10.7172 16.9336L11.0754 17.0049L11.3977 16.9641L11.72 16.9235L12.1194 16.7215L12.5188 16.5196L12.7339 16.279L12.9491 16.0384L13.1277 15.6527L13.3063 15.2669L13.3074 14.7959L13.3086 14.3249L13.2069 14.0242L13.1053 13.7235L12.9175 13.4567L12.7297 13.1898L12.4705 12.9809L12.2114 12.7721L11.9048 12.655L11.5983 12.5379L11.1221 12.5405L10.646 12.5431L10.434 12.6196Z" fill="#7A7A7A"/>
</svg>
