<svg width="140" height="18" viewBox="0 0 140 18" fill="none" xmlns="http://www.w3.org/2000/svg">
<g clip-path="url(#clip0_36285_17929)">
<mask id="mask0_36285_17929" style="mask-type:luminance" maskUnits="userSpaceOnUse" x="0" y="0" width="140" height="18">
<path d="M139.5 0H0.5V17.55H139.5V0Z" fill="white"/>
</mask>
<g mask="url(#mask0_36285_17929)">
<path d="M0.501297 14.2892V17.5431L32.6729 3.27462H32.7215V0.0207684L0.549952 14.2892H0.501297ZM47.7961 8.75077C47.2748 10.62 46.8787 12.7592 46.8787 12.7592H46.837C46.837 12.7592 46.42 10.62 45.8987 8.75077L43.8137 1.29462H39.5603V16.1515H42.3403V7.62923C42.3403 6.42461 42.2152 4.55538 42.2152 4.55538H42.2569C42.2569 4.55538 42.5905 6.3 42.9033 7.38L45.4053 16.1515H48.3034L50.8749 7.38C51.1877 6.3 51.5213 4.55538 51.5213 4.55538H51.563C51.563 4.55538 51.4379 6.42461 51.4379 7.62923V16.1515H54.2526V1.29462H49.9367L47.7961 8.75077ZM12.2955 14.2892V17.5431L32.6729 8.50846H32.7215V5.24769L12.3441 14.2892H12.2955ZM20.9274 3.25385V0L0.549952 9.03462H0.501297V12.2954L20.8787 3.25385H20.9274ZM9.11236 0L0.480469 3.82846V7.08231L9.11236 3.25385V0ZM60.8482 5.22001C60.1058 5.2034 59.3678 5.33832 58.6797 5.61646C57.9916 5.89461 57.3679 6.31011 56.8471 6.83736C56.3263 7.36463 55.9192 7.99248 55.6512 8.6823C55.383 9.37212 55.2595 10.1093 55.2882 10.8485C55.2596 11.5879 55.3831 12.3254 55.6511 13.0156C55.9192 13.7058 56.3261 14.3341 56.8468 14.8619C57.3675 15.3897 57.9911 15.8059 58.6792 16.0848C59.3673 16.3637 60.1054 16.4995 60.8482 16.4838C61.5912 16.5005 62.3297 16.3654 63.0183 16.0868C63.7069 15.8082 64.3309 15.3921 64.8518 14.8641C65.3727 14.3361 65.7796 13.7074 66.0473 13.0168C66.315 12.3261 66.4378 11.5882 66.4082 10.8485C66.4378 10.1091 66.315 9.37142 66.0472 8.68112C65.7795 7.99089 65.3725 7.36262 64.8515 6.83513C64.3305 6.30766 63.7064 5.89219 63.0178 5.61439C62.3293 5.3366 61.5908 5.20238 60.8482 5.22001ZM60.8482 14.3169C59.0968 14.3169 58.1377 12.9323 58.1377 10.8554C58.1377 8.77846 59.0968 7.39385 60.8482 7.39385C62.5996 7.39385 63.5587 8.77846 63.5587 10.8554C63.5587 12.9323 62.5996 14.3169 60.8482 14.3169ZM24.0688 17.5431L32.7007 13.7215V10.4608L24.0688 14.2892V17.5431ZM102.645 13.0292V7.38H104.48V5.51076H102.645V2.18769L99.8653 2.53385V5.51076H98.385V7.38H99.8653V13.6108C99.8653 15.6323 101.387 16.1723 102.763 16.1723C103.889 16.1723 104.536 16.1308 104.536 16.1308V14.0538C104.536 14.0538 104.056 14.0538 103.702 14.0538C103.563 14.069 103.422 14.053 103.29 14.007C103.158 13.961 103.038 13.8861 102.939 13.7879C102.839 13.6896 102.763 13.5705 102.716 13.4393C102.669 13.308 102.652 13.1679 102.666 13.0292H102.645ZM67.4924 16.1723H70.3278V1.31538H67.4924V16.1723ZM128.048 5.22001C124.92 5.22001 122.773 7.67077 122.773 10.8277C122.773 13.9846 124.774 16.4838 128.333 16.4838C131.113 16.4838 132.774 14.8777 133.198 13.0223H130.418C130.267 13.4415 129.98 13.7984 129.602 14.0356C129.224 14.2729 128.777 14.3768 128.333 14.3308C126.727 14.3308 125.81 13.3131 125.601 11.6723H133.357C133.343 7.83692 131.509 5.22001 128.068 5.22001H128.048ZM125.608 9.68538C125.858 8.30077 126.588 7.40077 128.089 7.40077C128.39 7.3989 128.688 7.45685 128.966 7.57128C129.244 7.68565 129.497 7.85423 129.708 8.06698C129.92 8.27979 130.087 8.53255 130.199 8.81052C130.311 9.08841 130.367 9.38582 130.362 9.68538H125.608ZM138.646 14.0885C138.502 14.1091 138.354 14.0959 138.215 14.0501C138.076 14.0043 137.95 13.927 137.846 13.8243C137.743 13.7217 137.664 13.5964 137.618 13.4585C137.57 13.3205 137.557 13.1736 137.576 13.0292V7.38H139.418V5.51076H137.576V2.18769L134.796 2.53385V5.51076H133.316V7.38H134.796V13.6108C134.796 15.6323 136.318 16.1723 137.701 16.1723C138.827 16.1723 139.473 16.1308 139.473 16.1308V14.0538C139.473 14.0538 139.022 14.0885 138.688 14.0885H138.646ZM116.969 5.22001C113.835 5.22001 111.687 7.67077 111.687 10.8277C111.687 13.9846 113.689 16.4838 117.247 16.4838C120.027 16.4838 121.688 14.8777 122.112 13.0223H119.332C119.182 13.4415 118.895 13.7984 118.517 14.0356C118.139 14.2729 117.692 14.3768 117.247 14.3308C115.642 14.3308 114.724 13.3131 114.516 11.6723H122.272C122.265 7.83692 120.43 5.22001 116.99 5.22001H116.969ZM114.53 9.68538C114.78 8.30077 115.51 7.40077 117.011 7.40077C117.312 7.3989 117.61 7.45685 117.888 7.57128C118.166 7.68565 118.418 7.85423 118.63 8.06698C118.842 8.27979 119.008 8.53255 119.12 8.81052C119.233 9.08841 119.288 9.38582 119.284 9.68538H114.53ZM111.687 5.46922C111.463 5.3977 111.227 5.3695 110.992 5.38615C109.741 5.38615 109.012 6.00924 108.365 7.21385H108.303V5.51076H105.571V16.1723H108.407V10.9731C108.407 8.73 109.741 7.75385 111.597 7.94077H111.659L111.687 5.46922ZM76.6593 5.22001C73.5318 5.22001 71.3773 7.67077 71.3773 10.8277C71.3773 13.9846 73.3858 16.4838 76.9373 16.4838C79.7173 16.4838 81.3783 14.8777 81.8023 13.0223H79.0223C78.8722 13.4415 78.5851 13.7984 78.207 14.0356C77.829 14.2729 77.3821 14.3768 76.9373 14.3308C75.3318 14.3308 74.4144 13.3131 74.2059 11.6723H81.9621C81.9552 7.83692 80.1204 5.22001 76.6801 5.22001H76.6593ZM74.2198 9.68538C74.47 8.30077 75.1998 7.40077 76.701 7.40077C77.0019 7.3989 77.3001 7.45685 77.5781 7.57128C77.8561 7.68565 78.1083 7.85423 78.3196 8.06698C78.5316 8.27979 78.6984 8.53255 78.8103 8.81052C78.9229 9.08841 78.9785 9.38582 78.9736 9.68538H74.2198ZM92.2898 7.21385C90.0797 6.73616 89.0372 6.38308 89.0372 5.17847C89.0372 4.11924 90.1006 3.43384 91.7269 3.43384C93.3532 3.43384 94.4374 4.18155 94.6042 5.67693H97.5023C97.273 2.68616 95.1046 1.04539 91.7477 1.04539C88.3909 1.04539 86.0348 2.56153 86.0348 5.48999C86.0348 8.58462 88.4743 9.29077 91.1431 9.89308C93.4157 10.4123 94.8335 10.7031 94.8335 12.1569C94.8335 13.6108 93.4435 14.0677 91.9354 14.0677C89.8087 14.0677 88.787 13.3754 88.5785 11.5754H85.6178C85.7221 14.7115 88.0156 16.5046 92.0605 16.5046C95.4173 16.5046 97.8568 14.8154 97.8568 11.8038C97.8846 8.60538 95.3826 7.87846 92.3176 7.21385H92.2898Z" fill="#7A7A7A"/>
</g>
</g>
<defs>
<clipPath id="clip0_36285_17929">
<rect width="139" height="18" fill="white" transform="translate(0.5)"/>
</clipPath>
</defs>
</svg>
