<svg xmlns="http://www.w3.org/2000/svg" width="94" height="32" fill="none"><g fill="#7A7A7A" clip-path="url(#a)"><path d="M.8 7.368h4.1V24.59H.8v6.822h21.94v-6.822h-4.143V7.37h4.143V0H.8v7.368ZM56.516 24.59v-9.053c0-5.769-4.228-7.874-9.47-7.874-3.72 0-6.552 1.01-9.004 3.832-.169.21-.38.463-.634.673V7.411H23.881v6.863h3.086V24.59H23.88v6.863h17.163V24.59h-3.255v-5.937c0-2.527 1.902-4.38 4.438-4.38 1.987 0 3.551.97 3.551 3.117v7.157h-3.17v6.863H59.39v-6.736c0-.042-.042-.084-.042-.127h-2.832v.043Z"/><path d="M86.698 22.568h-9.215c0 2.527-1.86 3.706-3.932 3.706-3.973 0-4.311-3.327-4.311-6.485v-.084c0-3.158.296-6.484 4.311-6.484 3.129 0 3.678 2.695 3.763 5.263l9.257-1.01c-.972-9.39-10.272-9.98-12.597-9.98h-.507c-7.651 0-15.176 3.748-15.176 12.253 0 1.81.338 3.41.972 4.8h.043v.127c2.282 5.052 8.2 7.326 14.16 7.326 4.862 0 11.668-1.179 13.19-8.632l.042-.8Z"/><path d="M89.869 31.537a3.881 3.881 0 0 0 3.889-3.874 3.881 3.881 0 0 0-3.89-3.873 3.881 3.881 0 0 0-3.888 3.873 3.881 3.881 0 0 0 3.889 3.874Z"/></g><defs><clipPath id="a"><path fill="#fff" d="M.8 0h93v32H.8z"/></clipPath></defs></svg>