<svg xmlns="http://www.w3.org/2000/svg" width="179" height="32" fill="none"><path fill="#7A7A7A" fill-rule="evenodd" d="M59.64.227c-.039.125-.12.63-.18 1.122-.06.492-.135.92-.167.951-.032.031-.926.309-1.987.617-1.67.485-2.345.8-3.67 1.717-.703.487-2.126 2.09-2.513 2.83-.584 1.12-1.015 2.827-1.015 4.02 0 1.193.436 2.915.943 3.72.435.693 2.636 2.381 3.31 2.54.254.059.894.303 1.421.542.528.238 1.069.435 1.202.438.477.007 1.824.714 2.277 1.195.523.554.583 1.131.197 1.867-.466.886-2.366 1.183-4.31.674-1.23-.322-2.492-.92-2.918-1.382-.182-.198-.408-.36-.504-.36-.311 0-5.316 4.776-5.316 5.073 0 .407 1.46 1.336 3.463 2.205 1.508.654 2.4.885 4.608 1.193.43.06.566.163.52.394-.035.173-.104.787-.154 1.365L54.756 32l1.69-.052 1.69-.052.238-1.163c.132-.64.327-1.266.433-1.392.107-.127.627-.287 1.156-.356 2.94-.383 5.79-2.124 7.438-4.544.76-1.115 1.002-2.085 1.008-4.038.006-2.18-.278-3.02-1.434-4.25-1.218-1.294-2.304-1.985-4.522-2.875-2.406-.966-3.588-1.577-3.724-1.925-.256-.656-.113-1.333.358-1.697 1.277-.987 3.22-.975 5.239.033l1.274.636 2.428-2.41c1.755-1.743 2.395-2.493 2.311-2.71-.064-.164-.222-.298-.352-.298-.129 0-.343-.129-.477-.287-.559-.662-2.719-1.443-5.975-2.159-.507-.112-.526-.152-.418-.88.063-.42.166-.947.23-1.172.116-.405.097-.409-1.76-.409-1.34 0-1.896.065-1.947.227ZM4.715 3.09c-.075.12-.377 1.662-.67 3.426-.791 4.76-1.006 5.94-1.424 7.843-.209.95-.476 2.462-.593 3.362-.117.9-.622 3.721-1.12 6.27C.407 26.539 0 28.706 0 28.806c0 .12 2.71.16 7.894.118l7.893-.063 1.844-.631c4.919-1.683 7.418-3.713 9.447-7.674.953-1.859 1.241-3.304 1.242-6.21 0-4.459-.473-5.695-3.142-8.22-1.383-1.307-3.435-2.412-5.301-2.854-1.342-.318-14.973-.482-15.162-.183Zm31.24.5a599.845 599.845 0 0 1-1.385 7.406c-.564 2.896-1.288 7.277-1.288 7.795v.475h8.291l.282-1.227c.156-.675.54-2.74.856-4.589.315-1.85.86-4.875 1.21-6.725.352-1.849.639-3.464.64-3.589 0-.175-.972-.227-4.245-.227h-4.244l-.117.681Zm41.985-.454c-.042.125-.248 1.168-.458 2.317-.21 1.15-.462 2.336-.56 2.636-.099.3-.306 1.5-.462 2.669-.156 1.168-.582 3.662-.948 5.543a406.451 406.451 0 0 0-1.439 8.008l-.774 4.59h4.025c4.024 0 4.025 0 4.114-.41.049-.225.433-2.249.854-4.498.42-2.249.843-4.232.938-4.407.299-.55 1.054-.398 1.36.272.443.975 1.745 4.443 2.558 6.816l.763 2.226h4.766c5.139 0 5.148-.002 4.43-.93-.184-.238-.489-.842-.677-1.342-.338-.9-2.677-5.875-3.413-7.262-.21-.396-.382-.822-.382-.945 0-.124.543-.48 1.208-.792.664-.312 1.308-.725 1.431-.918.123-.193.32-.351.44-.351.75 0 2.234-2.848 2.517-4.835.632-4.424-1.616-7.5-6.096-8.343-1.93-.363-14.075-.4-14.195-.044Zm26.065.636c-.125.936-.557 3.478-1.86 10.95-.734 4.213-.831 5.078-.776 6.906.056 1.838.126 2.216.576 3.13.623 1.266 2.074 2.59 3.831 3.498 1.762.91 4.16 1.258 7.753 1.125 3.16-.118 4.739-.47 6.52-1.45 2.323-1.28 4.112-3.405 5.026-5.971.513-1.442 2.935-14.31 3.475-18.46l.076-.591H120.569l-.182.681c-.2.752-1.076 5.28-1.679 8.679-1.15 6.483-1.613 8.044-2.731 9.216-.588.617-2.117.958-3.55.794-.87-.1-1.114-.217-1.621-.775-1.35-1.49-1.347-1.542.999-14.052.365-1.949.704-3.769.752-4.043l.089-.5H104.121l-.116.863Zm29.989-.727c-.045.075-.14.709-.212 1.409-.072.7-.376 2.54-.676 4.089-.3 1.55-1.086 5.802-1.746 9.45-.66 3.649-1.281 6.92-1.38 7.27-.1.35-.234 1.311-.3 2.136l-.12 1.5h8.346l.104-.5c.057-.276.315-1.768.573-3.317.258-1.55.557-3.247.664-3.772l.194-.954h2.1c1.155 0 2.75-.089 3.546-.197 1.986-.271 4.586-1.123 5.713-1.872 1.034-.688 2.667-2.375 2.667-2.756 0-.134.187-.554.416-.935.385-.64.416-.91.416-3.6 0-2.873-.006-2.919-.54-3.866-.717-1.272-2.07-2.487-3.502-3.145-2.03-.934-3.363-1.076-10.108-1.076-3.341 0-6.111.061-6.155.136Zm22.986.038c0 .143-.313 2.014-1.013 6.05l-.087.5h6.664l-.097.591a713.247 713.247 0 0 1-2.174 12.404c-.411 2.2-.791 4.51-.844 5.134l-.096 1.136h8.481l.233-1.5c.128-.824.316-2.071.417-2.77.101-.7.426-2.54.723-4.09.297-1.55.827-4.453 1.179-6.452.351-2 .691-3.766.754-3.926.127-.32 2.099-.527 5.013-.527 1.298 0 1.546-.048 1.627-.318.088-.293.84-4.137 1.12-5.725l.12-.681h-11.01c-6.892 0-11.01.065-11.01.174ZM88.752 9.7c.648.287 1.178 1.421 1.03 2.2-.16.834-.987 1.656-1.917 1.902-.825.219-3.473.329-3.653.152-.09-.088.524-3.679.762-4.46.085-.279 3.05-.118 3.778.206Zm55.569-.229c1.221.302 1.75.914 1.75 2.022 0 1.615-1.326 2.47-3.962 2.554-.65.021-1.245-.023-1.322-.098-.122-.12.338-3.52.591-4.362.076-.253.303-.318 1.111-.318.558 0 1.382.09 1.832.202Zm-128.087.711c2.57.644 3.714 2.857 3.195 6.176-.248 1.585-.985 2.84-2.266 3.86-1.534 1.222-1.828 1.306-4.82 1.378-1.5.035-2.728.028-2.728-.018 0-.045.2-1.055.445-2.243.244-1.188.662-3.51.93-5.16.657-4.067.64-4 1.092-4.183.439-.177 3.188-.051 4.152.19ZM34.777 21.44c-1.73.974-2.604 2.394-2.604 4.229 0 1.074.063 1.284.603 1.987.332.433.977.977 1.433 1.209.714.363 1.035.411 2.309.349 3.023-.148 4.53-1.658 4.53-4.537-.002-1.574-.333-2.235-1.504-2.997-.69-.449-.971-.512-2.457-.55-1.382-.037-1.79.018-2.31.31Z" clip-rule="evenodd"/></svg>