<svg width="130" height="36" viewBox="0 0 130 36" fill="none" xmlns="http://www.w3.org/2000/svg">
<g clip-path="url(#clip0_37306_24534)">
<path d="M43.4885 16.5316L39.1487 27.3644L37.8467 30.2094C36.5448 32.0695 34.3749 33.2732 32.0965 33.2732C31.0116 33.2732 30.0352 32.5072 30.0352 31.3036V31.1942C30.0337 30.9351 30.0832 30.6783 30.1809 30.4387C30.2785 30.1991 30.4223 29.9814 30.6039 29.7982C30.7856 29.615 31.0014 29.47 31.239 29.3715C31.4766 29.2731 31.7312 29.2231 31.9881 29.2246C32.5804 29.265 33.1705 29.118 33.6762 28.8042C34.1818 28.4904 34.5777 28.0253 34.8089 27.4738L35.2429 26.489L31.2286 16.641C30.7946 15.4373 31.3371 14.1242 32.422 13.6866C33.6155 13.2489 34.9174 13.796 35.3514 14.8902L37.3043 19.7048L39.2572 14.8902C39.6912 13.6866 41.1016 13.1394 42.1865 13.6866C42.714 13.8535 43.1562 14.2211 43.4195 14.7113C43.6828 15.2016 43.7465 15.7759 43.597 16.3127C43.4885 16.3127 43.4885 16.4221 43.4885 16.5316ZM54.0125 25.5042C54.0125 26.8172 52.9275 27.8021 51.7341 27.8021H51.3001C48.1537 27.8021 45.5499 25.2854 45.5499 22.1121V11.2793C45.5499 9.96618 46.6348 8.98138 47.8283 9.0908C49.0217 9.0908 49.9981 10.0756 49.9981 11.2793V13.5771H52.0596C53.1445 13.5771 54.0124 14.4525 54.1209 15.5468C54.1209 16.641 53.253 17.5164 52.168 17.6258H49.9981V22.0027C49.9981 22.7686 50.3237 23.4252 51.1916 23.4252H51.6256C52.819 23.4252 53.904 24.3005 53.904 25.6136C54.0125 25.3948 54.0125 25.3948 54.0125 25.5042ZM66.7063 22.3309H59.1117C60.3051 24.0817 62.692 24.6288 64.5364 23.5346C65.4044 22.9875 66.5978 23.3157 67.1403 24.1911C67.6827 25.0665 67.3573 26.2701 66.4893 26.8173C65.2959 27.5832 63.8855 27.9115 62.3665 27.9115C59.4372 28.0209 56.7248 26.3796 55.4229 23.644C54.5549 21.7838 54.5549 19.5954 55.3144 17.6258C56.8333 13.9054 61.0646 12.1546 64.7534 13.6866C67.1403 14.6714 68.8762 16.9692 69.0932 19.5954C69.4187 21.4555 68.3337 22.3309 66.7063 22.3309ZM64.9704 19.0483C64.5364 17.7352 63.343 16.8598 62.0411 16.9692C61.4022 16.9787 60.7809 17.1822 60.2584 17.553C59.7358 17.9239 59.3363 18.4449 59.1117 19.0483H64.9704ZM84.4994 13.1394C84.4937 14.8789 83.806 16.5455 82.5865 17.7755C81.3669 19.0055 79.7145 19.699 77.9897 19.7048H75.8199V25.5042C75.8199 26.8172 74.7349 27.8021 73.5415 27.8021C72.2395 27.8021 71.2631 26.8172 71.2631 25.5042V8.87198C71.2631 7.66833 72.2395 6.5741 73.5415 6.5741H77.8812C81.4616 6.5741 84.3909 9.41908 84.4994 13.1394C84.4994 13.1394 84.4994 13.03 84.4994 13.1394ZM79.9426 13.1394C79.9441 12.8804 79.8946 12.6236 79.7969 12.384C79.6993 12.1444 79.5555 11.9267 79.3739 11.7435C79.1922 11.5603 78.9764 11.4153 78.7388 11.3168C78.5012 11.2183 78.2466 11.1684 77.9897 11.1699H75.8199V15.109H77.9897C78.9662 15.109 79.9426 14.2337 79.9426 13.1394ZM88.2967 27.6926C86.9948 27.6926 86.0183 26.5984 86.0183 25.3948V15.5468C86.0183 14.2337 87.1033 13.2489 88.2967 13.2489C89.4902 13.2489 90.5751 14.2337 90.5751 15.4373V25.2853C90.5751 26.489 89.7072 27.5832 88.4052 27.5832C88.4052 27.6927 88.2967 27.6926 88.2967 27.6926ZM90.2496 10.6227C90.2496 11.1451 90.0439 11.6461 89.6776 12.0154C89.3114 12.3848 88.8147 12.5923 88.2967 12.5923C87.7788 12.5923 87.2821 12.3848 86.9158 12.0154C86.5496 11.6461 86.3438 11.1451 86.3438 10.6227C86.3424 10.3637 86.3919 10.1069 86.4896 9.86729C86.5872 9.62767 86.731 9.40996 86.9126 9.22678C87.0942 9.04359 87.3101 8.89855 87.5477 8.80008C87.7853 8.70161 88.0399 8.65167 88.2967 8.65312C89.3817 8.76254 90.1411 9.52852 90.2496 10.6227ZM101.099 25.5042C101.099 26.8172 100.014 27.8021 98.8207 27.8021H98.3867C95.2404 27.8021 92.6365 25.2854 92.6365 22.1121V11.2793C92.6365 9.96618 93.7215 8.9814 94.9149 8.9814C96.1083 8.9814 97.1933 9.96621 97.1933 11.1699V13.4677H99.2547C100.34 13.4677 101.208 14.3431 101.316 15.4373C101.316 16.5316 100.448 17.4069 99.3632 17.5163H97.1933V21.8932C97.1933 22.6592 97.5188 23.3157 98.3867 23.3157H98.8207C100.014 23.3157 101.099 24.1911 101.099 25.5042C101.099 25.3948 101.099 25.3948 101.099 25.5042ZM109.236 28.0209C105.222 28.0209 101.967 24.7382 102.076 20.6896C102.184 16.641 105.33 13.3583 109.345 13.4677C110.864 13.4677 112.383 14.0148 113.684 14.9996C114.661 15.7656 114.769 17.1881 114.01 18.1729C113.25 19.1577 111.84 19.2671 110.864 18.6106C109.67 17.6258 107.934 17.954 106.958 19.1577C105.981 20.3613 106.307 22.1121 107.5 23.0969C107.934 23.4252 108.585 23.644 109.128 23.644C109.779 23.644 110.321 23.4252 110.864 23.0969C111.84 22.3309 113.25 22.5498 114.01 23.5346C114.769 24.5194 114.552 25.9419 113.576 26.7078C112.383 27.4738 110.864 28.0209 109.236 28.0209ZM128.982 19.5954V25.3948C128.982 26.7078 127.897 27.6926 126.704 27.6926C125.402 27.6926 124.425 26.7078 124.425 25.3948V19.5954C124.425 19.131 124.243 18.6857 123.917 18.3574C123.591 18.0291 123.15 17.8446 122.689 17.8446C122.229 17.8446 121.788 18.0291 121.462 18.3574C121.136 18.6857 120.954 19.131 120.954 19.5954V25.3948C120.954 26.7078 119.869 27.6926 118.675 27.6926C117.373 27.6926 116.397 26.7078 116.397 25.3948V10.951C116.397 9.63793 117.373 8.65312 118.675 8.65312C119.977 8.65312 120.954 9.74735 120.954 10.951V13.4677C121.496 13.3583 122.147 13.2489 122.689 13.2489C126.161 13.2489 128.982 16.0938 128.982 19.5954ZM73.4058 32.2731C73.1889 32.2731 72.9719 32.1636 72.8634 32.3825C72.8634 32.6013 73.1889 32.7107 73.2974 32.7107C73.6229 32.8202 73.9483 32.9296 74.1653 33.1485C74.5993 33.6956 74.7078 34.3521 74.4908 35.0086C74.1653 35.6652 73.6228 35.9934 72.9718 35.9934C72.4294 35.9934 71.9954 35.884 71.5614 35.5557C71.3444 35.2275 71.3445 34.7898 71.67 34.4615C71.7785 34.3521 71.9954 34.3521 72.1039 34.3521C72.3209 34.3521 72.6464 34.5709 72.8634 34.5709C72.9719 34.5709 73.1888 34.5709 73.1888 34.3521C73.1888 34.1332 73.1888 34.0238 72.9718 34.0238C72.4294 33.9144 71.8869 33.4767 71.5614 33.039C71.3444 32.6013 71.453 32.0542 71.67 31.6165C72.1039 30.96 72.9719 30.7411 73.7313 31.0694C74.1653 31.1788 74.3823 31.5071 74.2738 31.9448C74.2738 32.0542 74.2738 32.0542 74.1653 32.1636C74.0568 32.273 73.7313 32.3825 73.4058 32.2731ZM80.1325 33.4767C80.1325 34.8992 78.9391 35.9934 77.5286 36.1028C77.1993 36.1088 76.8722 36.0477 76.5668 35.9234C76.2614 35.799 75.984 35.6138 75.7511 35.3789C75.5182 35.1441 75.3346 34.8642 75.2112 34.5562C75.0879 34.2482 75.0274 33.9183 75.0333 33.5861C75.0333 32.1636 76.1182 30.96 77.5286 30.96C78.9391 30.96 80.1325 32.0542 80.1325 33.4767C80.1325 33.3673 80.1325 33.3673 80.1325 33.4767ZM76.6607 33.4767C76.6607 34.0238 77.0947 34.4615 77.6371 34.4615C78.1796 34.4615 78.6136 34.0238 78.6136 33.4767C78.6136 32.9296 78.1796 32.4919 77.6371 32.4919C77.0947 32.4919 76.6607 32.9296 76.6607 33.4767ZM83.6043 32.4919C83.6043 32.8202 83.2789 33.1485 82.8449 33.1485H82.3024V35.118C82.3024 35.3212 82.2224 35.516 82.0799 35.6596C81.9375 35.8033 81.7444 35.884 81.5429 35.884C81.3415 35.884 81.1484 35.8033 81.0059 35.6596C80.8635 35.516 80.7835 35.3212 80.7835 35.118V31.3977C80.7835 30.3035 81.6514 29.3187 82.8449 29.3187C82.9446 29.3187 83.0434 29.3385 83.1355 29.377C83.2277 29.4155 83.3114 29.4719 83.3819 29.543C83.4524 29.6141 83.5084 29.6986 83.5465 29.7915C83.5847 29.8844 83.6043 29.984 83.6043 30.0846C83.6043 30.1852 83.5847 30.2848 83.5465 30.3777C83.5084 30.4707 83.4524 30.5551 83.3819 30.6262C83.3114 30.6974 83.2277 30.7538 83.1355 30.7923C83.0434 30.8308 82.9446 30.8506 82.8449 30.8506C82.6279 30.8506 82.4109 31.0694 82.3024 31.2883V31.7259H82.8449C83.2789 31.8354 83.6043 32.0542 83.6043 32.4919ZM87.0762 35.118C87.0792 35.2195 87.0616 35.3204 87.0245 35.4147C86.9874 35.509 86.9315 35.5947 86.8604 35.6664C86.7893 35.7381 86.7043 35.7944 86.6108 35.8319C86.5173 35.8693 86.4172 35.887 86.3167 35.884H86.2082C85.9513 35.8855 85.6968 35.8355 85.4592 35.737C85.2216 35.6386 85.0057 35.4935 84.8241 35.3104C84.6425 35.1272 84.4986 34.9095 84.401 34.6698C84.3034 34.4302 84.2539 34.1735 84.2553 33.9144V30.0846C84.2523 29.9832 84.2699 29.8822 84.307 29.7879C84.3441 29.6936 84.3999 29.608 84.471 29.5363C84.5422 29.4645 84.6271 29.4082 84.7206 29.3708C84.8141 29.3334 84.9142 29.3156 85.0148 29.3187C85.4488 29.3187 85.7742 29.6469 85.8827 30.0846V30.8506H86.6422C87.0762 30.8506 87.2931 31.1789 87.4016 31.5071C87.4016 31.8354 87.0762 32.1636 86.6422 32.1636H85.8827V33.6956C85.8827 33.9144 85.9912 34.1333 86.2082 34.1333H86.3167C86.7507 34.3521 87.0762 34.6804 87.0762 35.118Z" fill="#7A7A7A"/>
<path d="M94.6707 31.9448L93.2602 35.3369C93.1517 35.6652 92.8263 35.7746 92.5008 35.7746C92.1753 35.7746 91.9583 35.6652 91.7413 35.3369L90.9819 33.4767L90.2224 35.3369C90.1139 35.5557 89.8969 35.7746 89.5714 35.7746C89.2459 35.7746 88.9205 35.5557 88.7035 35.3369L87.293 31.9448C87.1845 31.5071 87.2931 31.0694 87.727 30.96C88.161 30.7412 88.595 30.96 88.7035 31.3977L89.4629 33.2578L90.2224 31.5071C90.3309 31.2883 90.5479 31.0694 90.8734 31.0694C91.0904 31.0694 91.4159 31.1788 91.5243 31.5071L92.2838 33.2578L93.0433 31.3977C93.2603 30.96 93.6942 30.8506 94.1282 31.0694C94.6707 31.1788 94.8877 31.6165 94.6707 31.9448Z" fill="#7A7A7A"/>
<path d="M100.096 31.726V35.2275C100.099 35.3289 100.082 35.4299 100.045 35.5242C100.007 35.6185 99.9516 35.7041 99.8804 35.7758C99.8093 35.8476 99.7244 35.9039 99.6309 35.9413C99.5374 35.9787 99.4373 35.9965 99.3367 35.9934C99.1198 35.9934 98.9028 35.884 98.7943 35.7746C98.4688 35.9935 98.0348 36.1029 97.6008 36.1029C96.1904 36.1029 95.1055 34.8992 95.1055 33.4767C95.1055 32.0542 96.2989 30.96 97.7093 30.96C98.1433 30.96 98.5773 31.0694 98.9028 31.2883C99.0113 31.1789 99.2283 31.0694 99.4453 31.0694C99.7707 30.8506 100.096 31.2883 100.096 31.726C100.096 31.6165 100.096 31.6165 100.096 31.726ZM98.5773 33.4767C98.5773 32.9296 98.1433 32.4919 97.6008 32.4919C97.0584 32.4919 96.6244 32.9296 96.6244 33.4767C96.6244 34.0238 97.0584 34.4615 97.6008 34.4615C98.1433 34.3521 98.5773 34.0238 98.5773 33.4767Z" fill="#7A7A7A"/>
<path d="M103.894 31.726C103.894 32.1637 103.46 32.4919 103.026 32.4919C102.7 32.4919 102.375 32.7108 102.375 33.039V35.1181C102.375 35.2187 102.355 35.3183 102.317 35.4112C102.279 35.5041 102.223 35.5885 102.152 35.6597C102.082 35.7308 101.998 35.7872 101.906 35.8257C101.814 35.8642 101.715 35.884 101.615 35.884C101.516 35.884 101.417 35.8642 101.325 35.8257C101.232 35.7872 101.149 35.7308 101.078 35.6597C101.008 35.5885 100.952 35.5041 100.914 35.4112C100.875 35.3183 100.856 35.2187 100.856 35.1181V31.726C100.853 31.6246 100.87 31.5236 100.908 31.4293C100.945 31.335 101 31.2494 101.072 31.1776C101.143 31.1059 101.228 31.0496 101.321 31.0122C101.415 30.9747 101.515 30.957 101.615 30.96C101.832 30.96 101.941 31.0694 102.158 31.1789C102.483 31.0694 102.809 30.96 103.243 30.96C103.568 30.96 104.002 31.2883 103.894 31.726ZM108.45 34.0238H105.847C106.045 34.3147 106.344 34.5207 106.685 34.6016C107.026 34.6825 107.385 34.6325 107.691 34.4615C108.016 34.2427 108.342 34.3521 108.559 34.6804V34.7898C108.776 35.1181 108.667 35.4463 108.342 35.6652H108.233C107.793 35.8772 107.311 35.9893 106.823 35.9934C105.847 35.9934 104.87 35.4463 104.436 34.4615C104.161 33.8503 104.132 33.1553 104.354 32.5227C104.577 31.8901 105.034 31.3691 105.63 31.0694C105.955 30.8506 106.389 30.8506 106.715 30.8506C108.016 30.8506 108.993 31.8354 109.21 33.039C109.427 33.6956 109.101 34.0238 108.45 34.0238ZM107.908 32.8202C107.691 32.2731 107.04 31.9448 106.498 32.1636C106.344 32.2107 106.204 32.2952 106.091 32.4097C105.977 32.5242 105.893 32.6652 105.847 32.8202H107.908ZM113.55 35.884C113.449 35.8871 113.349 35.8693 113.256 35.8319C113.162 35.7945 113.077 35.7382 113.006 35.6664C112.935 35.5947 112.879 35.509 112.842 35.4147C112.805 35.3204 112.787 35.2195 112.79 35.1181V30.0846C112.787 29.9832 112.805 29.8823 112.842 29.788C112.879 29.6937 112.935 29.608 113.006 29.5363C113.077 29.4645 113.162 29.4082 113.256 29.3708C113.349 29.3334 113.449 29.3157 113.55 29.3187C113.984 29.3187 114.309 29.6469 114.418 30.0846V35.1181C114.309 35.5558 113.984 35.884 113.55 35.884Z" fill="#7A7A7A"/>
<path d="M119.952 31.726V35.2275C119.955 35.3289 119.937 35.4299 119.9 35.5242C119.863 35.6185 119.807 35.7041 119.736 35.7758C119.665 35.8476 119.58 35.9039 119.486 35.9413C119.393 35.9787 119.293 35.9965 119.192 35.9934C118.975 35.9934 118.758 35.884 118.65 35.7746C118.324 35.9935 117.89 36.1029 117.456 36.1029C116.046 36.1029 114.961 34.8992 114.961 33.4767C114.961 32.0542 116.154 30.96 117.565 30.96C117.999 30.96 118.433 31.0694 118.758 31.2883C118.867 31.1789 119.084 31.0694 119.301 31.0694C119.626 30.8506 119.952 31.2883 119.952 31.726C119.952 31.6165 119.952 31.6165 119.952 31.726ZM118.433 33.4767C118.433 32.9296 117.999 32.4919 117.456 32.4919C116.914 32.4919 116.48 32.9296 116.48 33.4767C116.48 34.0238 116.914 34.4615 117.456 34.4615C117.999 34.3521 118.433 34.0238 118.433 33.4767Z" fill="#7A7A7A"/>
<path d="M125.809 33.4767C125.809 34.8992 124.616 35.9934 123.206 36.1028C122.772 36.1028 122.338 35.9934 122.012 35.7746C121.904 35.9934 121.687 35.9934 121.47 35.9934C121.369 35.9964 121.269 35.9787 121.175 35.9413C121.082 35.9039 120.997 35.8476 120.926 35.7758C120.855 35.7041 120.799 35.6184 120.762 35.5241C120.725 35.4298 120.707 35.3289 120.71 35.2275V30.194C120.707 30.0926 120.725 29.9917 120.762 29.8974C120.799 29.8031 120.855 29.7174 120.926 29.6457C120.997 29.5739 121.082 29.5176 121.175 29.4802C121.269 29.4428 121.369 29.425 121.47 29.4281H121.578C121.679 29.425 121.779 29.4428 121.872 29.4802C121.966 29.5176 122.051 29.5739 122.122 29.6457C122.193 29.7174 122.249 29.8031 122.286 29.8974C122.323 29.9917 122.341 30.0926 122.338 30.194V31.0694C122.663 30.96 122.989 30.8506 123.314 30.8506C124.724 30.8506 125.809 32.0542 125.809 33.4767ZM124.291 33.4767C124.291 32.9296 123.857 32.4919 123.314 32.4919C122.772 32.4919 122.338 32.9296 122.338 33.4767C122.338 34.0238 122.772 34.4615 123.314 34.4615C123.857 34.3521 124.291 34.0238 124.291 33.4767ZM128.196 32.2731C127.979 32.2731 127.762 32.1636 127.654 32.3825C127.654 32.6013 127.979 32.7107 128.088 32.7107C128.413 32.8202 128.739 32.9296 128.956 33.1485C129.39 33.6956 129.498 34.3521 129.281 35.0086C128.956 35.6652 128.413 35.9934 127.762 35.9934C127.22 35.9934 126.786 35.884 126.352 35.5557C126.135 35.2275 126.135 34.7898 126.46 34.4615C126.569 34.3521 126.786 34.3521 126.894 34.3521C127.111 34.3521 127.437 34.5709 127.654 34.5709C127.762 34.5709 127.979 34.5709 127.979 34.3521C127.979 34.2427 127.979 34.0238 127.762 34.0238C127.22 33.9144 126.677 33.4767 126.352 33.039C126.135 32.6013 126.243 32.0542 126.46 31.6165C126.894 30.96 127.762 30.7411 128.522 31.0694C128.956 31.1788 129.173 31.5071 129.064 31.9448C129.064 32.0542 129.064 32.0542 128.956 32.1636C128.847 32.2731 128.522 32.3825 128.196 32.2731ZM2.23631 33.8115C1.91082 34.0304 1.80238 34.4681 2.01937 34.7963C2.0702 34.8968 2.14801 34.9809 2.24392 35.0389C2.33984 35.097 2.45001 35.1267 2.56184 35.1246H20.7889C26.7561 35.1246 31.6383 30.2006 31.5298 24.1824C31.5814 22.8374 31.3466 21.4969 30.8413 20.2512C30.336 19.0054 29.572 17.8834 28.6005 16.9605C28.3835 16.7416 28.1665 16.7416 27.9495 16.9605L2.23631 33.8115ZM25.2372 15.9757C29.2515 13.5684 30.5534 8.20667 28.1665 4.15804C26.6476 1.5319 23.8268 0 20.7889 0H2.67031C1.36838 0.109422 0.391928 1.0942 0.500422 2.40727V31.076C0.500422 31.2948 0.608903 31.4042 0.825892 31.4042C0.934387 31.4042 0.9344 31.4043 1.04289 31.2948L25.2372 15.9757Z" fill="#7A7A7A"/>
</g>
<defs>
<clipPath id="clip0_37306_24534">
<rect width="129" height="36" fill="white" transform="translate(0.5)"/>
</clipPath>
</defs>
</svg>
