<svg width="120" height="36" viewBox="0 0 120 36" fill="none" xmlns="http://www.w3.org/2000/svg">
<g clip-path="url(#clip0_37306_24505)">
<path fill-rule="evenodd" clip-rule="evenodd" d="M52.1334 13.8218C52.7764 13.0466 53.564 12.6595 54.4971 12.6595C55.4302 12.6595 56.2323 13.0511 56.9041 13.8364C57.5722 14.6206 57.9072 15.5912 57.9072 16.75C57.9072 17.9078 57.5641 18.8575 56.8762 19.5973C56.1883 20.3361 55.3863 20.7051 54.472 20.7051C53.5559 20.7051 52.7764 20.3361 52.1334 19.5973C51.4903 18.8575 51.1697 17.9023 51.1697 16.7363C51.1697 15.5685 51.4903 14.5979 52.1334 13.8218ZM51.2226 11.1355V9.53053H47.1641V29.0335H51.2226V22.0147C52.2788 23.4216 53.6734 24.1259 55.4086 24.1259C57.1447 24.1259 58.6615 23.4134 59.9539 21.9874C61.2499 20.5624 61.8974 18.7894 61.8974 16.6682C61.8974 14.5489 61.1547 12.7876 59.8587 11.389C58.5663 9.99035 57.0899 9.2915 55.4329 9.2915C53.7776 9.2915 52.4377 9.90493 51.2226 11.1355Z" fill="#7A7A7A"/>
<path fill-rule="evenodd" clip-rule="evenodd" d="M66.4316 8.97968C67.0672 8.97968 67.6039 8.75888 68.0408 8.31548C68.4785 7.87215 68.6974 7.32857 68.6974 6.6857C68.6974 6.04194 68.4785 5.49839 68.0408 5.05591C67.6039 4.61166 67.0672 4.39087 66.4316 4.39087C65.7942 4.39087 65.2593 4.61166 64.8215 5.05591C64.3838 5.49839 64.1641 6.04194 64.1641 6.6857C64.1641 7.32857 64.3838 7.87215 64.8215 8.31548C65.2593 8.75888 65.7942 8.97968 66.4316 8.97968ZM64.5002 24.1331H68.4557V10.1017H64.5002V24.1331Z" fill="#7A7A7A"/>
<path fill-rule="evenodd" clip-rule="evenodd" d="M77.0689 14.0887C77.7107 13.3141 78.4991 12.9272 79.4325 12.9272C80.3667 12.9272 81.1669 13.3187 81.8378 14.1032C82.5079 14.8869 82.8419 15.8567 82.8419 17.0146C82.8419 18.1714 82.4983 19.1204 81.811 19.8596C81.1238 20.5979 80.3213 20.9666 79.4072 20.9666C78.4909 20.9666 77.7107 20.5979 77.0689 19.8596C76.424 19.1204 76.1042 18.166 76.1042 17.0009C76.1042 15.8341 76.424 14.8642 77.0689 14.0887ZM76.157 11.4063V4.64465H72.0977V24.1732H76.157V22.2771C77.2667 23.6828 78.6627 24.3865 80.3444 24.3865C82.0275 24.3865 83.5283 23.6647 84.8492 22.2245C86.1709 20.7815 86.8313 18.9916 86.8313 16.8549C86.8313 14.7173 86.1873 12.9691 84.9028 11.607C83.6161 10.2449 82.11 9.56378 80.3838 9.56378C78.6583 9.56378 77.2481 10.1768 76.157 11.4063Z" fill="#7A7A7A"/>
<path fill-rule="evenodd" clip-rule="evenodd" d="M101.733 11.4807C100.336 10.0212 98.579 9.2915 96.4645 9.2915C94.35 9.2915 92.5925 10.0212 91.1958 11.4807C89.7975 12.9411 89.0977 14.7307 89.0977 16.8533C89.0977 18.9768 89.7975 20.7618 91.1958 22.213C92.5925 23.6632 94.35 24.3883 96.4645 24.3883C98.579 24.3883 100.336 23.6632 101.733 22.213C103.131 20.7618 103.831 18.9768 103.831 16.8533C103.831 14.7307 103.131 12.9411 101.733 11.4807ZM93.9781 13.9159C94.6259 13.1539 95.4545 12.7728 96.4645 12.7728C97.4738 12.7728 98.3031 13.1539 98.9501 13.9159C99.5964 14.6762 99.9215 15.6575 99.9215 16.8534C99.9215 18.0511 99.5964 19.0259 98.9501 19.7797C98.3031 20.5306 97.4738 20.9062 96.4645 20.9062C95.4545 20.9062 94.6259 20.5306 93.9781 19.7797C93.3311 19.0259 93.0083 18.0511 93.0083 16.8534C93.0083 15.6575 93.3311 14.6762 93.9781 13.9159Z" fill="#7A7A7A"/>
<path fill-rule="evenodd" clip-rule="evenodd" d="M105.231 10.1672L109.923 17.0063L105.23 24.1026H109.95L112.216 20.2709L114.878 24.1026H119.517L114.64 16.979L119.517 10.1672H114.878L112.375 13.8976L109.95 10.1672H105.231Z" fill="#7A7A7A"/>
<path fill-rule="evenodd" clip-rule="evenodd" d="M5.16172 0C2.69715 0 0.699219 2.01472 0.699219 4.5V31.5C0.699219 33.9853 2.69715 36 5.16172 36H31.3374C33.802 36 35.7999 33.9853 35.7999 31.5V4.5C35.7999 2.01472 33.802 0 31.3374 0H5.16172ZM24.4181 25.0686C24.8898 25.0686 25.2332 25.0839 25.2332 25.0839C25.2332 25.0839 25.5766 24.1281 26.1923 21.9897C25.0461 21.9897 24.4146 21.2229 24.4146 20.1609V9.8991H12.1179V24.2991H15.6207L15.6418 13.4991H20.9117L20.91 20.6406C20.91 22.1778 20.9935 23.3595 21.7102 24.111C22.426 24.8625 23.0725 25.0686 24.4181 25.0686Z" fill="#7A7A7A"/>
</g>
<defs>
<clipPath id="clip0_37306_24505">
<rect width="119" height="36" fill="white" transform="translate(0.699219)"/>
</clipPath>
</defs>
</svg>
