<svg width="87" height="32" viewBox="0 0 87 32" fill="none" xmlns="http://www.w3.org/2000/svg">
<path fill-rule="evenodd" clip-rule="evenodd" d="M9.01455 1.7302C10.0055 1.22857 11.5471 0.643326 12.4555 0.420377C13.3639 0.197428 14.988 0.00234685 16.0341 0.00234685C17.1627 -0.0255218 18.8694 0.197428 20.1632 0.531852C21.3744 0.866276 22.971 1.45152 23.7418 1.86955C24.485 2.28758 25.9715 3.45806 27.0451 4.46134C28.3389 5.68756 29.3023 6.94165 29.9905 8.22361C30.5411 9.28262 31.2017 10.899 31.477 11.8187C31.7798 12.8777 31.9725 14.4105 31.9725 15.999C31.9725 17.8383 31.8073 19.0645 31.3394 20.5973C30.9815 21.7399 30.2658 23.4399 29.7152 24.3596C29.1647 25.2792 27.9535 26.7563 27.0451 27.6481C25.944 28.7442 24.6594 29.6453 23.1912 30.3513C21.98 30.9366 20.1907 31.5776 19.1997 31.7726C18.1537 31.9677 16.4195 32.0513 15.0706 31.9677C13.7493 31.8841 12.015 31.5497 11.0791 31.2153C10.1707 30.8808 8.7668 30.212 7.9685 29.7104C7.14268 29.2366 5.7663 28.0661 4.85789 27.1464C3.94949 26.2268 2.79333 24.6661 2.29784 23.6629C1.77481 22.6596 1.14168 21.0989 0.893933 20.1793C0.59113 19.2039 0.398438 17.5317 0.398438 16.1383C0.398438 14.8006 0.618658 12.9892 0.866405 11.958C1.11415 10.9547 1.71976 9.39409 2.21525 8.47442C2.71075 7.49902 3.94949 5.91051 5.1607 4.71215C6.5646 3.26298 7.80334 2.31545 9.01455 1.7302ZM18.5111 7.77765C17.7954 8.5301 17.2173 9.25469 17.2173 9.36616C17.2449 9.47764 18.4561 10.7875 19.8875 12.2366L22.5026 14.8842C24.8425 12.5153 25.5307 11.6793 25.5307 11.5399C25.5307 11.4006 24.4571 10.1744 23.1082 8.80879C21.7869 7.47109 20.5206 6.38421 20.2729 6.38421C20.0251 6.38421 19.2269 6.99732 18.5111 7.77765ZM13.914 11.8465C12.5652 12.5153 11.3265 13.3514 11.1062 13.6858C10.886 14.0481 9.83997 16.5841 8.73887 19.3431C7.66529 22.1021 6.83947 24.3874 6.867 24.4431C6.92205 24.471 8.21585 23.2169 9.75739 21.6562L12.5927 18.7858C12.5927 16.0546 12.4826 15.3022 12.3174 15.3022C12.1798 15.3022 11.9871 15.0792 11.9045 14.8006C11.8219 14.5497 11.9045 14.1596 12.0972 13.9645C12.2899 13.7694 12.6753 13.6858 12.923 13.7694C13.3635 13.8809 13.391 14.1596 13.2534 15.9153L13.0607 17.9497C14.1893 16.8907 14.7399 16.6956 15.5657 16.6956C16.1988 16.6956 16.9421 16.5563 17.2173 16.3891C17.4651 16.194 17.9055 16.1383 18.1808 16.2497C18.4286 16.3333 18.6212 16.6399 18.5662 16.8907C18.5111 17.3087 18.2359 17.3923 16.7218 17.3087L14.9326 17.2251C12.1523 20.0677 11.5467 20.8759 11.7669 20.8759C11.9871 20.8759 12.6202 20.7087 13.1433 20.4579C13.6663 20.2349 14.2994 19.9005 14.5196 19.7054C14.7399 19.5382 15.1528 19.4825 15.4281 19.5661C15.6758 19.6776 15.8685 19.9841 15.8134 20.2349C15.7859 20.5694 15.4831 20.7366 15.0702 20.7645C14.6848 20.7645 13.4461 21.0989 12.3174 21.5169C10.6658 22.13 9.95008 22.6038 8.73887 23.8021C7.91304 24.6382 7.36249 25.3349 7.50013 25.3349C7.63777 25.3349 10.1978 24.3595 13.1433 23.1612L18.5111 20.9874L21.374 15.4415C17.6578 11.6514 16.5292 10.5645 16.4466 10.5645C16.364 10.5924 15.2354 11.1498 13.8865 11.8465H13.914Z" fill="#7A7A7A"/>
<path d="M77.3378 6.60722C77.6957 6.44001 78.2738 6.18919 78.6592 6.07772C79.0445 5.96624 79.6777 5.85477 80.0906 5.85477C80.8063 5.8269 80.8614 5.91051 80.8614 6.94165C80.8614 8.00066 80.8063 8.05639 79.8979 8.19574C79.2923 8.27934 78.8243 8.55803 78.6592 8.89245C78.494 9.19901 78.3839 9.83999 78.3839 10.2859C78.3839 11.0941 78.4114 11.1219 80.999 11.0105V13.2121L78.3839 13.3514V24.4989H75.6311V13.3514L74.8604 13.2678C74.1997 13.2121 74.1171 13.0728 74.0345 12.1531C73.9795 11.1777 74.0345 11.1219 74.8053 11.1219C75.5761 11.1219 75.6311 11.0383 75.7963 9.78425C75.9064 9.05967 76.1542 8.14 76.3468 7.6941C76.5671 7.27607 77.0075 6.8023 77.3378 6.60722Z" fill="#7A7A7A"/>
<path d="M84.7152 7.83345C84.7152 8.72524 84.6051 9.50557 84.4399 9.58917C84.2748 9.67278 84.1371 9.08753 84.0821 8.11213L84.027 6.52362C82.5405 9.67278 82.4855 9.97933 82.7608 10.9269L83.0636 11.958C85.8438 11.8187 85.9264 11.7629 86.2292 10.8433C86.5045 9.97933 86.477 9.67278 85.8989 8.33508C85.5135 7.49902 85.1006 6.66296 84.963 6.52362C84.7978 6.3564 84.7152 6.83017 84.7152 7.83345Z" fill="#7A7A7A"/>
<path d="M49.6727 11.6793L51.0215 10.8433L52.3429 9.97933L52.4254 11.2613C52.4805 11.958 52.5906 12.5154 52.7282 12.5154C52.8384 12.5154 53.1687 12.3482 53.4715 12.1252C53.7743 11.9301 54.7102 11.54 55.536 11.2892C56.3619 11.0383 57.3253 10.8433 57.6832 10.8433C58.2337 10.8433 58.2888 10.9826 58.2888 13.4908H56.8298C55.7287 13.4908 55.0956 13.658 54.2698 14.2154C53.6917 14.6055 52.976 15.358 52.7282 15.8875C52.4254 16.5006 52.1502 18.0891 51.9575 20.3186C51.7648 22.9383 51.4895 24.3038 50.939 25.8366C50.4985 26.9235 50.0856 27.8432 49.9755 27.8432C49.8379 27.8432 49.7277 24.2202 49.6727 11.6793Z" fill="#7A7A7A"/>
<path fill-rule="evenodd" clip-rule="evenodd" d="M40.4234 10.6482C39.8729 10.8433 39.0195 11.317 38.4965 11.7072C37.946 12.0974 37.2302 13.0449 36.8449 13.7973C36.487 14.5777 36.1292 15.8596 36.0466 16.7236C35.9915 17.5596 36.0741 18.8694 36.2668 19.6498C36.4595 20.4022 36.9274 21.517 37.3404 22.1022C37.7533 22.7153 38.5791 23.4956 39.1847 23.8579C39.8454 24.276 40.9465 24.6104 41.9375 24.694C43.3964 24.8612 43.7818 24.7776 45.2408 24.0809L45.3707 24.0171C46.2292 23.5958 47.0091 23.213 47.1402 23.1333C47.2778 23.0497 47.3604 23.6907 47.2778 24.694C47.1952 25.8645 46.975 26.6727 46.5896 27.2022C46.2593 27.6481 45.6537 28.1776 45.2132 28.4005C44.7728 28.6235 43.8644 28.7907 43.1762 28.7907C42.488 28.7907 41.5245 28.5677 41.029 28.3169C40.5611 28.0661 39.9279 27.4809 39.6527 27.035C39.2398 26.2825 39.0471 26.171 37.8634 26.1989C36.5696 26.1989 36.5696 26.1989 36.7898 26.9514C36.9274 27.3694 37.1752 27.9825 37.3128 28.2891C37.478 28.5956 37.9184 29.1251 38.2488 29.4595C38.6066 29.794 39.46 30.3235 40.1482 30.63C40.9465 30.9923 41.965 31.1874 43.0386 31.1874C43.947 31.2153 45.1582 31.0759 45.7087 30.9366C46.2868 30.7694 47.2503 30.1841 47.8559 29.5989L48.9845 28.5677C48.957 15.9154 48.9019 12.2646 48.8193 12.2646C48.7368 12.2646 48.4339 12.4039 48.1311 12.599C47.6632 12.9055 47.5255 12.8777 47.1677 12.3203C46.9475 11.9859 46.2317 11.4285 45.5711 11.0941C44.938 10.7875 43.7267 10.4531 42.9009 10.3974C42.0751 10.3416 40.9465 10.4531 40.4234 10.6482ZM39.5697 14.494C39.9275 13.9924 40.5882 13.4071 41.0837 13.1842C41.5517 12.9891 42.405 12.8219 42.9556 12.794C43.5336 12.794 44.3319 12.9612 44.7449 13.1842C45.1853 13.4071 45.7909 13.8809 46.1212 14.2432C46.424 14.5776 46.8645 15.3858 47.0296 15.9989C47.2499 16.7235 47.3049 17.6153 47.1673 18.5071C47.0021 19.5661 46.6993 20.1792 45.9561 20.9874C45.0477 21.9628 44.7999 22.0743 43.3134 22.1858C41.9095 22.2972 41.5241 22.2136 40.7258 21.6562C40.2028 21.3218 39.5422 20.5694 39.2669 20.0399C38.854 19.2874 38.7714 18.6464 38.8264 17.253C38.8815 15.9153 39.0742 15.1907 39.5697 14.494Z" fill="#7A7A7A"/>
<path fill-rule="evenodd" clip-rule="evenodd" d="M60.6837 12.4875C61.1241 12.0695 61.9224 11.54 62.4455 11.317C62.9685 11.0662 64.0696 10.8711 64.8403 10.8711C65.6386 10.8711 66.7673 11.0662 67.3178 11.2892C67.8959 11.54 68.5841 11.958 68.8318 12.2088C69.2998 12.6547 69.3273 12.6547 69.465 12.181C69.5476 11.9301 69.6577 11.54 69.7127 11.3449C69.7678 11.1219 70.2082 11.0383 72.0801 11.1498V24.5268H70.8413C69.8503 24.5268 69.6026 24.4153 69.6026 24.0251C69.6026 23.7743 69.5476 23.4399 69.465 23.3284C69.3824 23.217 68.8594 23.4399 68.2813 23.8301C67.7307 24.1924 66.6296 24.6104 65.8864 24.694C65.033 24.8055 63.987 24.7497 63.1336 24.4989C62.1977 24.2481 61.3994 23.7465 60.6286 22.994C59.9129 22.2694 59.3348 21.3219 59.0045 20.3465C58.6467 19.2596 58.5641 18.3121 58.6467 17.1416C58.7292 16.2219 59.032 14.9678 59.3624 14.3547C59.6652 13.7416 60.2708 12.9055 60.6837 12.4875ZM63.5737 13.6858C62.8029 14.076 62.1698 14.6891 61.8394 15.3022C61.5366 15.8874 61.3439 16.8907 61.3439 17.8104C61.3439 18.953 61.4816 19.594 61.9496 20.2907C62.3074 20.8202 62.8855 21.489 63.2709 21.7677C63.6838 22.1021 64.4546 22.3251 65.1978 22.3251C65.9686 22.353 66.7944 22.1858 67.4 21.8235C67.9781 21.489 68.6112 20.7923 68.9966 20.0399C69.3269 19.3431 69.6022 18.3399 69.6022 17.8104C69.6022 17.2809 69.3269 16.2776 68.9966 15.6087C68.6387 14.912 68.0607 14.1317 67.6753 13.853C67.2899 13.5743 66.4916 13.2678 65.886 13.1842C65.0602 13.0727 64.4821 13.212 63.5737 13.6858Z" fill="#7A7A7A"/>
<path d="M83.2287 12.7105C83.0911 12.8219 83.0085 15.5252 83.036 18.7022L83.0911 24.5268H85.8438L85.7062 12.6826C83.972 12.5433 83.3664 12.599 83.2287 12.7105Z" fill="#7A7A7A"/>
</svg>
