<svg xmlns="http://www.w3.org/2000/svg" width="32" height="32" fill="none"><path fill="#FF5E00" d="M10.847 26.763c-2.38-2.199-4.023-5.573-3.832-8.561.16-2.496.974-4.24 3.492-5.904 2.986-1.971 7.117-1.773 9.617-.617 2.926 1.347 4.1 3.192 3.883 5.001-.247 2.059-3.655 1.381-5.28 4.696-1.334 2.72 1.383 6.737-.383 7.652s-4.54.315-7.497-2.267Z"/><path fill="#292929" d="M13.495 27.872c-2.471-1.96-4.358-5.16-4.468-8.153-.092-2.499.511-4.316 2.739-6.209 2.641-2.247 6.58-2.442 9.063-1.536 2.907 1.06 4.2 2.783 4.17 4.605-.034 2.07-3.333 1.723-4.555 5.177-1.002 2.835 1.967 6.571.38 7.651-1.586 1.08-4.272.75-7.329-1.535ZM17.008 9.886c2.248 0 4.07-1.766 4.07-3.943 0-2.178-1.822-3.943-4.07-3.943-2.247 0-4.069 1.765-4.069 3.943 0 2.177 1.822 3.943 4.07 3.943Z"/></svg>