<svg xmlns="http://www.w3.org/2000/svg" width="90" height="24" fill="none"><g fill="#7A7A7A" fill-rule="evenodd" clip-rule="evenodd"><path d="M4.306.042c-1.01.126-2.023.6-2.64 1.236-.394.406-.491.541-.738 1.025-.462.907-.44.701-.42 3.933l.018 2.88.238.56c.707 1.661 1.599 2.671 3.371 3.817.283.183.528.345.543.361.016.016.21.14.43.274.667.408 1.19.854 1.43 1.22.505.77.619 1.178.625 2.236.005.918-.094 1.314-.41 1.627-.374.374-.365.372-2.917.403l-2.303.028-.169.183a.927.927 0 0 0-.204.353c-.02.093-.035.857-.035 1.697 0 1.417.008 1.543.115 1.757.064.127.181.26.261.294.103.046.963.064 2.994.064 2.587 0 2.899-.01 3.396-.108 1.023-.2 1.666-.511 2.291-1.11.735-.704 1.105-1.466 1.411-2.909.089-.417.106-.75.103-2.05-.002-1.35-.018-1.625-.123-2.132-.174-.834-.282-1.186-.507-1.65a5.395 5.395 0 0 1-.198-.436c0-.015-.171-.268-.381-.563-.366-.515-1.302-1.477-1.856-1.907A100.14 100.14 0 0 0 6.4 9.546c-.359-.248-.803-.632-1.016-.879-.527-.608-.65-1.01-.647-2.106.003-1.334.241-1.87.93-2.092.232-.075.605-.089 2.392-.089 1.83 0 2.143-.012 2.31-.089.379-.174.383-.2.383-2.154V.38L10.56.193l-.195-.189L7.42.013C5.802.017 4.4.03 4.306.043Zm14.815.02c-1.573.261-2.639 1-3.315 2.3a5.919 5.919 0 0 0-.324.744 24.29 24.29 0 0 1-.145.444c-.2.582-.354 1.762-.587 4.514-.096 1.136-.095 6.751.001 7.866.187 2.157.323 3.403.41 3.767.226.933.348 1.295.617 1.832.169.338.353.662.408.72.056.06.175.2.264.315.367.468 1.365 1.049 2.098 1.22.841.197 1.003.206 3.466.206h2.482l.174-.156a.735.735 0 0 0 .21-.347c.02-.104.028-.93.018-1.836l-.017-1.647-.188-.181-.187-.181-1.962-.028c-1.951-.027-1.963-.028-2.207-.163-.241-.134-.503-.468-.632-.806-.357-.938-.677-6.067-.53-8.503.196-3.223.342-4.416.61-4.962.17-.35.509-.66.808-.74.132-.036.92-.06 1.995-.06 1.661 0 1.789-.007 1.96-.108.352-.207.361-.264.361-2.107 0-1.371-.015-1.696-.085-1.828-.184-.344-.094-.333-2.893-.325-1.404.004-2.668.026-2.81.05Zm9.443.104-.187.162-.016 11.54c-.009 6.347-.002 11.595.014 11.661.017.066.11.197.207.29l.176.171h3.713l.201-.194.202-.195.015-4.595c.018-5.248-.038-4.768.556-4.81.189-.013.403-.008.475.011.323.085.318.076 1.132 2.527.197.594.443 1.329.546 1.634.103.304.283.853.4 1.218.117.366.26.79.316.942.057.152.181.514.276.803.7 2.14.773 2.335.94 2.496l.169.163h3.986l.152-.135c.237-.213.226-.472-.058-1.333-.11-.335-.247-.734-.303-.886-.057-.152-.2-.576-.319-.942-.118-.365-.3-.914-.402-1.218-.103-.305-.348-1.04-.545-1.634-.197-.595-.48-1.442-.628-1.884-.15-.442-.367-1.102-.485-1.468-.117-.366-.26-.79-.318-.942a29.638 29.638 0 0 1-.312-.917l-.208-.64.127-.385c.07-.211.248-.746.397-1.188.148-.441.365-1.102.482-1.467.117-.366.26-.79.316-.942.057-.152.2-.576.317-.942.118-.365.335-1.026.484-1.468.148-.442.393-1.177.543-1.634.15-.457.358-1.08.461-1.385.672-1.986.706-2.157.484-2.43l-.12-.146h-4.069l-.156.153c-.155.15-.307.554-.904 2.395-.114.35-.253.762-.31.914a170.24 170.24 0 0 0-.984 2.964c-.094.29-.19.576-.215.637-.025.061-.13.373-.234.693-.22.682-.621 1.842-.641 1.858-.135.107-.446.191-.704.191-.28 0-.344-.021-.49-.162l-.167-.162V.4l-.193-.198-.193-.198H28.75l-.187.162Zm16.578-.12c-.133.05-.228.16-.319.37-.072.168-.084 1.704-.084 11.531 0 8.58.017 11.391.068 11.557.04.13.142.274.25.353l.18.133h1.82c1.74 0 1.827-.005 1.984-.113a.64.64 0 0 0 .224-.318c.04-.138.059-3.958.059-11.605 0-12.303.017-11.65-.293-11.86-.117-.079-.36-.09-1.969-.085-1.01.002-1.874.019-1.92.036ZM56.374.041c-1.314.206-2.302.73-2.905 1.54a18.57 18.57 0 0 1-.294.39c-.081.096-.412.799-.412.874a.21.21 0 0 1-.05.125c-.026.029-.094.24-.15.468-.056.228-.123.486-.15.572-.027.087-.079.601-.116 1.144-.07 1.004-.006 2.644.116 3.025.029.089.097.36.153.601.132.577.607 1.757.77 1.914.016.016.078.115.138.222.159.28.842 1.094 1.163 1.385.59.535 1.199.975 2.441 1.763.708.449.778.5 1.108.812.757.717 1.05 1.478 1.052 2.738.003 1.088-.276 1.703-.864 1.902-.132.045-.924.076-2.472.096l-2.277.029-.188.18-.187.182-.017 1.717c-.018 1.896.001 2.02.337 2.189.251.125 5.663.118 6.323-.009 1.131-.217 1.805-.56 2.47-1.255.419-.438.438-.462.57-.705.355-.659.463-.938.624-1.607.21-.87.236-1.15.236-2.52 0-.901-.026-1.52-.074-1.773-.17-.879-.362-1.588-.505-1.85a.75.75 0 0 1-.077-.183c0-.086-.573-.994-.836-1.325-.315-.398-1.058-1.128-1.487-1.461a8.083 8.083 0 0 1-.314-.252 14.861 14.861 0 0 0-.516-.375c-.268-.19-.513-.364-.544-.388a17.342 17.342 0 0 0-.43-.286 11.304 11.304 0 0 1-1.2-.887c-.275-.22-.553-.576-.788-1.007l-.161-.295V6.569c0-1.102.007-1.177.13-1.413.168-.319.342-.508.59-.64.181-.098.372-.109 2.46-.135 1.606-.02 2.31-.048 2.422-.096a.741.741 0 0 0 .272-.25c.108-.17.114-.28.115-1.86 0-1.77-.006-1.816-.274-2.046l-.145-.125-2.957.008c-1.626.004-3.021.017-3.1.03Zm10.488.12a.697.697 0 0 0-.202.414c-.06.388.016 14.29.083 15.216.107 1.466.295 3.136.403 3.573.03.122.096.396.146.61.15.633.24.9.493 1.467.602 1.347 1.52 2.16 2.782 2.464.523.126 5.8.125 6.334-.001.741-.175 1.281-.474 1.796-.993.462-.466.506-.527.834-1.157.678-1.298.965-2.73 1.208-6.019.065-.883.138-14.783.08-15.16a.697.697 0 0 0-.205-.417L80.449 0l-1.912.016c-2.122.018-2.019-.001-2.192.4-.072.167-.084 1.17-.086 7.134-.002 6.448-.03 7.997-.165 9.073-.296 2.37-.56 2.918-1.471 3.055-.54.082-1.883.034-2.148-.076-.414-.171-.723-.724-.893-1.594-.323-1.66-.36-2.733-.362-10.458C71.217.014 71.233.376 70.9.124c-.154-.117-.196-.12-2.017-.12h-1.86l-.162.157ZM85.297.117a.71.71 0 0 0-.208.318c-.083.29-.082 22.838.002 23.128a.52.52 0 0 0 .243.318c.17.1.301.108 1.983.108h1.8l.191-.141.192-.141V.286l-.157-.141-.157-.14h-1.87c-1.797 0-1.876.004-2.019.113ZM21.786 9.344c-.935.244-1.662.932-2.006 1.899-.052.147-.086.44-.085.747 0 .822.207 1.334.769 1.905.45.457.912.7 1.573.826.448.086.514.086.983 0 1.014-.189 1.79-.805 2.154-1.71.145-.36.162-.47.158-1.014-.004-.477-.03-.672-.124-.902-.175-.433-.379-.744-.664-1.016-.338-.322-.376-.349-.702-.508-.612-.3-1.433-.39-2.056-.227Z"/><path d="M21.786 9.344c-.955.25-1.767 1.045-2.03 1.989-.033.121-.06.433-.06.692 0 .813.23 1.35.822 1.91.496.472.855.658 1.506.783.465.09.526.09.997.002 1.013-.188 1.79-.804 2.154-1.71.145-.36.162-.47.157-1.013-.003-.477-.03-.672-.123-.902-.176-.433-.38-.744-.665-1.016-.338-.322-.375-.349-.701-.508-.613-.3-1.434-.39-2.057-.227Z"/></g></svg>