<svg xmlns="http://www.w3.org/2000/svg" width="126" height="24" fill="none"><g fill="#7A7A7A" clip-path="url(#a)"><path d="m18.747 6.2-.171-.823-.1-.473-.683-3.325-.17-.821a.715.715 0 0 0-.713-.55l-3.108.148a.49.49 0 0 0-.474.607l1.319 6.397c.066.32.375.507.683.416l2.966-.841a.643.643 0 0 0 .45-.736ZM14.225 20.364l.787.278.456.162 3.18 1.128.787.277a.709.709 0 0 0 .835-.33l1.48-2.757a.494.494 0 0 0-.27-.721l-6.117-2.169a.538.538 0 0 0-.707.373l-.82 2.99c-.09.32.085.664.389.77ZM10.585 3.83l-.788-.268-.455-.158L6.148 2.31l-.788-.267a.711.711 0 0 0-.83.339L3.078 5.158c-.152.291-.028.611.28.716l1.708.583 4.437 1.52a.537.537 0 0 0 .702-.383l.783-3a.646.646 0 0 0-.403-.764ZM6.063 17.799l.166.822.095.473.678 3.325.166.822c.067.32.385.563.712.549l3.108-.143a.49.49 0 0 0 .475-.607l-.366-1.777-.944-4.62a.542.542 0 0 0-.683-.42l-2.97.835a.657.657 0 0 0-.437.741ZM4.492 9.696l-4.19 3.612a.736.736 0 0 0-.133.898l1.633 2.666c.17.282.512.335.754.124l4.92-4.252a.542.542 0 0 0 .034-.802L5.346 9.735a.626.626 0 0 0-.854-.039ZM20.265 14.698l.997-.86 2.557-2.212.632-.544c.246-.21.303-.612.132-.894l-1.632-2.67a.485.485 0 0 0-.755-.124l-4.92 4.252a.542.542 0 0 0-.034.802l2.164 2.207a.633.633 0 0 0 .86.043ZM42.136 14.36l2.225 1.303c-1.205 2.356-3.383 3.78-6.277 3.78-2.316 0-4.195-.818-5.652-2.451-1.462-1.634-2.178-3.64-2.178-6.044 0-2.403.716-4.41 2.178-6.044 1.462-1.633 3.336-2.45 5.652-2.45 2.894 0 5.072 1.447 6.277 3.803L42.136 7.56c-.788-1.773-2.13-2.661-4.052-2.661-1.576 0-2.829.583-3.754 1.724-.925 1.142-1.39 2.59-1.39 4.314 0 1.725.465 3.173 1.39 4.315.925 1.141 2.178 1.724 3.754 1.748 1.921-.005 3.264-.889 4.052-2.642ZM48.343 14.01c.256 2.146 1.39 3.173 3.616 3.173 1.622 0 2.757-.583 3.43-1.725l1.875 1.118c-.997 1.7-2.99 2.871-5.305 2.871-1.875 0-3.36-.559-4.447-1.7-1.086-1.142-1.623-2.705-1.623-4.663 0-1.868.556-3.407 1.647-4.596 1.11-1.19 2.596-1.797 4.427-1.797 1.737 0 3.127.56 4.172 1.701 1.043 1.118 1.599 2.613 1.67 4.458v1.16h-9.462Zm7.16-2.26c-.299-1.772-1.689-2.87-3.544-2.87-1.785 0-3.151 1.027-3.545 2.87h7.09ZM71.258 19.237h-2.525v-7.534c0-2.078-.996-2.824-2.13-2.824-2.549 0-3.825 1.749-3.825 5.27v5.083h-2.525V6.897h2.525l.508 1.237c1.02-.955 2.178-1.448 3.45-1.448 3.013 0 4.517 1.61 4.517 4.85v7.701h.005ZM85.299 17.603c0 4.176-2.25 6.044-5.86 6.044-2.62 0-4.542-.583-5.77-1.773l1.622-1.91c.996.955 2.363 1.447 4.1 1.447 2.316 0 3.383-1.19 3.383-3.803-.531 1.142-1.76 1.935-3.45 1.935-1.713 0-3.08-.63-4.123-1.887-1.02-1.285-1.528-2.8-1.528-4.572 0-1.701.531-3.197 1.599-4.477 1.068-1.285 2.477-1.91 4.237-1.91 1.087-.001 2.065.372 2.919 1.14l.346-.93H85.3v10.696Zm-3.27-1.538c.627-.817.926-1.797.926-2.986 0-1.142-.304-2.098-.926-2.915-.626-.816-1.461-1.213-2.524-1.213-2.316 0-3.312 1.772-3.312 4.128 0 1.142.256 2.121.787 2.962.532.817 1.39 1.237 2.525 1.237 1.067 0 1.898-.396 2.524-1.213ZM97.969 19.237h-1.856c-.555 0-.835-.396-.835-1.166-.925.932-1.69 1.376-3.36 1.376-2.595 0-4.517-1.261-4.517-3.803.095-2.12.949-3.148 2.572-3.569 1.134-.348 1.945-.396 3.407-.468 1.229-.047 1.832-.444 1.832-1.19 0-.84-.973-1.61-2.364-1.61-1.343 0-2.363.493-3.056 1.472l-1.646-1.447c1.044-1.4 2.78-2.146 4.702-2.146 2.895 0 4.727 1.61 4.727 4.573v7.066c0 .324.137.492.394.492v.42Zm-3.336-2.776c.44-.63.673-1.562.673-2.752v-.697c-.256.349-.925.511-1.319.583-.185.024-.484.024-.901.048-.394.023-.627.023-.65.023-1.67.072-2.501.746-2.501 1.983 0 .817.579 1.773 1.993 1.773 1.362-.005 2.263-.33 2.705-.96ZM111.478 17.603c0 4.176-2.249 6.044-5.86 6.044-2.62 0-4.541-.583-5.77-1.773l1.622-1.91c.997.955 2.364 1.447 4.1 1.447 2.316 0 3.384-1.19 3.384-3.803-.532 1.142-1.761 1.935-3.45 1.935-1.713 0-3.08-.63-4.124-1.887-1.02-1.285-1.528-2.8-1.528-4.572 0-1.701.532-3.197 1.599-4.477 1.068-1.285 2.477-1.91 4.238-1.91 1.087-.001 2.064.372 2.918 1.14l.347-.93h2.524v10.696Zm-3.269-1.538c.626-.817.925-1.797.925-2.986 0-1.142-.304-2.098-.925-2.915-.627-.816-1.462-1.213-2.525-1.213-2.315 0-3.312 1.772-3.312 4.128 0 1.142.256 2.121.788 2.962.531.817 1.39 1.237 2.524 1.237 1.068 0 1.898-.396 2.525-1.213ZM116.295 14.01c.256 2.146 1.39 3.173 3.615 3.173 1.623 0 2.757-.583 3.431-1.725l1.875 1.118c-.997 1.7-2.99 2.871-5.306 2.871-1.874 0-3.359-.559-4.446-1.7-1.086-1.142-1.623-2.705-1.623-4.663 0-1.868.555-3.407 1.647-4.596 1.11-1.19 2.596-1.797 4.427-1.797 1.737 0 3.127.56 4.171 1.701 1.044 1.118 1.599 2.613 1.671 4.458v1.16h-9.462Zm7.16-2.26c-.299-1.772-1.689-2.87-3.545-2.87-1.784 0-3.15 1.027-3.544 2.87h7.089Z"/></g><defs><clipPath id="a"><path fill="#fff" d="M0 0h126v24H0z"/></clipPath></defs></svg>