<svg xmlns="http://www.w3.org/2000/svg" width="106" height="40" fill="none"><g fill="#7A7A7A" clip-path="url(#a)"><path d="M17.333 10.709c.22-.121.426 0 .573.225-.117 1.732-1.47 3.133-2.837 4.067-.118-1.627.794-3.359 2.264-4.292ZM27.537 10.934c-.118 1.507-1.132 2.32-2.264 3.133 0-1.386.588-2.666 1.69-3.358.221-.121.589 0 .589.225h-.015ZM17.245 21.477c-.22 2.666-1.03 5.332-3.382 6.838-.912.12-1.706-.226-1.808-1.054.117-2.907 3.058-4.64 5.204-5.799l-.014.015Z"/><path fill-rule="evenodd" d="M24.67 2.47c-.38 0-.776-.017-1.177-.034-1.99-.085-4.118-.177-5.146 1.766 0 .693 0 1.4.677 1.747.963 0 1.797-.456 2.635-.914 1.233-.674 2.476-1.354 4.158-.592 5.087.452 10.071 4.639 11.542 9.64.911 2.906 1.352 6.475.44 9.397.013-.222.03-.451.045-.686.139-1.986.3-4.3-1.514-5.338-.677-.226-1.47 0-1.912.572-.165 1.071.368 1.87.905 2.677.566.849 1.137 1.706.904 2.896a14.993 14.993 0 0 1-2.504 7.293 14.505 14.505 0 0 1-5.76 4.997c-3.058 1.28-6.675 2.108-10.189 1.28 1.706.346 3.97 0 5.205-1.627.118-.693-.118-1.506-.794-1.852-.89 0-1.704.419-2.528.843-1.164.6-2.348 1.21-3.794.663-4.529-.452-8.822-3.359-11.101-7.651a17.397 17.397 0 0 1-1.03-12.2c-.338 2.109-.588 4.76 1.03 6.386.338.452 1.029.452 1.588.347.676-.452.911-1.506.44-2.109-1.47-1.627-1.69-3.946-1.25-6.145.677-4.639 4.412-9.036 8.823-10.543 2.94-1.385 7.043-1.506 10.307-.813Zm-5.293 7.771c.44 3.013-2.059 5.332-4.411 6.733 0 .451.44.692.911.813 1.502.115 2.007-.975 2.5-2.04.472-1.02.933-2.017 2.25-1.906.504.909-.06 1.567-.63 2.235-.595.694-1.197 1.399-.62 2.404a33.024 33.024 0 0 0 4.19-2.787c-.22-2.56.559-4.97 2.603-6.385.676-.347 1.69-.347 2.264.12.794.602.676 1.732.588 2.56-.49 1.34-1.394 2.137-2.38 3.005-.377.332-.766.674-1.149 1.062.123 1.226.886 1.122 1.715 1.01.658-.09 1.359-.184 1.814.376.338.813-.588 1.16-1.132 1.28-.586-.16-1.2-.17-1.79-.029a3.645 3.645 0 0 0-1.592.842c-1.25 1.054-1.588 2.44-1.808 3.826 0 2.108.794 4.292 2.837 5.12 1.353.12 2.5-.12 3.382-1.054.794-.693 1.03-1.627 1.03-2.56-.118-.934-.339-1.958-1.353-2.44-.677-.226-1.588 0-1.912.813-.3.514-.002 1.004.275 1.46.35.576.667 1.1-.275 1.552-1.029-.12-1.47-1.16-1.808-1.958 0-1.054.338-1.958.911-2.665.912-.603 1.912-1.055 3.059-.693 1.587.226 2.381 1.852 2.72 3.358 0 1.506-.22 2.907-1.133 4.067-1.132 1.28-2.602 1.627-4.308 1.747-1.47-.226-2.837-.693-3.97-1.958-1.25-1.852-1.808-4.865-.676-6.958a8.956 8.956 0 0 1 2.94-3.253c.215-.22.014-.438-.2-.671l-.02-.022c-1.024.324-1.94.986-2.854 1.648-.7.506-1.399 1.011-2.145 1.364-.066.405-.127.818-.188 1.234-.489 3.305-1.01 6.837-4.223 8.255a4.317 4.317 0 0 1-3.396-.121c-1.132-.693-1.47-1.958-1.353-3.359.708-2.972 3.183-4.326 5.528-5.609.673-.368 1.335-.73 1.941-1.123.22-.226.22-.452.22-.813-.35-.1-.722.046-1.116.201-.5.196-1.036.406-1.603.145-.819-.168-1.162-.798-1.491-1.403-.352-.645-.688-1.263-1.568-1.263-1.029-.933-1.132-2.56-.793-3.825.22-.347.44-.603.793-.693.11.415.087.902.064 1.384-.048 1.005-.094 1.986 1.069 2.23.588-2.56 1.588-5.572 4.308-6.385.911 0 1.911.226 2.058 1.16l-.073-.03Z" clip-rule="evenodd"/><path fill-rule="evenodd" d="M40.332 19.821c.02-3.39-.806-6.729-2.4-9.7-2.006-3.491-4.944-6.311-8.484-8.118A19.86 19.86 0 0 0 17.718.234 20.095 20.095 0 0 0 7.026 5.482C1.483 10.83-.796 19.64 2.38 27.065a20.288 20.288 0 0 0 6.076 8.193 19.614 19.614 0 0 0 9.215 4.097c8.381 1.16 15.953-2.666 20.144-9.865a20.256 20.256 0 0 0 2.517-9.669Zm-2.62-7.953c2.602 6.145 2.058 14.383-2.265 19.49a19.005 19.005 0 0 1-7.752 5.87 18.55 18.55 0 0 1-9.568 1.208 19.44 19.44 0 0 1-8.215-3.374 20.018 20.018 0 0 1-5.944-6.717A20.154 20.154 0 0 1 2.235 17.9a20.007 20.007 0 0 1 3.791-9.857C10.672 2.365 17.79.06 25.052 1.416c5.323 1.054 10.292 5.452 12.689 10.437l-.03.015ZM56.297 7.881c.147-1.4-.794-1.385-1.662-1.385-2.058 0-2.279.813-2.588 3.042l-.294 2.26c-.338 2.454.294 2.71 1.765 2.71 1.47 0 1.911-.421 2.205-2.334H53.71l.353-2.56h4.91l-.338 2.41c-.661 4.668-1.69 5.512-5.557 5.512-3.382 0-5-.753-4.411-5.212l.5-3.569c.646-4.563 2.69-5.271 5.88-5.271 2.941 0 4.706.647 4.162 4.397h-2.911Zm10.395 6.296c-.206 1.46-.691 2.29-1.412 2.756-.72.467-1.647.573-2.75.573-2.984 0-3.528-1.326-2.999-4.94.53-3.72 1.353-4.97 4.411-4.97 2.838 0 3.529 1.008 2.985 4.97l-.074.527h-4.91c-.236 1.701-.103 2.198.911 2.198.765 0 1.265-.105 1.412-1.13h2.426v.016Zm-2.059-2.816c.206-1.431-.206-1.537-1.029-1.537s-1.176.256-1.397 1.537h2.426ZM70 17.385h-2.47l1.352-9.67h2.47l-.25 1.808h.104c.588-1.536 1.367-1.913 2.529-1.913 1.661 0 2.293 1.01 2 3.103l-.942 6.687h-2.5l.839-5.949c.117-.934-.015-1.4-.824-1.4-1.102 0-1.411.843-1.573 2.033L70 17.385Zm13.88-3.223c-.236 1.506-.588 2.304-1.47 2.801a5.042 5.042 0 0 1-2.75.573c-2.985 0-3.529-1.326-3-4.94.53-3.72 1.353-4.97 4.412-4.97 2.837 0 3.528 1.009 2.984 4.97l-.073.527h-4.911c-.235 1.702-.103 2.199.911 2.199.765 0 1.265-.106 1.412-1.13h2.426l.059-.03Zm-2.044-2.817c.206-1.43-.206-1.536-1.03-1.536-.823 0-1.175.256-1.396 1.537h2.426Zm5.323 6.025h-2.382l1.352-9.67h2.397l-.206 1.416h.103C88.908 8.017 89.6 7.58 90.54 7.58c1.72 0 1.47 1.808 1.368 3.57l-.103.753H89.57l.059-.452c.103-.678.235-1.43-.441-1.43-.677 0-1.03.752-1.133 1.55l-.896 5.799Zm9.66-1.43c-.368 1.325-1.53 1.55-2.397 1.55-1.72 0-2.647-.527-2.308-3.012.323-2.32 1.382-3.042 3.16-3.042.707 0 1.795-.015 1.912 1.084h.118l.22-1.536c.147-.904.147-1.476-.911-1.476-.618 0-1.03.18-1.177 1.054h-2.47c.442-3.012 2.132-2.982 3.897-2.982 2.529 0 3.529.407 2.94 3.735l-.852 6.025h-2.412l.294-1.431h-.088l.074.03Zm-.986-2.561c-.588 0-1.102.15-1.22 1.009-.147 1.054.559 1.054.926 1.054 1.03 0 1.382-.15 1.515-1.175.117-.813-.441-.903-1.22-.903v.015Zm7.382 3.991h-2.559l1.941-13.811h2.47l-1.852 13.811Z" clip-rule="evenodd"/><path d="M57.266 28.16h-4.602l.294-2.516h4.881l.441-3.012h-7.792l-1.941 13.811h7.851l.441-3.012H51.84l.383-2.711h4.69l.353-2.56ZM58.28 36.443h2.5l1.911-13.81h-2.47l-1.94 13.81ZM76.806 35.84c.662-.557 1.103-1.46 1.353-3.268l-.088-.03H75.6c-.162 1.205-.28 1.552-1.397 1.552-.926 0-1.073-.272-.78-2.5.295-2.23.589-2.53 1.471-2.53.5 0 .794.044.941.27.147.226.147.543.059 1.055h2.573c.47-3.344-.956-3.736-3.132-3.736-3.087 0-3.867 1.687-4.308 4.97-.544 3.811-.03 4.94 2.911 4.94 1.338 0 2.206-.165 2.868-.722ZM82.511 29.108h2.897l.235-2.289h-2.867l.294-2.048H80.6l-.441 2.018h-.927l-.323 2.32h.926l-.676 4.774c-.353 2.455.912 2.71 2.5 2.71 2.014 0 2.867-.587 3.234-3.222l.118-.874h-1.735l-.088.512c-.118.648-.177 1.25-.824 1.25-.456 0-.5-.24-.44-.813l.587-4.338ZM85.672 36.458h2.47l.795-5.798c.103-.799.455-1.552 1.132-1.552.676 0 .53.753.44 1.431l-.058.452h2.25l.103-.753c.102-1.762.352-3.57-1.368-3.57-.94 0-1.632.437-2.117 1.537h-.103l.206-1.416H87.04l-1.368 9.67ZM92.745 36.458H95.2l1.103-9.639h-2.456l-1.102 9.64ZM94.215 25.072h2.456l.338-2.41h-2.456l-.338 2.41ZM102.596 35.87c.662-.556 1.103-1.46 1.353-3.267v-.03h-2.471c-.161 1.204-.279 1.55-1.396 1.55-.927 0-1.074-.27-.78-2.5.294-2.229.588-2.53 1.471-2.53.5 0 .794.046.941.271.147.226.147.543.059 1.055h2.47c.47-3.344-.956-3.736-3.132-3.736-3.088 0-3.867 1.687-4.308 4.97-.544 3.811-.03 4.94 2.911 4.94 1.47 0 2.22-.165 2.882-.722Z"/><path fill-rule="evenodd" d="M69.896 33.22c-.206 1.46-.691 2.29-1.412 2.756-.72.467-1.646.572-2.75.572-2.984 0-3.528-1.325-2.998-4.94.529-3.72 1.352-4.97 4.41-4.97 2.838 0 3.53 1.01 2.985 4.97l-.073.528h-4.911c-.235 1.701-.103 2.198.911 2.198.765 0 1.265-.105 1.412-1.129l2.426.015Zm-3.088-4.353c.824 0 1.235.106 1.03 1.537h-2.426c.22-1.28.573-1.537 1.396-1.537Z" clip-rule="evenodd"/></g><defs><clipPath id="a"><path fill="#fff" d="M.5 0h105v40H.5z"/></clipPath></defs></svg>