<svg xmlns="http://www.w3.org/2000/svg" width="95" height="40" fill="none"><g fill="#7A7A7A"><path d="M93.816 7.04c0 4.226-.024 6.423-.07 6.43-.038.007-2.961-2.89-6.495-6.437L80.826.585l6.495.018 6.495.018v6.42ZM69.548.608c1.421.34 2.268.782 3.115 1.624.973.968 1.39 2.051 1.472 3.82l.044.961-2.438-.018-2.438-.019-.035-.698c-.03-.6-.059-.73-.205-.926-.35-.466-1.147-.684-2.274-.624-.855.046-1.286.188-1.576.519-.208.236-.218.274-.192.724.048.865.293.991 2.746 1.424 1.988.35 2.731.546 3.527.925.918.438 1.719 1.15 2.17 1.932.513.889.755 2.196.628 3.401-.15 1.436-.608 2.481-1.47 3.351-1.191 1.203-2.77 1.773-5.135 1.854-3.91.134-6.42-1.236-7.245-3.953-.102-.338-.147-.74-.173-1.556l-.036-1.1h4.836v.589c0 .662.066.896.331 1.174.403.422 1.551.631 2.628.479.874-.124 1.241-.406 1.338-1.026.068-.438-.09-.797-.462-1.046-.27-.18-.49-.242-1.431-.406-2.96-.513-3.504-.652-4.43-1.13-1.43-.739-2.348-1.89-2.68-3.362-.147-.652-.148-1.952-.003-2.656.432-2.088 1.83-3.52 4.045-4.141.988-.277 1.642-.342 3.178-.316 1.232.022 1.534.05 2.165.2ZM58.863 2.751c0 1.685-.02 2.165-.088 2.166l-4.033.018-3.945.016-.02 1.239-.019 1.239 3.441.018 3.442.018.018 2.147.019 2.147-3.441.018-3.44.018-.02 1.24-.019 1.24h8.105v4.399h-12.92V.586h12.92v2.165ZM36.655 7.43v6.844H44.686v4.4h-12.85V.586h4.819V7.43Z"/><path fill-rule="evenodd" d="m25.095.673 1.189 3.65c.638 1.958 1.265 3.875 1.394 4.26a302 302 0 0 1 .654 1.99l1.508 4.62c.599 1.832 1.088 3.364 1.088 3.405 0 .053-.778.076-2.582.076h-2.582l-.208-.681-.197-.644-.12-.391-.03-.103-.203-.66-.342-1.118h-4.932l-.478 1.537c-.263.845-.51 1.654-.55 1.798l-.073.262h-2.406c-1.324 0-2.407-.025-2.407-.056 0-.06.846-2.684 1.874-5.815.737-2.243 1.725-5.267 3.01-9.214l.95-2.916c.041-.127 5.401-.127 5.443 0ZM21.1 10.555c.019-.086.264-.903.545-1.815.282-.913.532-1.636.557-1.607.026.03.275.807.554 1.729.28.922.523 1.715.541 1.763.026.068-.222.088-1.1.088h-1.132l.035-.158Z" clip-rule="evenodd"/><path d="M8.964.482c1.578.237 2.816.763 3.68 1.563 1.11 1.026 1.554 2.113 1.64 4.006l.044.96h-4.82l-.035-.663c-.03-.56-.063-.704-.215-.934-.34-.514-1.144-.75-2.319-.684-.822.047-1.265.183-1.544.473-.185.194-.202.253-.202.723 0 .486.012.524.224.727.124.118.339.262.478.32.14.059 1.076.251 2.08.429 1.066.188 2.134.42 2.563.558 1.886.604 3.116 1.819 3.567 3.522.207.78.223 2.14.035 2.967-.254 1.121-.763 2.029-1.533 2.73-.813.743-1.8 1.218-3.127 1.506-.629.136-.93.157-2.261.157-1.334 0-1.633-.02-2.265-.158-1.373-.297-2.481-.833-3.218-1.555C.665 16.08.2 14.855.2 13.081v-.832h4.819v.589c0 .662.066.896.331 1.174.402.421 1.551.631 2.621.48.878-.125 1.24-.378 1.345-.94.118-.63-.23-1.145-.904-1.337-.195-.056-1.11-.232-2.032-.391-2.316-.4-3.247-.723-4.25-1.473C1.337 9.756.78 8.973.446 7.976.171 7.162.121 5.826.328 4.827c.164-.796.55-1.639 1.02-2.23.867-1.093 2.43-1.88 4.254-2.141C6.317.353 8.2.368 8.964.482ZM5.508 24.82v3.421h4.888v-6.843H15.285v18.018H10.396V32.57H5.508v6.844H.688V21.398h4.82v3.422Z"/><path fill-rule="evenodd" d="M28.504 24.82c.608 1.862 1.4 4.282 1.76 5.377.36 1.095 1.1 3.357 1.644 5.028.545 1.671 1.08 3.297 1.19 3.614l.2.576h-5.225l-.245-.785c-.135-.432-.378-1.234-.541-1.781l-.297-.995h-2.5c-1.954 0-2.501.019-2.502.087 0 .048-.23.841-.513 1.763l-.512 1.676-2.42.019c-1.331.01-2.42.005-2.42-.01 0-.016.122-.401.271-.857.15-.455.717-2.195 1.262-3.866.545-1.67 1.285-3.933 1.645-5.028.36-1.095 1.114-3.397 1.677-5.116L22 21.396l2.698.018 2.697.018 1.108 3.388Zm-4.691 5.208c.234-.771.474-1.567.533-1.77.059-.2.13-.366.157-.366.028 0 .137.307.243.681.106.375.346 1.172.533 1.773.188.6.341 1.11.341 1.134 0 .024-.502.044-1.117.044-.614 0-1.117-.021-1.117-.047s.192-.678.427-1.45Z" clip-rule="evenodd"/><path d="M41.788 21.301c2.256.416 3.828 1.513 4.711 3.291.463.932.7 2.03.7 3.248v.68h-4.798l-.041-.68c-.051-.838-.13-1.117-.421-1.499-.449-.588-1.022-.823-2.007-.823-.874 0-1.448.19-1.88.62-.593.595-.594.6-.594 4.268 0 2.87.012 3.213.124 3.535.17.484.533.887 1.012 1.123.377.184.454.196 1.308.196.853-.001.932-.013 1.309-.197a2.035 2.035 0 0 0 1-1.101c.061-.17.13-.615.15-.99l.04-.68H47.2v.646c-.003 3.35-1.729 5.658-4.822 6.45-.646.165-.899.19-2.197.218-1.627.036-2.311-.042-3.295-.372-1.128-.379-1.936-.886-2.656-1.667-.758-.824-1.245-1.825-1.494-3.075-.14-.707-.14-7.463 0-8.171.565-2.846 2.606-4.679 5.63-5.056.345-.043.722-.09.838-.107.383-.051 2.017.039 2.584.143ZM53.504 24.204c-.014 2.429-.002 2.794.084 2.707.123-.126 1.694-2.066 3.262-4.03l1.185-1.483h6.004l-.58.715c-.32.393-.663.81-.765.925-.2.23-.662.78-1.995 2.375a423.007 423.007 0 0 1-1.522 1.816c-.192.23-.69.818-1.105 1.308-.48.568-.736.922-.703.978.028.049.34.497.692.996.353.5 1.232 1.756 1.955 2.794a786.528 786.528 0 0 0 1.954 2.793c1.358 1.924 2.27 3.242 2.27 3.279 0 .02-1.312.037-2.916.037l-2.915-.002-1.188-1.725c-.652-.948-1.456-2.118-1.785-2.6-1.03-1.509-1.232-1.782-1.312-1.782-.042 0-.204.169-.36.375l-.282.376.003 2.488c.002 1.368.003 2.574.002 2.68l-.002.191h-4.819V21.398h4.854l-.016 2.806ZM78.138 23.562v2.165H70.037v2.514h6.92l-.02 2.148-.022 2.147-3.439.018-3.44.019v2.512H78.138v4.33h-12.92V21.398h12.92v2.164Z"/><path fill-rule="evenodd" d="M88.648 21.47c2.964.425 4.634 2.107 4.99 5.024.195 1.592-.062 3.324-.664 4.468-.427.812-.865 1.274-1.892 1.996-.085.06.17.598 1.508 3.184.885 1.712 1.61 3.148 1.61 3.193 0 .06-.718.08-2.745.08H88.71l-.764-1.55a763.94 763.94 0 0 0-1.393-2.812l-.629-1.26-.75-.02-.751-.02v5.662h-4.819V21.398h4.278c2.483.002 4.482.032 4.766.072Zm-4.225 7.968V25.727l1.589.003c1.994.004 2.201.063 2.554.73.127.24.148.399.148 1.118 0 1.01-.124 1.374-.564 1.648-.264.164-.312.168-1.999.19l-1.728.022Z" clip-rule="evenodd"/></g></svg>