<svg xmlns="http://www.w3.org/2000/svg" width="142" height="28" fill="none"><g fill="#7A7A7A"><path d="M69.317.577c.35-.17 1.07-.373 1.571-.441C71.39.068 74.816.034 85.18.068l1.003.51c.552.271 1.27.78 1.588 1.12.318.357.769 1.002 1.42 2.275l.051 8.15c.05 8.015.05 8.151-.284 8.61-.2.271-.618.543-.97.628a1.934 1.934 0 0 1-1.203-.034c-.318-.119-.736-.425-.92-.68-.334-.475-.35-.695-.517-15.91l-.418-.288a3.436 3.436 0 0 0-.753-.425c-.183-.05-3.092-.102-6.468-.119-5.165-.017-6.235.017-6.653.238a1.315 1.315 0 0 0-.668.798c-.1.357-.168 3.396-.168 7.947.017 7.165 0 7.403-.334 7.845-.184.271-.585.56-.869.662-.385.119-.752.119-1.22-.017-.401-.102-.803-.357-1.003-.645-.318-.442-.334-.765-.385-7.845-.033-5.247 0-7.658.15-8.32.101-.51.369-1.274.57-1.698a5.98 5.98 0 0 1 .952-1.359c.317-.322.87-.747 1.237-.934ZM91.849.628c.234-.254.601-.492.802-.526.217-.034.418-.085.468-.102.05 0 .368.068.719.153.418.119.718.34.952.713.318.543.335.866.335 8.032 0 6.86.016 7.505.284 7.878.167.238.568.527.886.662.367.153 1.52.255 3.092.306 1.387.051 4.212.034 6.302-.05l.033-.002c3.694-.135 3.763-.137 4.597-.984l.1-15.536.551-.544c.485-.492.636-.56 1.421-.543.752.017.936.085 1.789 1.087l-.084 16.385-.468.934c-.267.51-.752 1.223-1.086 1.58-.335.339-.986.797-1.455 1.018-.819.374-.936.374-15.544.374l-.92-.442a8.137 8.137 0 0 1-1.57-1.019c-.352-.322-.87-1.07-1.69-2.784l-.05-7.556c-.033-4.16-.016-7.777.034-8.066.05-.272.268-.713.502-.968ZM119.495.628c.435-.204 1.087-.424 1.454-.492.368-.068 4.045-.102 15.662-.068l.485.594c.351.425.485.781.485 1.223 0 .356-.134.849-.284 1.086-.168.255-.502.56-.753.68-.384.186-1.922.237-7.772.237-6.251 0-7.371.034-7.689.255-.217.136-.501.611-.635 1.053-.201.662-.251 1.817-.251 5.858 0 4.483.034 5.128.284 5.654.184.357.535.714.836.85.468.22 1.789.254 15.094.254l.585.594c.451.459.585.73.585 1.189 0 .323-.134.815-.284 1.104-.168.271-.485.594-.719.679-.268.119-3.193.17-16.297.085l-.92-.459c-.501-.238-1.237-.78-1.604-1.188-.385-.39-.836-1.104-1.003-1.58-.284-.78-.318-1.392-.318-13.753l.518-1.104c.285-.611.786-1.392 1.12-1.732.335-.357.97-.815 1.421-1.019ZM14.977 1.274c.635-.272 1.704-.612 2.34-.782.635-.17 1.654-.322 2.256-.322.82-.017 1.27.068 1.839.356.602.306.802.527.97 1.07.166.51.183.85.05 1.392a5.45 5.45 0 0 1-.586 1.359c-.217.356-.752 1.002-1.203 1.426-.451.425-1.304 1.019-1.906 1.308-.601.305-1.42.594-1.838.662-.569.085-.87.034-1.204-.17-.267-.153-.468-.407-.468-.543 0-.136.134-.527.301-.85.15-.339.335-.594.418-.594.067 0 .234.12.368.255.2.204.35.22.802.051.284-.102.802-.34 1.12-.543.318-.187.986-.646 1.488-1.02.501-.39 1.12-1.018 1.37-1.425.268-.391.485-.883.485-1.104.011-.25-.14-.447-.451-.594-.401-.204-.686-.187-1.839.034-.769.152-1.521.34-1.672.424-.167.085-.785.39-1.387.68-.601.288-1.655.9-2.34 1.358-.685.458-1.437 1.018-1.671 1.24-.234.22-.619.661-.886.984-.335.441-.452.747-.418 1.189.033.475.184.662.719 1.035.367.238 1.236.612 1.922.815.685.204 1.855.578 2.59.815.736.221 1.672.629 2.073.867.418.254.936.713 1.17 1.035.368.493.435.764.435 1.698 0 1.002-.067 1.223-.602 2.055-.334.51-1.036 1.341-1.588 1.85-.535.493-1.588 1.274-2.323 1.716-.736.458-1.822 1.052-2.424 1.324-.601.272-1.621.696-2.256.934-.635.238-1.588.543-2.09.696a48.49 48.49 0 0 1-2.256.527 17.82 17.82 0 0 1-2.675.254c-.852 0-1.638-.102-2.156-.288-.451-.17-.97-.493-1.136-.73-.201-.272-.318-.714-.318-1.19.017-.576.15-.967.552-1.595.3-.459.97-1.189 1.47-1.63a28.32 28.32 0 0 1 2.09-1.563c.652-.424 1.655-1.052 2.256-1.375.602-.323 1.521-.798 2.056-1.036.803-.373.97-.407 1.037-.187.067.187-.301.459-1.204.951a43.607 43.607 0 0 0-2.474 1.478c-.635.441-1.788 1.409-2.557 2.156-.769.747-1.488 1.613-1.621 1.902-.234.51-.218.594.05.9.25.305.485.356 1.705.34.952 0 1.905-.136 2.925-.408a69.32 69.32 0 0 0 2.34-.696c.468-.17 1.17-.442 1.588-.629a82.698 82.698 0 0 0 2.173-1.052 28.886 28.886 0 0 0 2.657-1.546c.686-.475 1.622-1.239 2.073-1.697.468-.476.97-1.155 1.137-1.529.217-.51.25-.78.117-1.103a1.965 1.965 0 0 0-.435-.68 7.013 7.013 0 0 0-.702-.526c-.234-.136-.87-.425-1.42-.611-.552-.187-1.304-.442-1.672-.527-.368-.102-1.237-.356-1.922-.56-.686-.187-1.471-.475-1.755-.628-.268-.153-.669-.459-.87-.696-.267-.323-.367-.663-.384-1.206 0-.543.15-1.019.501-1.664.285-.492.886-1.189 1.388-1.58.468-.39 1.287-.95 1.788-1.239.502-.305 1.454-.764 2.09-1.018ZM55.761 4.228c.184-.238.719-.832 1.187-1.324.702-.73.953-.883 1.42-.883.318 0 .753.102.987.22.234.12.434.323.451.459.034.136-.2.407-.485.594-.3.187-.902.798-1.354 1.359-.45.56-1.22 1.545-1.688 2.207-.485.645-1.287 1.8-1.805 2.547-.502.747-1.47 2.31-2.173 3.48-.685 1.172-1.42 2.446-1.621 2.836-.184.408-.351.765-.351.815 0 .051.05.085.133.085.067 0 .502-.288.97-.628.468-.356 1.52-1.256 2.323-2.003.803-.748 1.889-1.92 2.407-2.615.518-.697 1.12-1.41 1.354-1.58.234-.17.568-.305.752-.305.184 0 .535.22.803.475.25.255.45.595.45.747 0 .17-.116.306-.25.306-.133 0-.568.34-.953.764a17.97 17.97 0 0 0-1.52 2.004c-.435.679-.953 1.545-1.12 1.935-.184.408-.318.765-.285.798.017.052.602-.356 1.287-.882.686-.527 2.44-2.14 3.895-3.6 1.47-1.444 2.825-2.666 3.009-2.683.234-.034.568.136.919.458.284.29.535.595.535.697 0 .085-.2.305-.451.458-.268.153-.686.527-.937.798-.267.289-1.02 1.206-1.654 2.055a59.165 59.165 0 0 0-1.806 2.462c-.334.51-1.27 2.071-2.089 3.48a249.974 249.974 0 0 0-1.872 3.312c-.368.679-.2.543 1.438-1.104 1.253-1.273 1.905-1.817 2.022-1.698.117.119-.134.51-.836 1.274-.568.61-1.47 1.715-2.039 2.462a27.229 27.229 0 0 0-1.705 2.666C54.574 27.71 54.34 28 54.056 28c-.217 0-.501-.119-.635-.255s-.3-.458-.351-.73c-.067-.255-.05-.73.017-1.053.05-.322.635-1.698 1.27-3.056.652-1.358 1.554-3.158 2.04-3.99.467-.85 1.286-2.225 2.824-4.585l-.735.696c-.385.374-1.053.985-1.438 1.359-.401.356-1.086.9-1.504 1.205-.435.306-.953.544-1.154.56-.234 0-.551-.22-.802-.509-.234-.288-.418-.611-.418-.73 0-.102.167-.628.752-2.105l-1.002.933a38.521 38.521 0 0 1-1.923 1.682c-.535.424-1.086.73-1.337.73-.234 0-.618-.221-.886-.476-.3-.305-.451-.628-.451-.968 0-.288.318-1.154.719-1.952a64.516 64.516 0 0 1 1.788-3.227 76.592 76.592 0 0 1 1.571-2.547c.284-.424 1.07-1.562 1.772-2.547a79.28 79.28 0 0 1 1.588-2.207ZM27.847 11.444a23.826 23.826 0 0 1 1.337-1.664c.251-.254.619-.458.82-.458.183 0 .55.22.818.475.251.255.452.578.452.714s-.168.322-.368.424c-.217.085-.82.747-1.354 1.443-.535.697-1.053 1.427-1.153 1.614-.1.186-.117.271-.034.203.084-.085.786-.73 1.555-1.443a41.004 41.004 0 0 1 2.54-2.207c.636-.476 1.288-.883 1.455-.883.15 0 .45.17.668.39.2.204.368.51.368.662 0 .17-.418.9-.936 1.614-.518.73-1.12 1.68-1.337 2.122-.368.747-.218.628 1.671-1.358 1.154-1.189 2.457-2.429 2.892-2.768.434-.34.986-.696 1.22-.815.368-.187.468-.17.886.271.25.255.451.612.451.765 0 .17-.317.747-.718 1.273a77.7 77.7 0 0 0-1.572 2.258 25.145 25.145 0 0 0-1.203 1.987c-.184.408-.318.73-.268.73.05 0 .402-.204.803-.441.384-.255 1.12-.815 1.621-1.24.502-.441 1.103-.95 1.304-1.137.217-.17.752-.781 1.17-1.342a67.386 67.386 0 0 1 1.738-2.173c.652-.764 1.087-1.138 1.354-1.138.2-.017.569.187.836.425.25.237.451.577.451.764 0 .186-.067.34-.15.34-.084 0-.468.322-.853.712-.384.408-.785.883-.886 1.07-.1.187.301-.068.903-.577a23.703 23.703 0 0 1 2.24-1.63c.652-.408 1.437-.832 1.755-.951.518-.187.635-.17 1.036.119.234.17.552.51.685.747.201.34.218.543.05 1.104-.116.373-.55 1.205-.969 1.867-.434.646-1.22 1.63-1.755 2.174-.535.56-1.337 1.256-1.805 1.562a5.951 5.951 0 0 1-1.672.781c-.651.17-1.002.17-1.537.017-.535-.153-.702-.289-.669-.51.017-.152.15-.288.284-.305.134 0 .518-.068.836-.153.401-.102.986-.56 1.939-1.511.735-.764 1.705-1.919 2.14-2.564.45-.662.919-1.392 1.036-1.664.134-.255.167-.459.067-.459s-.569.238-1.037.544c-.484.288-1.404.934-2.056 1.426-.652.476-1.772 1.443-2.49 2.123-.986.934-1.739 1.867-2.875 3.633-.836 1.308-1.956 3.21-2.474 4.245-.518 1.036-1.086 2.36-1.27 2.972-.184.611-.335 1.392-.335 1.732 0 .577-.05.645-.417.645-.234 0-.569-.17-.753-.39a2.04 2.04 0 0 1-.417-.799c-.05-.237.033-.916.183-1.528.15-.611.619-1.902 1.053-2.886.418-.985 1.287-2.666 1.923-3.736v-.002c.635-1.069 1.27-2.138 1.42-2.375.2-.323.067-.255-.568.289-.451.373-1.137.9-1.504 1.137-.368.255-.87.442-1.12.442-.318 0-.585-.153-.803-.476-.2-.254-.35-.696-.334-.968 0-.288.268-1.052.602-1.698.318-.662.936-1.68 2.123-3.396l-1.22 1.104c-.67.611-1.94 1.936-2.825 2.938-.886 1.001-1.705 1.833-1.806 1.816-.117 0-.334-.05-.484-.135-.15-.068-.385-.323-.502-.595-.2-.39-.2-.56.017-1.188.15-.39.502-1.138.786-1.647.267-.51.702-1.206 1.387-2.106l-.418.22c-.234.137-1.487 1.308-2.791 2.633-1.455 1.477-2.474 2.632-2.625 3.022-.167.408-.384.645-.568.645-.15 0-.451-.17-.668-.39-.201-.204-.368-.56-.368-.798s.2-.815.418-1.274c.234-.475.418-.9.418-.985 0-.068-.402.255-.87.714a39.718 39.718 0 0 1-1.387 1.256c-.284.22-.802.611-1.17.866-.368.255-.87.442-1.12.442-.317 0-.585-.153-.802-.476-.2-.254-.335-.611-.335-.798 0-.187.201-.764.435-1.273.234-.51.853-1.58 1.354-2.378a32.059 32.059 0 0 1 1.705-2.36c.418-.492.902-.968 1.07-1.053.183-.101.434-.067.752.136.25.153.535.408.652.544.117.152.217.407.217.56 0 .204-.134.306-.368.306-.217 0-.568.254-.869.628a46.868 46.868 0 0 0-1.37 2.004 37.496 37.496 0 0 0-1.622 2.818l.485-.288c.267-.17.819-.578 1.237-.9.418-.323 1.337-1.138 2.072-1.8.72-.645 1.705-1.732 2.19-2.377ZM139.386.781c.217.102.267.068.184-.17-.067-.237-.034-.271.217-.119.167.085.468.17.685.17.201-.017.468.085.569.204.117.119.2.56.167 1.002-.034.713 0 .78.301.73.184-.034.384-.017.468.017.067.05-.017.238-.167.424-.301.34-.301.34-.836-.254-.418-.442-.569-.527-.635-.34-.051.136-.168.22-.251.17-.084-.051-.201.068-.251.255-.05.203-.2.322-.368.288-.183-.017-.3-.187-.3-.407 0-.289.066-.323.3-.204.251.136.285.05.285-.781 0-.747-.051-.917-.251-.85-.134.052-.284 0-.334-.084-.051-.102.033-.119.217-.05ZM25.59 7.624c.184-.374.502-.798.72-.934.2-.136.5-.255.668-.255.15 0 .535.238.836.51.501.492.518.526.217.73-.184.119-.719.56-1.22 1.002-.786.73-.92.798-1.22.594-.184-.102-.335-.373-.335-.594 0-.204.15-.68.335-1.053Z"/></g></svg>