<svg xmlns="http://www.w3.org/2000/svg" width="24" height="24" viewBox="0 0 24 24" fill="none">
    <path d="M19.235 8.27879C19.5684 8.49749 19.969 8.625 20.4 8.625C21.5598 8.625 22.5 7.70159 22.5 6.5625C22.5 5.42341 21.5598 4.5 20.4 4.5C19.2402 4.5 18.3 5.42341 18.3 6.5625C18.3 7.2783 18.6713 7.90894 19.235 8.27879ZM19.235 8.27879L16.2 10.1719M13.165 17.2212C12.8316 17.0025 12.431 16.875 12 16.875C11.313 16.875 10.703 17.199 10.3199 17.6999M13.165 17.2212C13.7287 17.5911 14.1 18.2217 14.1 18.9375C14.1 20.0766 13.1598 21 12 21C10.8402 21 9.9 20.0766 9.9 18.9375C9.9 18.4732 10.0562 18.0446 10.3199 17.6999M13.165 17.2212L14.1 13.7812M10.3199 17.6999L5.2801 13.9876M5.2801 13.9876C5.54376 13.6429 5.7 13.2143 5.7 12.75C5.7 11.6109 4.7598 10.6875 3.6 10.6875C2.4402 10.6875 1.5 11.6109 1.5 12.75C1.5 13.8891 2.4402 14.8125 3.6 14.8125C4.28701 14.8125 4.89697 14.4885 5.2801 13.9876Z" stroke="#FF5E00" stroke-width="1.2" stroke-linecap="round" stroke-linejoin="round"/>
    <path d="M19.235 8.27879C19.5684 8.49749 19.969 8.625 20.4 8.625C21.5598 8.625 22.5 7.70159 22.5 6.5625C22.5 5.42341 21.5598 4.5 20.4 4.5C19.2402 4.5 18.3 5.42341 18.3 6.5625C18.3 7.2783 18.6713 7.90894 19.235 8.27879ZM19.235 8.27879L16.2 10.1719M13.165 17.2212C12.8316 17.0025 12.431 16.875 12 16.875C11.313 16.875 10.703 17.199 10.3199 17.6999M13.165 17.2212C13.7287 17.5911 14.1 18.2217 14.1 18.9375C14.1 20.0766 13.1598 21 12 21C10.8402 21 9.9 20.0766 9.9 18.9375C9.9 18.4732 10.0562 18.0446 10.3199 17.6999M13.165 17.2212L14.1 13.7812M10.3199 17.6999L5.2801 13.9876M5.2801 13.9876C5.54376 13.6429 5.7 13.2143 5.7 12.75C5.7 11.6109 4.7598 10.6875 3.6 10.6875C2.4402 10.6875 1.5 11.6109 1.5 12.75C1.5 13.8891 2.4402 14.8125 3.6 14.8125C4.28701 14.8125 4.89697 14.4885 5.2801 13.9876Z" stroke="#FF5E00" stroke-width="1.5" stroke-linecap="round" stroke-linejoin="round"/>
</svg>