<svg xmlns="http://www.w3.org/2000/svg" width="25" height="24" viewBox="0 0 25 24" fill="none">
    <path d="M9.70898 9.5L14.959 14.5M11.284 3H13.384C18.6031 3 22.834 7.02944 22.834 12C22.834 16.9706 18.6031 21 13.384 21H6.03398C3.71439 21 1.83398 19.2091 1.83398 17V12C1.83398 7.02944 6.06489 3 11.284 3ZM16.534 12C16.534 14.2091 14.6536 16 12.334 16C10.0144 16 8.13398 14.2091 8.13398 12C8.13398 9.79086 10.0144 8 12.334 8C14.6536 8 16.534 9.79086 16.534 12Z" stroke="#FF5E00" stroke-width="1.5" stroke-linecap="round" stroke-linejoin="round"/>
</svg>