<svg xmlns="http://www.w3.org/2000/svg" width="24" height="24" viewBox="0 0 24 24" fill="none">
    <path d="M11.7217 2.10393C11.814 2.10138 11.9067 2.1001 11.9996 2.1001C17.4672 2.1001 21.8996 6.53248 21.8996 12.0001C21.8996 17.4677 17.4672 21.9001 11.9996 21.9001C11.9067 21.9001 11.814 21.8988 11.7217 21.8963C11.2248 21.8825 10.8331 21.4686 10.8469 20.9718C10.8606 20.4749 11.2745 20.0832 11.7714 20.097C11.8472 20.099 11.9232 20.1001 11.9996 20.1001C16.4731 20.1001 20.0996 16.4736 20.0996 12.0001C20.0996 7.52659 16.4731 3.9001 11.9996 3.9001C11.9232 3.9001 11.8472 3.90115 11.7714 3.90324C11.2745 3.91696 10.8606 3.5253 10.8469 3.02843C10.8331 2.53156 11.2248 2.11765 11.7217 2.10393Z" fill="#FF5E00"/>
    <path d="M9.62976 3.2685C9.80712 3.73284 9.57448 4.25304 9.11014 4.4304C8.96838 4.48455 8.82852 4.54257 8.69069 4.60434C8.2371 4.80763 7.7046 4.60472 7.50132 4.15113C7.29804 3.69754 7.50095 3.16504 7.95453 2.96176C8.12318 2.88618 8.29435 2.81517 8.46786 2.74889C8.9322 2.57153 9.4524 2.80417 9.62976 3.2685Z" fill="#FF5E00"/>
    <path d="M6.47053 4.84171C6.81206 5.20285 6.79618 5.77247 6.43505 6.11401C6.32491 6.21818 6.21769 6.3254 6.11352 6.43554C5.77199 6.79667 5.20236 6.81255 4.84123 6.47101C4.48009 6.12948 4.46421 5.55985 4.80575 5.19872C4.9329 5.06427 5.06378 4.93339 5.19823 4.80624C5.55936 4.4647 6.12899 4.48058 6.47053 4.84171Z" fill="#FF5E00"/>
    <path d="M4.15064 7.50181C4.60423 7.70509 4.80714 8.23759 4.60385 8.69118C4.54208 8.82901 4.48406 8.96887 4.42991 9.11063C4.25255 9.57497 3.73235 9.80761 3.26801 9.63025C2.80368 9.45289 2.57104 8.93269 2.7484 8.46835C2.81468 8.29483 2.88569 8.12367 2.96127 7.95502C3.16456 7.50143 3.69705 7.29852 4.15064 7.50181Z" fill="#FF5E00"/>
    <path d="M3.02794 10.8473C3.52481 10.8611 3.91648 11.275 3.90276 11.7718C3.90066 11.8476 3.89961 11.9237 3.89961 12.0001C3.89961 12.0765 3.90066 12.1525 3.90276 12.2284C3.91648 12.7252 3.52481 13.1391 3.02794 13.1529C2.53107 13.1666 2.11716 12.7749 2.10344 12.278C2.10089 12.1857 2.09961 12.093 2.09961 12.0001C2.09961 11.9072 2.10089 11.8145 2.10344 11.7222C2.11716 11.2253 2.53107 10.8336 3.02794 10.8473Z" fill="#FF5E00"/>
    <path d="M3.26802 14.3699C3.73235 14.1926 4.25255 14.4252 4.42991 14.8896C4.48406 15.0313 4.54208 15.1712 4.60385 15.309C4.80714 15.7626 4.60423 16.2951 4.15064 16.4984C3.69705 16.7017 3.16456 16.4988 2.96127 16.0452C2.88569 15.8765 2.81468 15.7054 2.7484 15.5318C2.57104 15.0675 2.80368 14.5473 3.26802 14.3699Z" fill="#FF5E00"/>
    <path d="M4.84123 17.5292C5.20236 17.1876 5.77199 17.2035 6.11352 17.5647C6.21769 17.6748 6.32491 17.782 6.43505 17.8862C6.79618 18.2277 6.81206 18.7973 6.47053 19.1585C6.12899 19.5196 5.55936 19.5355 5.19823 19.194C5.06378 19.0668 4.9329 18.9359 4.80575 18.8015C4.46421 18.4403 4.48009 17.8707 4.84123 17.5292Z" fill="#FF5E00"/>
    <path d="M7.50132 19.8491C7.7046 19.3955 8.2371 19.1926 8.69069 19.3959C8.82852 19.4576 8.96838 19.5156 9.11014 19.5698C9.57448 19.7472 9.80712 20.2674 9.62976 20.7317C9.4524 21.196 8.9322 21.4287 8.46786 21.2513C8.29435 21.185 8.12318 21.114 7.95453 21.0384C7.50095 20.8351 7.29804 20.3027 7.50132 19.8491Z" fill="#FF5E00"/>
    <path fill-rule="evenodd" clip-rule="evenodd" d="M12.8996 9.93709V6.60032C12.8996 6.10326 12.4967 5.70032 11.9996 5.70032C11.5026 5.70032 11.0996 6.10326 11.0996 6.60032V9.9371C10.305 10.2843 9.74962 11.0772 9.74962 11.9999C9.74962 12.9225 10.305 13.7155 11.0996 14.0627V15.6003C11.0996 16.0974 11.5026 16.5003 11.9996 16.5003C12.4967 16.5003 12.8996 16.0974 12.8996 15.6003V14.0627C13.6943 13.7155 14.2496 12.9225 14.2496 11.9999C14.2496 11.0772 13.6943 10.2843 12.8996 9.93709ZM12.016 11.5502C12.0106 11.5503 12.0051 11.5503 11.9996 11.5503C11.9941 11.5503 11.9887 11.5503 11.9832 11.5502C11.7423 11.5588 11.5496 11.7568 11.5496 11.9999C11.5496 12.2484 11.7511 12.4499 11.9996 12.4499C12.2481 12.4499 12.4496 12.2484 12.4496 11.9999C12.4496 11.7568 12.2569 11.5588 12.016 11.5502Z" fill="#FF5E00"/>
</svg>