<svg xmlns="http://www.w3.org/2000/svg" width="25" height="24" viewBox="0 0 25 24" fill="none">
    <path d="M15.816 16.2C15.816 16.2 14.6348 15.15 12.666 15.15C10.6973 15.15 9.51602 16.2 9.51602 16.2M17.916 9.9C17.916 10.4799 17.4459 10.95 16.866 10.95C16.2861 10.95 15.816 10.4799 15.816 9.9C15.816 9.3201 16.2861 8.85 16.866 8.85C17.4459 8.85 17.916 9.3201 17.916 9.9ZM9.51602 9.9C9.51602 10.4799 9.04591 10.95 8.46602 10.95C7.88612 10.95 7.41602 10.4799 7.41602 9.9C7.41602 9.3201 7.88612 8.85 8.46602 8.85C9.04591 8.85 9.51602 9.3201 9.51602 9.9ZM23.166 12C23.166 17.799 18.465 22.5 12.666 22.5C6.86703 22.5 2.16602 17.799 2.16602 12C2.16602 6.20101 6.86703 1.5 12.666 1.5C18.465 1.5 23.166 6.20101 23.166 12Z" stroke="#FF5E00" stroke-width="1.5" stroke-linecap="round"/>
</svg>