<svg xmlns="http://www.w3.org/2000/svg" width="80" height="32" fill="none"><path fill="#292929" d="M15.19 22.317c-1.017-1.032-1.525-2.485-1.525-4.358a7.26 7.26 0 0 1 .58-2.92 4.962 4.962 0 0 1 1.782-2.162c.802-.55 1.79-.824 2.964-.825 1.1 0 2.05.255 2.853.766a4.974 4.974 0 0 1 1.827 2.05c.42.873.635 1.83.626 2.798a.99.99 0 0 1-.278.713c-.186.194-.434.29-.747.29h-7.558c.119 1.04.505 1.85 1.159 2.43.653.578 1.567.868 2.74.869a6.684 6.684 0 0 0 1.639-.178 6.809 6.809 0 0 0 1.37-.513.883.883 0 0 1 .4-.089.896.896 0 0 1 .83.529.813.813 0 0 1 .064.343c0 .324-.193.6-.579.824a8.059 8.059 0 0 1-1.716.736c-.564.163-1.292.245-2.183.245-1.814.001-3.23-.515-4.247-1.548Zm7.098-5.294c-.046-.728-.236-1.338-.568-1.828a3.067 3.067 0 0 0-1.237-1.081 3.399 3.399 0 0 0-2.985 0c-.501.24-.925.614-1.226 1.081-.324.49-.51 1.1-.556 1.828h6.573ZM71.642 22.826a.85.85 0 0 1-.379-.736.895.895 0 0 1 .245-.627.808.808 0 0 1 .626-.267.987.987 0 0 1 .402.09c.46.201.938.364 1.426.486a6.616 6.616 0 0 0 1.604.179c1.649 0 2.473-.528 2.473-1.583 0-.341-.19-.601-.568-.78-.38-.178-1-.38-1.861-.602a16.75 16.75 0 0 1-2.172-.647 3.816 3.816 0 0 1-1.471-1.014c-.41-.453-.613-1.05-.613-1.794 0-1.04.375-1.887 1.125-2.542.75-.654 1.823-.98 3.22-.98a9.29 9.29 0 0 1 3.23.557c.195.05.365.168.479.334a.898.898 0 0 1 .102.851.874.874 0 0 1-.191.288.847.847 0 0 1-.636.267 1.234 1.234 0 0 1-.289-.045 8.54 8.54 0 0 0-2.54-.4c-.802 0-1.43.144-1.883.434-.454.29-.68.664-.68 1.125 0 .446.209.773.626.98.418.209 1.064.41 1.939.602.725.177 1.44.396 2.139.658a3.541 3.541 0 0 1 1.414 1.014c.394.461.59 1.078.591 1.85 0 .952-.375 1.74-1.125 2.363-.75.625-1.809.937-3.175.937-1.487.003-2.84-.33-4.058-.998ZM58.952 23.418a.968.968 0 0 1-.29-.713v-9.562a1.007 1.007 0 0 1 .29-.725.952.952 0 0 1 .713-.3 1.027 1.027 0 0 1 1.025 1.024v.915a7.401 7.401 0 0 1 1.827-1.494c.654-.372 1.426-.557 2.317-.557.817 0 1.527.193 2.128.579a3.77 3.77 0 0 1 1.382 1.583c.324.69.488 1.444.479 2.206v6.331a.95.95 0 0 1-.3.713 1.01 1.01 0 0 1-.725.29.99.99 0 0 1-1.003-1.004V16.6c0-1.813-.817-2.72-2.451-2.72a3.547 3.547 0 0 0-1.994.58 7.223 7.223 0 0 0-1.66 1.56v6.687a.95.95 0 0 1-.301.713 1.006 1.006 0 0 1-.725.29.97.97 0 0 1-.712-.292Z"/><path fill="#FF5E00" d="M44.903 22.361c-2.082-1.986-3.52-5.032-3.352-7.73.139-2.255.852-3.83 3.054-5.332 2.612-1.78 6.225-1.601 8.412-.557 2.559 1.216 3.586 2.882 3.396 4.516-.216 1.859-3.197 1.247-4.618 4.24-1.167 2.457 1.21 6.083-.335 6.91-1.545.826-3.971.284-6.557-2.047Z"/><path fill="#292929" d="M46.922 24.048c-2.165-1.798-3.818-4.734-3.914-7.479-.08-2.292.448-3.96 2.399-5.696 2.314-2.06 5.765-2.24 7.94-1.409 2.546.972 3.678 2.553 3.653 4.224-.03 1.9-2.92 1.58-3.991 4.75-.878 2.6 1.723 6.027.333 7.018-1.39.99-3.743.689-6.42-1.408ZM31.44 23.448a.969.969 0 0 1-.29-.713V8.268a1.009 1.009 0 0 1 .29-.724.952.952 0 0 1 .713-.3 1.027 1.027 0 0 1 1.025 1.024v9.119l5.303-4.904c.223-.193.446-.29.669-.29.341 0 .59.097.747.29.156.196.24.44.233.691 0 .253-.126.506-.379.758l-3.208 2.876 4.035 5.35c.14.17.219.381.223.601a.927.927 0 0 1-.29.713 1.044 1.044 0 0 1-.735.268.99.99 0 0 1-.445-.112 1.093 1.093 0 0 1-.38-.312L35.12 18.1l-1.939 1.761v2.876a.951.951 0 0 1-.3.713 1.008 1.008 0 0 1-.725.29.968.968 0 0 1-.715-.292ZM26.962 23.42a.97.97 0 0 1-.29-.712V8.247a1.009 1.009 0 0 1 .29-.725.95.95 0 0 1 .713-.3.99.99 0 0 1 1.025 1.025v14.462a.95.95 0 0 1-.3.712 1.008 1.008 0 0 1-.725.29.968.968 0 0 1-.713-.29ZM2.028 22.13v.58a.95.95 0 0 1-.3.71 1.009 1.009 0 0 1-.725.29A.99.99 0 0 1 0 22.707V8.247a1.007 1.007 0 0 1 .29-.725.95.95 0 0 1 .713-.3.99.99 0 0 1 1.025 1.025v5.46c1.084-1.129 2.354-1.694 3.81-1.694.92 0 1.823.242 2.619.702.824.469 1.492 1.152 2.005 2.05.513.9.768 1.951.765 3.155 0 1.203-.255 2.255-.765 3.154-.51.898-1.179 1.581-2.005 2.047a5.224 5.224 0 0 1-2.617.703c-1.457 0-2.728-.565-3.812-1.695ZM8.2 20.881c.668-.699 1.003-1.687 1.003-2.965 0-1.278-.335-2.266-1.003-2.965-.669-.696-1.553-1.045-2.652-1.047a4.211 4.211 0 0 0-1.927.457c-.601.303-1.141.715-1.594 1.214v4.681c.453.5.993.911 1.594 1.215.597.303 1.258.46 1.928.457 1.099 0 1.983-.35 2.652-1.047H8.2ZM50.292 7.12A3.56 3.56 0 1 0 50.29.002a3.56 3.56 0 0 0 .002 7.12Z"/></svg>