<svg width="96" height="36" viewBox="0 0 96 36" fill="none" xmlns="http://www.w3.org/2000/svg">
<g clip-path="url(#clip0_36285_17916)">
<path d="M0.339844 9.11426V26.6095L15.5776 35.3619V25.4476L8.97872 21.6571V14.0762L0.339844 9.11426Z" fill="#7A7A7A"/>
<path d="M15.5781 35.3619L30.8159 26.6095L22.1866 21.6476L15.5781 25.4381V35.3619Z" fill="#7A7A7A"/>
<path d="M8.97872 14.0762L15.5776 10.2857L22.186 14.0762L30.8153 9.11426L15.5776 0.361877L0.339844 9.11426L8.97872 14.0762Z" fill="#7A7A7A"/>
<path d="M45.4212 12.7714L44.0229 15.2C43.2567 14.4857 42.2319 14.1238 40.9485 14.1238C39.713 14.1238 38.7361 14.5333 38.0178 15.3524C37.2995 16.1714 36.9451 17.2952 36.9451 18.7428C36.9451 21.6571 38.3434 23.1143 41.1305 23.1143C42.3372 23.1143 43.4003 22.7143 44.3198 21.9238L45.5169 24.4762C44.5688 25.0666 43.7451 25.4381 43.0364 25.5905C42.3276 25.7428 41.4944 25.8286 40.5271 25.8286C38.3722 25.8286 36.6674 25.2 35.4223 23.9524C34.1772 22.7047 33.5547 20.9714 33.5547 18.7524C33.5547 16.5619 34.2347 14.8 35.6043 13.4476C36.9643 12.0952 38.8319 11.4286 41.1879 11.4286C42.8161 11.4095 44.224 11.8666 45.4212 12.7714Z" fill="#7A7A7A"/>
<path d="M46.0039 18.581C46.0039 16.4667 46.6169 14.7429 47.8524 13.4095C49.0783 12.0762 50.7064 11.4095 52.7177 11.4095C54.8343 11.4095 56.4817 12.0476 57.6597 13.3238C58.8281 14.6 59.4219 16.3524 59.4219 18.5715C59.4219 20.781 58.8281 22.5429 57.6309 23.8476C56.4338 25.1619 54.796 25.8095 52.7177 25.8095C50.6011 25.8095 48.9442 25.1524 47.7662 23.8286C46.5977 22.5143 46.0039 20.7619 46.0039 18.581ZM49.3943 18.581C49.3943 21.6381 50.5053 23.1714 52.7177 23.1714C53.7329 23.1714 54.5374 22.7715 55.1312 21.981C55.725 21.1905 56.0219 20.0572 56.0219 18.581C56.0219 15.5619 54.9205 14.0572 52.7081 14.0572C51.6929 14.0572 50.8788 14.4572 50.285 15.2476C49.6912 16.0381 49.3943 17.1524 49.3943 18.581Z" fill="#7A7A7A"/>
<path d="M70.3615 25.5524V24.7143C70.0933 25.0095 69.6336 25.2667 68.9919 25.4857C68.3502 25.7048 67.6798 25.8191 66.9998 25.8191C65.0556 25.8191 63.5232 25.2095 62.4026 23.981C61.2821 22.7524 60.7266 21.0381 60.7266 18.8476C60.7266 16.6572 61.3683 14.8667 62.6516 13.4857C63.935 12.1048 65.5345 11.4191 67.4691 11.4191C68.5322 11.4191 69.4899 11.6381 70.3615 12.0667V7.0762L73.6178 5.71429V25.5524H70.3615ZM70.3615 14.9905C69.6623 14.4381 68.944 14.1619 68.1874 14.1619C66.8849 14.1619 65.8792 14.5619 65.1801 15.3524C64.4714 16.1429 64.1266 17.2762 64.1266 18.7524C64.1266 21.6381 65.5249 23.0857 68.3215 23.0857C68.6375 23.0857 69.0206 22.9905 69.4708 22.8095C69.9305 22.6191 70.2274 22.4381 70.3615 22.2476V14.9905Z" fill="#7A7A7A"/>
<path d="M76.4243 25.5524V14.3238V11.6667H79.7189V25.5524H76.4243ZM78.1099 6.55237C78.5984 6.55237 79.0102 6.7238 79.355 7.06665C79.6998 7.40951 79.8722 7.81903 79.8722 8.30475C79.8722 8.79046 79.6998 9.19999 79.355 9.54284C79.0102 9.8857 78.5984 10.0571 78.1099 10.0571C77.6215 10.0571 77.2096 9.8857 76.8648 9.54284C76.52 9.19999 76.3477 8.79046 76.3477 8.30475C76.3477 7.81903 76.52 7.40951 76.8648 7.06665C77.2096 6.7238 77.6215 6.55237 78.1099 6.55237Z" fill="#7A7A7A"/>
<path d="M81.7188 18.581C81.7188 16.4667 82.3317 14.7429 83.5672 13.4095C84.7931 12.0762 86.4213 11.4095 88.4326 11.4095C90.5492 11.4095 92.1965 12.0476 93.3745 13.3238C94.543 14.6 95.1368 16.3524 95.1368 18.5715C95.1368 20.781 94.543 22.5429 93.3458 23.8476C92.1486 25.1524 90.5109 25.8095 88.4421 25.8095C86.3255 25.8095 84.6686 25.1524 83.4906 23.8286C82.3126 22.5143 81.7188 20.7619 81.7188 18.581ZM85.1092 18.581C85.1092 21.6381 86.2202 23.1714 88.4326 23.1714C89.4478 23.1714 90.2523 22.7715 90.8461 21.981C91.4399 21.1905 91.7368 20.0572 91.7368 18.581C91.7368 15.5619 90.6354 14.0572 88.423 14.0572C87.4078 14.0572 86.5937 14.4572 85.9999 15.2476C85.4061 16.0381 85.1092 17.1524 85.1092 18.581Z" fill="#7A7A7A"/>
</g>
<defs>
<clipPath id="clip0_36285_17916">
<rect width="96" height="36" fill="white"/>
</clipPath>
</defs>
</svg>
