<svg xmlns="http://www.w3.org/2000/svg" width="106" height="24" fill="none"><path fill="#7A7A7A" fill-rule="evenodd" d="M57.56.224c-.229.23-.375.526-1.233 2.503-.258.593-.648 1.466-.869 1.94-.22.475-.562 1.251-.76 1.725-.197.475-.594 1.38-.881 2.013-.288.632-.578 1.279-.646 1.437-.171.398-.54 1.23-1.652 3.737a525.11 525.11 0 0 0-1.096 2.48l-.278.646c-.38.885-2.076 4.708-2.312 5.21-.665 1.42-.634 1.702.185 1.702.768 0 .929-.12 1.322-.98.203-.44.368-.833.368-.871 0-.039.397-.958.881-2.044a1343.61 1343.61 0 0 0 1.693-3.807 151.2 151.2 0 0 0 1.24-2.839 404.715 404.715 0 0 1 2.18-4.999c.186-.417.34-.79.34-.828 0-.038.129-.36.287-.714.325-.73.654-1.49 1.162-2.691.423-1 .437-1.002.82-.147a550.98 550.98 0 0 1 3.407 8.014c.29.711.616 1.487.724 1.724.109.238.5 1.143.87 2.013.661 1.55.906 2.107 1.597 3.633.19.418.344.794.344.836 0 .042.184.477.41.966.225.489.561 1.23.746 1.648.402.906.53 1.027 1.18 1.11 1.14.146 1.126.008-.332-3.31a604.947 604.947 0 0 1-1.814-4.165c-.269-.632-.577-1.344-.684-1.58-.252-.557-.591-1.326-1.522-3.45-.415-.949-.877-1.98-1.025-2.291-.148-.311-.27-.613-.27-.67 0-.057-.22-.579-.488-1.159-.784-1.691-1.239-2.711-1.239-2.78 0-.034-.154-.404-.343-.822-.189-.417-.553-1.244-.808-1.837-.674-1.56-1-1.855-1.503-1.353Zm34.058.067c-1.963.352-2.647.71-3.144 1.648-.794 1.496-.752 1.537.832.807 9.725-4.482 19.05 7.085 12.573 15.595-5.022 6.598-15.54 4.794-18.053-3.097-.161-.507-.293-1.105-.293-1.33 0-.813-.474-.356-1.018.984l-.316.777.401.965C84.467 21.128 88.813 24 93.736 24c.777 0 1.6-.057 1.83-.126.23-.069.773-.206 1.209-.304 7.488-1.686 11.074-10.707 7.058-17.752-.446-.783-3.164-3.666-3.456-3.666-.062 0-.477-.219-.923-.487C97.491.485 93.975-.132 91.618.291ZM.655.6c-.275.275-.21.582.403 1.894.317.678.576 1.265.576 1.304 0 .039.155.412.344.83.434.959.919 2.05 1.199 2.699.119.276.404.91.632 1.408.229.497.416.934.416.97 0 .035.226.554.503 1.153.277.6.504 1.115.504 1.146 0 .032.155.399.344.816.572 1.263 1.49 3.352 3.716 8.449 1.372 3.143 1.598 3.307 2.368 1.725.453-.932.614-1.286 1.632-3.593.297-.672.807-1.795 1.134-2.494.326-.7.594-1.298.594-1.329 0-.05.585-1.367 1.623-3.652.198-.434.503-1.114.679-1.509.433-.975.525-1.182 1.92-4.312.67-1.502 1.386-3.1 1.592-3.549.641-1.397.663-1.49.428-1.824-.475-.678-1.236-.295-1.77.892L18.8 3.158c-.16.356-.876 1.973-1.59 3.594a473.05 473.05 0 0 1-1.66 3.74c-.2.436-.502 1.142-.67 1.569a39.413 39.413 0 0 1-.587 1.399c-.155.342-.418.93-.585 1.305-.167.376-.45 1.006-.628 1.401-.178.396-.534 1.204-.792 1.797s-.623 1.42-.811 1.837c-.19.417-.344.827-.344.91 0 .205-.31.09-.455-.168-.161-.288-.984-2.141-.984-2.217 0-.034-.19-.469-.423-.966-.232-.498-.629-1.39-.881-1.983-.253-.593-.67-1.563-.926-2.156-.256-.593-.866-2.016-1.355-3.162a254.927 254.927 0 0 0-1.083-2.516c-.108-.237-.323-.722-.48-1.078a881.67 881.67 0 0 0-.794-1.796c-.28-.633-.77-1.765-1.088-2.516C1.991.562 1.26-.003.655.6Zm25.987.028c-.371.281-.392 22.502-.021 22.81.332.274.66.29 1.029.048l.324-.211V12.089c0-10.654-.013-11.197-.263-11.424-.315-.284-.724-.299-1.069-.037Zm5.506-.013c0 .103.193.491.429.862l.428.675 3.278.001c4.023.001 4.8.177 6.25 1.416 3.627 3.1 1.528 9.302-3.258 9.624-.476.032-.913.101-.97.154-.122.112-.153.05 1.715 3.394 1.663 2.98 2.33 4.194 2.887 5.252.664 1.263 1.2 1.743 1.857 1.663.305-.037.602-.071.662-.077.149-.014.136-.64-.017-.808-.068-.075-.369-.59-.669-1.143-.53-.98-.84-1.537-2.924-5.245l-1.009-1.796 1.133-.541C48.32 11 47.02 1.708 40.053.579 38.63.35 32.148.378 32.148.615ZM66.656.583c-.413.24-.4.27 3.707 8.416 4.391 8.711 4.142 8.03 3.46 9.463-.273.576-.7 1.491-.947 2.035-.248.543-.634 1.373-.86 1.844-.522 1.095-.41 1.408.479 1.343l.602-.043.792-1.59c.435-.875.982-2.007 1.214-2.516.761-1.665 1.543-3.345 2.204-4.734.357-.751.828-1.754 1.046-2.228.219-.474.701-1.51 1.073-2.3 1.25-2.656 1.485-3.16 1.779-3.809.161-.355.783-1.681 1.382-2.946C83.941.66 83.96.26 82.73.492c-.494.092-.55.168-1.237 1.633l-1.125 2.399a1308.865 1308.865 0 0 0-4.027 8.624c-.402.9-.878 1.832-1.013 1.985-.057.064-1.709-3.099-3.671-7.029-4.053-8.115-4.033-8.084-5-7.521Z" clip-rule="evenodd"/></svg>