<svg xmlns="http://www.w3.org/2000/svg" width="113" height="28" fill="none"><g clip-path="url(#a)"><path fill="#7A7A7A" d="M63.991 9.127c0-3.268.057-6.31.226-9.127l-8.65 1.634v.789l.848.112c.622.057 1.018.282 1.244.62.226.394.396.958.509 1.803.113 1.634.226 5.352.17 11.211 0 5.803-.057 9.465-.17 10.873 3.11.676 5.54.958 7.35.958 3.392 0 6.05-.958 7.971-2.93 1.922-1.915 2.94-4.62 2.94-7.943 0-2.648-.734-4.845-2.205-6.592-1.47-1.746-3.335-2.591-5.54-2.591-1.47 0-2.997.394-4.693 1.183Zm.17 17.352c-.113-1.803-.226-7.211-.226-16.056.509-.17 1.187-.282 2.035-.282 1.357 0 2.43.676 3.222 2.084.792 1.409 1.188 3.099 1.188 5.24 0 2.648-.452 4.788-1.357 6.591-.905 1.747-2.035 2.648-3.449 2.648-.452-.113-.904-.169-1.413-.225ZM23.115.563H.5V1.69l1.187.113c.905.169 1.527.507 1.923 1.014.395.563.621 1.465.678 2.704.452 6.085.452 11.775 0 17.014-.113 1.24-.34 2.141-.678 2.704-.396.564-1.018.902-1.923 1.014l-1.187.17v1.126h14.587v-1.127l-1.527-.112c-.905-.113-1.526-.507-1.922-1.014-.396-.564-.622-1.465-.679-2.704-.17-2.254-.282-4.845-.282-7.719l3.053.057c1.64.056 2.77 1.295 3.335 3.774h1.131V9.521h-1.13c-.566 2.423-1.64 3.662-3.336 3.718l-3.053.057c0-5.07.113-8.676.282-10.873h4.467c3.166 0 5.314 2.028 6.558 6.084l1.357-.394-.226-7.55Zm-2.657 17.353c0 2.929.848 5.352 2.487 7.267C24.585 27.1 27.015 28 30.07 28c3.053 0 5.54-.958 7.35-2.93 1.809-1.915 2.657-4.338 2.657-7.267 0-2.93-.848-5.352-2.488-7.268-1.64-1.915-4.07-2.817-7.123-2.817s-5.541.958-7.35 2.93c-1.81 1.915-2.657 4.338-2.657 7.268Zm12.607-6.423c.679 1.634.962 3.775.962 6.366 0 5.972-1.244 8.902-3.675 8.902-1.244 0-2.205-.845-2.884-2.536-.678-1.69-.96-3.83-.96-6.366 0-5.915 1.243-8.845 3.674-8.845 1.244-.056 2.205.789 2.883 2.479Zm47.775 13.69C82.704 27.043 85.08 28 87.906 28c1.752 0 3.278-.338 4.635-1.07 1.358-.677 2.432-1.522 3.167-2.536l-.566-.676c-1.243.958-2.657 1.409-4.297 1.409-2.261 0-4.014-.733-5.201-2.254-1.244-1.52-1.81-3.436-1.696-5.915h12.099c0-2.704-.679-4.902-2.092-6.648-1.414-1.69-3.392-2.535-5.936-2.535-3.167 0-5.598 1.014-7.35 2.986-1.753 1.971-2.601 4.394-2.601 7.267 0 2.93.904 5.296 2.77 7.155Zm4.183-14.14c.622-1.353 1.413-2.029 2.487-2.029 1.697 0 2.545 2.14 2.545 6.479l-5.993.113c.056-1.69.34-3.212.96-4.564Zm26.233-2.254c-1.526-.676-3.448-1.07-5.767-1.07-2.374 0-4.24.619-5.654 1.802-1.413 1.183-2.148 2.648-2.148 4.394 0 1.522.452 2.705 1.3 3.55.848.845 2.206 1.577 3.958 2.197 1.583.563 2.714 1.127 3.28 1.634.564.563.904 1.183.904 2.028 0 .789-.283 1.521-.904 2.084-.566.62-1.358.902-2.375.902-2.488 0-4.353-1.803-5.654-5.409l-.961.282.226 5.634c2.035.789 4.297 1.183 6.784 1.183 2.601 0 4.58-.563 6.05-1.747 1.47-1.126 2.205-2.76 2.205-4.788 0-1.352-.339-2.48-1.074-3.324-.735-.845-1.922-1.578-3.618-2.254-1.867-.676-3.167-1.296-3.845-1.859-.679-.563-1.018-1.24-1.018-2.084 0-.845.226-1.521.735-2.085.509-.563 1.131-.789 1.922-.789 2.262 0 3.902 1.634 4.919 4.845l.961-.281-.226-4.845Zm-54.389-.507c-.791-.395-1.64-.564-2.6-.564-.961 0-1.923.395-2.997 1.183-1.074.79-1.865 1.86-2.487 3.324l.056-4.507-8.593 1.69v.79l.848.056c1.074.112 1.696.957 1.809 2.478.339 3.493.339 7.212 0 11.155-.113 1.521-.735 2.31-1.81 2.48l-.847.112v1.07H52.23v-1.07l-1.526-.113c-1.074-.113-1.696-.958-1.81-2.479a57.351 57.351 0 0 1-.112-10.366c.339-.563 1.074-.901 2.205-1.014 1.13-.113 2.43.225 3.788 1.014l2.091-5.24Z"/></g><defs><clipPath id="a"><path fill="#fff" d="M0 0h113v28H0z"/></clipPath></defs></svg>