<svg width="122" height="28" viewBox="0 0 122 28" fill="none" xmlns="http://www.w3.org/2000/svg">
<g clip-path="url(#clip0_36285_17881)">
<path fill-rule="evenodd" clip-rule="evenodd" d="M16.0865 9.194L14.7773 13.9378L24.294 27.8556L29.0524 20.8914L19.5353 6.97412L16.0865 9.194Z" fill="#7A7A7A"/>
<path fill-rule="evenodd" clip-rule="evenodd" d="M14.7744 -6.10352e-05L10.0156 6.96363L14.7744 13.9278L19.5327 6.96363L14.7744 -6.10352e-05Z" fill="#7A7A7A"/>
<path opacity="0.6" fill-rule="evenodd" clip-rule="evenodd" d="M5.25834 13.9277L0.5 20.8914H0.550401L0.5 20.9019L5.25834 27.8664L14.7755 13.9277H5.25834Z" fill="#7A7A7A"/>
<path fill-rule="evenodd" clip-rule="evenodd" d="M46.4117 15.2444H41.2549L43.8275 9.08435L46.4117 15.2444ZM45.0474 5.63904H42.6192L35.8086 21.3523H38.6965L40.1956 17.7495H47.4598L48.9584 21.3523H51.8576L45.078 5.71035L45.0474 5.63904Z" fill="#7A7A7A"/>
<path fill-rule="evenodd" clip-rule="evenodd" d="M63.2319 15.5055C63.2319 17.7441 61.7634 19.3078 59.6607 19.3078C57.895 19.3078 56.0681 17.8855 56.0681 15.5055C56.0681 13.1189 57.895 11.6922 59.6607 11.6922C61.7634 11.6922 63.2319 13.2606 63.2319 15.5055ZM60.0493 9.33014C58.4498 9.33014 57.077 9.86608 56.0681 10.8824V9.6587H53.4727V26.1612H56.0681V20.1237C57.0576 21.1431 58.4304 21.6812 60.0493 21.6812C61.5553 21.6812 62.9721 21.0757 64.0391 19.9767C65.151 18.8313 65.7627 17.2436 65.7627 15.5055C65.7627 12.0422 63.2534 9.33014 60.0493 9.33014Z" fill="#7A7A7A"/>
<path fill-rule="evenodd" clip-rule="evenodd" d="M74.0831 11.6923C76.1857 11.6923 77.6542 13.2603 77.6542 15.5055C77.6542 17.7442 76.1857 19.3078 74.0831 19.3078C72.3169 19.3078 70.4904 17.8855 70.4904 15.5055C70.4904 13.119 72.3169 11.6923 74.0831 11.6923ZM74.4707 9.3302C72.8721 9.3302 71.4993 9.86614 70.4904 10.882V9.65876H67.8945V26.1613H70.4904V20.1238C71.4799 21.1431 72.8523 21.6813 74.4707 21.6813C75.9776 21.6813 77.3944 21.0758 78.461 19.9768C79.5729 18.8309 80.185 17.2433 80.185 15.5055C80.185 12.0423 77.6753 9.3302 74.4707 9.3302Z" fill="#7A7A7A"/>
<path fill-rule="evenodd" clip-rule="evenodd" d="M113.602 9.65857L110.131 18.0783L106.662 9.65857H103.84L108.751 21.3018L108.782 21.3744H111.46L116.354 9.82394L116.424 9.65857H113.602Z" fill="#7A7A7A"/>
<path fill-rule="evenodd" clip-rule="evenodd" d="M88.7743 9.51624C86.6316 9.51624 85.3268 10.7294 84.588 11.8166V9.65842H81.9922V21.3519H84.588V17.1917C84.588 13.9752 86.1061 12.1303 88.7523 12.1303C88.7635 12.1303 88.776 12.1312 88.789 12.132C88.8079 12.1338 88.8273 12.1347 88.8458 12.1347H88.9626V9.52542L88.8325 9.52324C88.8127 9.5193 88.7933 9.51624 88.7743 9.51624Z" fill="#7A7A7A"/>
<path fill-rule="evenodd" clip-rule="evenodd" d="M99.2195 9.65857V16.1957C99.2195 20.2259 93.8762 20.2329 93.8762 16.1957V9.65857H91.2695V16.6774C91.2695 23.2316 101.826 23.5798 101.826 16.6774V9.65857H99.2195Z" fill="#7A7A7A"/>
<path fill-rule="evenodd" clip-rule="evenodd" d="M118.344 11.39V9.91645H117.789V9.65833H119.214V9.91645H118.656V11.39H118.344Z" fill="#7A7A7A"/>
<path fill-rule="evenodd" clip-rule="evenodd" d="M120.846 9.65857H121.09V11.3902H120.817V10.3148L120.365 11.3902H120.161L119.706 10.3271V11.3902H119.434V9.65857H119.677L120.264 11.0131L120.846 9.65857Z" fill="#7A7A7A"/>
</g>
<defs>
<clipPath id="clip0_36285_17881">
<rect width="121" height="28" fill="white" transform="translate(0.5)"/>
</clipPath>
</defs>
</svg>
