<svg xmlns="http://www.w3.org/2000/svg" width="199" height="28" fill="none"><g clip-path="url(#a)"><path fill="#7A7A7A" d="M174.773 3.667c0-1.934.604-2.6 1.611-2.6 1.007 0 1.812.4 2.752 2.6l5.705 12.866v8.134c0 1.933-.806 2.466-3.021 2.733v.533h10.538V27.4c-2.282-.267-3.02-.867-3.02-2.733v-8.134l5.503-12.4c1.074-2.4 2.148-2.933 3.759-3.2V.4h-7.719v.533c2.618.267 3.558 1 2.819 2.734l-4.832 11L183.901 3.4c-.671-1.533-.268-2 2.618-2.4V.467H169.94V1c2.618.4 3.423.867 3.423 2.733V18.8L161.215.467h-5.974V1c1.947.267 2.551.867 2.551 2.733v21c0 1.934-.537 2.6-1.208 2.6-.604 0-.94-.266-1.812-2.6l-8.994-24.4h-.537l-8.659 23.334c-.939 2.6-2.416 3.466-3.892 3.8V28h7.92v-.533c-2.752-.267-3.625-1.334-3.021-3.067l1.947-5.333h8.188l1.879 5c.806 2.266.336 2.933-2.013 3.333v.533h15.034V27.4c-2.617-.4-3.423-.867-3.423-2.733v-18.8L173.9 28h.873V3.667ZM68.793 14.133c0-8.533 4.094-13 8.86-13 2.818 0 4.63.6 5.704 1.734.806.8 1.41 1.933 2.081 3.733h.537V.867C83.223.333 80.74 0 78.256 0c-7.181 0-14.632 4.6-14.632 14.133 0 9.534 7.45 14.134 14.163 14.134 2.953 0 5.57-.467 8.054-1.2l.805-5.4-.47-.134a14.28 14.28 0 0 1-2.147 3 9.188 9.188 0 0 1-6.444 2.667c-4.564-.067-8.792-4.4-8.792-13.067Zm59.534.8c-.604 0-1.41-.066-2.215-.2V1.4h2.215c3.691 0 5.302 1.933 5.302 6.733 0 4.867-1.678 6.8-5.302 6.8ZM42.079.4V7h.537c.806-4.2 2.484-5.533 5.303-5.533h1.342v23.2c0 1.933-.805 2.466-3.02 2.733v.533h10.537V27.4c-2.282-.267-3.02-.867-3.02-2.733V1.4H55.1c2.82 0 4.497 1.333 5.303 5.533h.537v-6.6H42.08V.4Zm-8.39 27.867c4.565 0 9.397-2.6 9.397-7.934 0-3.133-1.678-5.733-4.631-7.333l-5.235-2.867C30.468 8.6 29.663 7.2 29.663 5.2c0-2.267 1.677-4.067 4.832-4.067 1.544 0 2.685.4 3.624 1.267.806.8 1.611 2.133 2.35 4.533h.47V.867C39.058.333 37.112 0 34.83 0c-4.497 0-7.853 2.8-7.853 7.533 0 3 1.678 5.734 4.43 7.334l4.832 2.666c2.752 1.534 3.624 3 3.624 5.2 0 2.6-2.684 4.467-5.637 4.467-1.947 0-3.558-.667-4.699-1.8-.738-.733-1.543-1.867-2.08-3.333h3.154v-.534c-.872-.2-1.41-.333-2.148-2.066l-6.175-14.6h-.537l-6.04 14.266c-.806 1.934-1.343 2.267-2.282 2.4v.534h5.37v-.534c-1.947-.2-2.484-1.133-2.014-2.333l.94-2.267h5.436l1.208 2.8c.537 1.267-.268 1.6-2.215 1.734V22h4.296v5.267c2.148.6 4.9 1 7.249 1ZM101.883 28l7.987-22.067.604 18.8c.067 1.867-.671 2.4-2.953 2.667v.533h22.015V27.4c-2.618-.4-3.423-.867-3.423-2.733V15.8c.873.133 1.745.2 2.416.2 5.303 0 9.867-1.933 9.867-7.8S133.831.4 128.528.4h-9.463v.533c1.946.267 2.55.867 2.55 2.734v21c0 1.933-.805 2.733-3.02 2.733h-.067c-2.35 0-3.356-.867-3.423-2.667l-.806-21c-.067-1.933.604-2.533 2.685-2.8V.4h-6.511l-7.114 19.8L96.244.4h-6.98v.533c2.08.267 2.752.934 2.685 2.8l-.739 20.134c-.067 2-1.14 3.2-3.087 3.533v.533h7.383V27.4c-1.88-.267-2.953-1.467-2.886-3.533l.604-18.334 8.121 22.4.537.067Zm-21.41-5.8c3.557 0 8.12-3.133 8.12-8.067 0-4.866-4.496-8.066-8.12-8.066-3.558 0-8.122 3.133-8.122 8.066 0 4.867 4.497 8.067 8.121 8.067Zm0-15c2.281 0 3.825 1.867 3.825 6.933 0 5.134-1.61 6.934-3.826 6.934-2.282 0-3.826-1.867-3.826-6.934C76.645 9 78.19 7.2 80.471 7.2Zm66.917 10.733h-7.451L143.63 7.8l3.759 10.133ZM22.816 15.867h-4.564l2.282-5.534 2.282 5.534Zm-8.725 1.4h.537V9h-.537c-.873 2.933-1.745 3.6-3.356 3.6H7.648V1.4h4.9c2.818 0 4.496 1.333 5.302 5.533h.537v-6.6H.6v.534c1.947.266 2.55.866 2.55 2.733v21c0 1.933-.603 2.467-2.55 2.733v.534h10.47v-.534c-2.617-.4-3.422-.866-3.422-2.733v-11h3.087c1.544.067 2.483.733 3.356 3.667Z"/></g><defs><clipPath id="a"><path fill="#fff" d="M.6 0h198v28H.6z"/></clipPath></defs></svg>