<svg xmlns="http://www.w3.org/2000/svg" width="108" height="24" fill="none"><g fill="#7A7A7A"><path d="M19.475 12.078c0 2.478.018 4.957-.007 7.435-.021 2.102-1.352 3.77-3.392 4.287a5.849 5.849 0 0 1-1.393.185c-3.284.016-6.567.022-9.85.004-2.38-.012-4.186-1.37-4.712-3.518-.088-.36-.095-.746-.095-1.12C.02 14.454.074 9.556 0 4.66-.04 2.055 2.194-.035 4.818.014c3.303.062 6.608.01 9.912.017 2.774.005 4.721 1.866 4.742 4.551.018 2.499.004 4.997.003 7.496Zm-5.614-.05c0-1.983.002-3.966 0-5.95 0-.89-.12-1.011-1.016-1.013-2.074-.002-4.147-.002-6.22 0-.848.002-1.04.156-1.042.96-.011 3.987-.011 7.974 0 11.961.001.729.257.957 1.014.96 2.094.007 4.188.008 6.282 0 .764-.004.98-.225.981-.967.004-1.983.001-3.967.001-5.95ZM57.822 14.353h-2.78c-1.231 0-2.463.02-3.694-.01-.485-.012-.635.133-.632.603.02 2.658-.004 5.315.02 7.972.006.526-.114.736-.707.719-1.436-.04-2.873-.021-4.31-.008-.394.003-.593-.07-.592-.52.013-7.457.01-14.913.011-22.369 0-.078.017-.156.032-.291h5.518c.012.205.035.433.036.661.003 2.499.016 4.998-.01 7.496-.005.543.157.721.73.712 1.907-.03 3.817-.025 5.725-.002.509.007.667-.147.663-.642-.023-2.518-.01-5.037-.01-7.555v-.69c.257-.016.455-.036.653-.036 1.416-.003 2.833.024 4.248-.015.565-.015.735.145.73.694-.025 2.954-.012 5.91-.012 8.864 0 4.323-.01 8.646.013 12.969.003.58-.18.747-.767.731a96.082 96.082 0 0 0-4.248-.003c-.485.009-.632-.138-.628-.611.022-2.618.01-5.235.01-7.853v-.816ZM29.347 23.638V5.907c0-.834-.003-.835-.88-.835h-6.079V.422c.227-.011.445-.03.663-.03C29.087.39 35.123.399 41.158.378c.611-.003.768.181.747.742a42.07 42.07 0 0 0 0 3.212c.02.559-.133.76-.748.747-1.826-.04-3.654-.014-5.481-.014h-.74v17.721c0 .852 0 .852-.91.852h-4.68ZM100.454 2.533 99.219 1.4c2.582-2.618 7.409-1.38 8.52 2.159.17.541.244 1.13.247 1.696.022 3.65.012 7.299.011 10.948 0 3.208-2.219 5.378-5.539 5.407-1.371.012-2.741.002-4.182.002v2.217H96.4v-2.183c-.278-.013-.495-.029-.711-.033-1.476-.03-2.956.002-4.426-.099-2.514-.172-4.596-2.357-4.614-4.83a860.857 860.857 0 0 1 0-11.722c.013-2.049 1.39-3.889 3.372-4.628 1.84-.686 4.065-.258 5.395 1.065l-1.18 1.068c-.52-.232-1.027-.559-1.584-.691-2.107-.5-4.178 1.04-4.197 3.144a750.377 750.377 0 0 0-.002 11.603c.013 1.922 1.402 3.35 3.386 3.38 3.653.055 7.308.055 10.96 0 1.995-.031 3.369-1.436 3.384-3.377.031-3.867.038-7.735-.006-11.602-.015-1.302-.721-2.307-1.926-2.909-1.181-.59-2.339-.436-3.435.258-.12.076-.23.164-.362.259ZM83.883 4.961c-.012 2.764-2.274 4.908-5.158 4.891-2.84-.016-5.056-2.223-5.035-5.015.02-2.7 2.314-4.842 5.167-4.825 2.833.018 5.04 2.19 5.026 4.95Zm-8.407-.057c-.013 1.785 1.452 3.215 3.299 3.22 1.83.006 3.307-1.385 3.329-3.133.022-1.792-1.428-3.236-3.267-3.252-1.856-.017-3.348 1.388-3.36 3.165ZM77.93 11.793h1.706v11.798H77.93V11.793ZM70.648 21.082c.814 0 1.424.596 1.419 1.386-.005.793-.615 1.36-1.448 1.347-.804-.013-1.382-.573-1.388-1.345-.007-.79.604-1.388 1.417-1.388Z"/><path d="M78.813 5.79c-.473.015-.918-.396-.922-.852-.005-.435.386-.834.845-.865.486-.032.926.35.942.817.016.475-.378.885-.865.9Z"/></g></svg>