<svg xmlns="http://www.w3.org/2000/svg" width="142" height="32" fill="none"><g fill="#7A7A7A" fill-rule="evenodd" clip-path="url(#a)" clip-rule="evenodd"><path d="M135.527 11.767h2.051c1.043.003 1.93 1.01 1.931 2.085h.001v1.96h-7.964c.074-2.262 1.836-4.04 3.981-4.045Zm5.38 10.472v-.007h-.063l-.017-.002-.017.002h-5.283c-2.144-.005-3.904-1.808-3.981-4.044h7.066v.003h2.081l.079-.008a1.175 1.175 0 0 0 1.08-1.042 2.578 2.578 0 0 0 0-.278v-3.01c-.002-2.39-1.913-4.46-4.274-4.463h-2.051c-3.495 0-6.321 2.928-6.326 6.569l-.002 2.082c.007 3.615 2.832 6.566 6.328 6.568h5.38V24.6a1.18 1.18 0 0 0 1.093-1.18 1.18 1.18 0 0 0-1.093-1.182ZM12.29 5.032a10.25 10.25 0 0 1 7.204 4.538 10.553 10.553 0 0 1 1.072 9.513c3.498-2.562 5.33-8.254 3.372-12.719a10.41 10.41 0 0 0-1.78-2.765v-.002C17.798-1.283 11.445-.786 8.774 5.161l-.005.005h.003a10.142 10.142 0 0 1 3.517-.134Z"/><path d="M5.049 19.756c.376-2.87 1.915-5.57 4.473-7.309a10.15 10.15 0 0 1 9.377-1.087c-2.525-3.55-8.136-5.408-12.537-3.421a10.236 10.236 0 0 0-2.726 1.805l-.001.001c-4.81 4.421-4.321 10.867 1.542 13.577l.004.005-.001-.003a10.607 10.607 0 0 1-.131-3.568Z"/><path d="M19.388 27.25a10.251 10.251 0 0 1-7.204-4.538 10.554 10.554 0 0 1-1.072-9.513c-3.498 2.562-5.33 8.254-3.373 12.719a10.408 10.408 0 0 0 1.78 2.765l.001.002c4.359 4.88 10.712 4.384 13.382-1.564l.006-.005-.004.001a10.15 10.15 0 0 1-3.516.133Z"/><path d="M26.658 12.527c-.376 2.87-1.914 5.57-4.473 7.309a10.15 10.15 0 0 1-9.376 1.087c2.525 3.549 8.135 5.408 12.537 3.421a10.232 10.232 0 0 0 2.725-1.806h.002c4.81-4.422 4.32-10.867-1.542-13.577l-.005-.006.002.004c.248 1.182.286 2.39.13 3.568Z"/><path d="M12.846 15.968c0 1.677 1.34 3.038 2.994 3.038 1.653 0 2.995-1.36 2.995-3.038 0-1.678-1.342-3.038-2.995-3.038-1.654 0-2.994 1.36-2.994 3.038ZM67.642 11.53h2.05c1.045.003 1.93 1.01 1.932 2.086h.001v1.96h-7.964c.074-2.261 1.836-4.04 3.98-4.045Zm5.38 10.473v-.006h-.064l-.016-.002-.018.002h-5.282c-2.144-.005-3.904-1.808-3.98-4.045h7.066v.002h2.076l.003.001.08-.007a1.175 1.175 0 0 0 1.08-1.043 2.802 2.802 0 0 0 0-.278v-3.011c-.002-2.388-1.913-4.458-4.274-4.462h-2.051c-3.495 0-6.32 2.928-6.326 6.57l-.002 2.08c.007 3.616 2.832 6.568 6.328 6.569h5.379v-.007a1.178 1.178 0 0 0 1.093-1.182 1.18 1.18 0 0 0-1.093-1.181ZM53.69 11.53h2.052c1.044.003 1.93 1.01 1.931 2.086h.001v1.96H49.71c.074-2.261 1.836-4.04 3.98-4.045Zm5.38 10.473v-.006h-.062l-.017-.002-.017.002H53.69c-2.144-.005-3.904-1.808-3.981-4.045h7.067v.002h2.076l.003.001.08-.007a1.174 1.174 0 0 0 1.08-1.043 2.742 2.742 0 0 0 0-.278v-3.011c-.002-2.388-1.913-4.458-4.274-4.462h-2.051c-3.495 0-6.32 2.928-6.326 6.57l-.002 2.08c.007 3.616 2.832 6.568 6.328 6.569h5.379v-.007a1.178 1.178 0 0 0 1.093-1.182 1.18 1.18 0 0 0-1.093-1.181ZM43.903 18.024c0 2.304-1.793 4.163-3.982 4.166l-2.053.002c-1.052-.004-1.93-.907-1.931-2.085v-4.164c0-2.33 1.792-4.187 3.984-4.192h3.982v6.274Zm2.342 5.65v-18.2l.002-.016c0-.017 0-.033-.002-.05v-.072h-.004a1.174 1.174 0 0 0-1.16-1.063c-.605 0-1.114.467-1.175 1.064h-.003v4.037h-3.982c-3.495 0-6.32 2.93-6.326 6.57l-.001 4.163c.004 2.485 1.915 4.485 4.274 4.485h2.053c1.507 0 2.883-.556 3.982-1.458v.718a1.193 1.193 0 0 0 1.178 1.036c.644 0 1.166-.53 1.167-1.185l-.003-.03ZM85.776 17.94c0 2.304-1.793 4.162-3.983 4.165h-3.984v-6.248c0-2.329 1.792-4.187 3.984-4.192h2.052c1.049.002 1.93.933 1.93 2.086v4.189Zm-1.931-8.651h-2.052a6.166 6.166 0 0 0-4.132 1.588c-1.168 1.079-2.179 2.689-2.194 4.525v14.836s-.007.026-.008.075c0 .653.523 1.184 1.168 1.184.59 0 1.102-.445 1.18-1.02h.002v-5.97h3.984c3.495 0 6.32-2.952 6.325-6.567v-4.19c-.004-2.46-1.916-4.46-4.273-4.461ZM99.694 18.024c0 2.304-1.793 4.163-3.983 4.166l-2.052.002c-1.052-.004-1.93-.907-1.931-2.085v-4.164c0-2.33 1.792-4.187 3.983-4.192h3.983v6.274Zm2.342-12.546a.86.86 0 0 0 0-.07v-.072h-.001a1.177 1.177 0 0 0-1.164-1.063c-.604 0-1.12.467-1.18 1.064h.003v4.037H95.71c-3.494 0-6.32 2.93-6.326 6.57v4.163c.004 2.485 1.915 4.485 4.274 4.485h2.052c1.508 0 2.885-.557 3.983-1.46v.72h-.002a1.194 1.194 0 0 0 1.179 1.036c.646 0 1.167-.53 1.167-1.185l-.003-.03.001-18.195ZM129.689 10.705s.03-.086.032-.209a1.513 1.513 0 0 0-.006-.16l-.006-.048a1.152 1.152 0 0 0-.032-.156l-.01-.038a.88.88 0 0 0-.05-.124 1.223 1.223 0 0 0-.651-.639c-.552-.219-1.252.027-1.515.55h-.002L123.16 19.92l-4.349-10.04-.002.001a1.138 1.138 0 0 0-1.435-.55c-.552.219-.858.831-.703 1.397h.002l5.581 13.417.139.315c.06.09.121.146.207.211.026.02.054.043.083.061a1.058 1.058 0 0 0 .264.107.905.905 0 0 0 .183.024c.01 0 .018.003.028.003.022 0 .042-.006.063-.007.043-.004.087-.008.129-.017a.96.96 0 0 0 .167-.056.952.952 0 0 0 .423-.344c.026-.04 5.749-13.737 5.749-13.737ZM116.117 10.516c.001-.049 0-.103-.006-.16-.001-.017-.004-.032-.006-.048a1.14 1.14 0 0 0-.031-.156l-.011-.039a1.226 1.226 0 0 0-.701-.762c-.552-.219-1.251.026-1.516.55l-.001-.001-4.57 9.873-4.068-9.873h-.002a1.138 1.138 0 0 0-1.435-.55 1.18 1.18 0 0 0-.702 1.398l.001-.001 4.75 12.201-.395.875c-1.272 2.973-2.857 4.546-4.071 4.528h-.105v.012a1.179 1.179 0 0 0-1.158 1.183 1.18 1.18 0 0 0 1.158 1.183h.007l.008.001.009-.001h.081c2.906-.014 4.994-3.037 6.215-5.933l6.517-14.072s.03-.085.032-.208Z"/></g><defs><clipPath id="a"><path fill="#fff" d="M0 0h142v32H0z"/></clipPath></defs></svg>