<svg xmlns="http://www.w3.org/2000/svg" width="165" height="24" fill="none"><path fill="#FF7A59" d="M17.7 7.9V5a2.2 2.2 0 0 0 1.2-2 2.2 2.2 0 0 0-4.5 0 2.2 2.2 0 0 0 1.3 2V8c-1 .2-2 .6-3 1.3L5 3.1v-.6A2.5 2.5 0 0 0 2 0 2.5 2.5 0 0 0 .2 3.4a2.5 2.5 0 0 0 3.5 1.2l7.8 6a6.2 6.2 0 0 0 0 7L9.2 20a2 2 0 1 0 1.4 1.4l2.3-2.3a6.3 6.3 0 0 0 10-6.3A6.3 6.3 0 0 0 17.7 8Zm-1 9.4a3.2 3.2 0 0 1-3.3-3.2 3.2 3.2 0 1 1 3.3 3.2"/><g fill="#33475B"><path fill-rule="evenodd" d="M90 8.9c-.8 0-1.6.4-2.2 1l-1 1c-.5.7-.7 1.6-.7 2.5 0 1 .8 2.7.8 2.7l1 1s1.2.7 1.9.9a4.6 4.6 0 0 0 5.2-2.7 4.7 4.7 0 0 0-3.6-6.5H90Zm-.6 6.5a2.3 2.3 0 0 0 3.6-2 2.4 2.4 0 0 0-1.4-2.2 2.3 2.3 0 0 0-3.3 1.8 2.4 2.4 0 0 0 1 2.4Z" clip-rule="evenodd"/><path d="M75.8 21v-7.4A4.4 4.4 0 0 1 80 9a4.6 4.6 0 0 1 3.4 7.7c-.8.8-2 1.3-3.1 1.3a3.2 3.2 0 0 1-2.5-1v4h-2Zm2.1-7.6a2.4 2.4 0 0 0 1.5 2.3 2.3 2.3 0 0 0 3-1.3c.2-.3.2-.6.2-1a2.4 2.4 0 0 0-1.4-2.1 2.3 2.3 0 0 0-3.1 1.2l-.2 1Zm21.7 4.7c-1.7 0-3-1-3-2.8V7.9l2-1v2.4h2v1.9h-2v3.6c0 .8.4 1.4 1.7 1.4h.7l-.5 1.9a3.9 3.9 0 0 1-.9 0Zm-54.8 0v-4.9h-4.6v5H38V6h2.2v5h4.6V6H47v12.1h-2.2Zm16.8 0a4.4 4.4 0 0 1-4-3l-.2-1.6V6h2.1v4A3.2 3.2 0 0 1 62 9a4.4 4.4 0 0 1 4.3 4.5 4.7 4.7 0 0 1-4.6 4.5Zm.3-6.9a2.4 2.4 0 0 0-2.1 1.5 2.4 2.4 0 0 0 1.7 3.3 2.4 2.4 0 0 0 2.4-1c.3-.4.4-.9.4-1.4a2.4 2.4 0 0 0-2.3-2.4Zm5 5 1.6-1.5c.6.7 1 1.3 2.2 1.3a1.4 1.4 0 0 0 1.5-1.3c0-2.3-5-1-5-5.1 0-2.3 1.6-3.6 3.9-3.6a4.3 4.3 0 0 1 3.2 1.6l-1.4 1.6c-.5-.6-1.2-1-2-1a1.3 1.3 0 0 0-1.3.8l-.1.5c0 2 5 .6 5 5.1 0 2.1-1.8 3.5-4 3.5a4.4 4.4 0 0 1-3.5-1.8Zm-18.6-2V9h2.1v5.2a1.8 1.8 0 0 0 1.8 1.7 1.8 1.8 0 0 0 1.8-1.7V9h2.1v5.2a4 4 0 0 1-3.9 3.8 3.9 3.9 0 0 1-3.9-3.8Z"/></g><g fill="#E66E50"><path d="M107 5h3.9c.6 0 1.3 0 1.8.2.6.1 1 .4 1.4.6l1 1.1c.2.5.3 1 .3 1.7 0 .6-.1 1.1-.4 1.6a3 3 0 0 1-1 1.1c-.3.3-.8.5-1.4.7l-1.8.2h-2v5.6H107V5Zm1.8 5.6h3l1-.4a1.8 1.8 0 0 0 .8-1.6 1.8 1.8 0 0 0-.8-1.6l-1-.4h-3.1v4ZM122.4 12.2c0-.6-.1-1-.5-1.4-.4-.3-1-.4-1.5-.4s-1 0-1.4.2l-1 .7-1-1 1.6-1c.6-.2 1.2-.3 2-.3.5 0 1 0 1.5.3.4.1.8.4 1 .7.4.3.6.6.7 1 .2.4.3.9.3 1.3v3.8a25 25 0 0 0 0 1.7h-1.4l-.2-1.3a3.2 3.2 0 0 1-2.9 1.5c-.3 0-.7 0-1-.2-.4 0-.7-.2-1-.4l-.8-.8c-.2-.3-.2-.8-.2-1.3 0-.6.1-1.1.5-1.5.3-.4.8-.7 1.3-.8.6-.3 1.2-.4 2-.4l2-.1v-.3Zm-.4 1.5a16.4 16.4 0 0 0-2.5.3c-.3 0-.6.2-.9.4-.2.3-.3.6-.3 1l.1.5.4.5.6.2h.6c.8 0 1.4-.2 1.8-.7.4-.4.6-1 .6-1.8v-.4h-.4ZM126.1 11a27.6 27.6 0 0 0 0-1.8h1.6a11.2 11.2 0 0 1 0 1.5 2.9 2.9 0 0 1 2.7-1.7h.6v1.6h-.8a2.2 2.2 0 0 0-2.2 1.6l-.2 1v4.6h-1.7V11ZM137.5 10.6h-2.3v4.5c0 .5.1.9.3 1 .2.3.5.4 1 .4a2.5 2.5 0 0 0 .9-.2v1.4l-.6.1-.8.1c-.8 0-1.4-.2-1.8-.7-.4-.4-.6-1-.6-2v-4.6h-1.7V9.2h1.7V6.8h1.6v2.4h2.3v1.4ZM140.7 9.2a11.2 11.2 0 0 1 0 1.4h.1l.5-.6.6-.5a3 3 0 0 1 1.7-.5c.5 0 1 0 1.4.3a2.8 2.8 0 0 1 1.6 1.8l.2 1.4v5.3H145V13l-.1-1c0-.3-.2-.6-.3-.8l-.6-.6a2 2 0 0 0-1-.2 2 2 0 0 0-1.6.8c-.4.5-.6 1.2-.6 2v4.6h-1.7V11a27.6 27.6 0 0 0 0-1.9h1.5ZM155.4 12.7l-.1-.9a2 2 0 0 0-1.2-1.3l-1-.2c-.4 0-.7 0-1 .2-.4.1-.6.3-.9.5a3 3 0 0 0-.6.8l-.2 1h5Zm1.7.7v.6h-6.7c0 .4 0 .7.2 1l.6.9.9.5 1 .2c.6 0 1.1-.1 1.5-.4a3 3 0 0 0 1-.9l1.2 1A4.3 4.3 0 0 1 153 18c-.6 0-1.2-.1-1.7-.3-.6-.2-1-.5-1.5-1-.3-.3-.7-.8-.9-1.4-.2-.5-.3-1.1-.3-1.8s0-1.3.3-1.8c.2-.6.5-1 1-1.5A4.4 4.4 0 0 1 153 9c.6 0 1.1.2 1.6.4s1 .5 1.3.9c.4.4.7.8.8 1.4.2.5.3 1.1.3 1.8ZM159.1 11a27.6 27.6 0 0 0 0-1.8h1.5a11.2 11.2 0 0 1 .1 1.5c.3-.5.6-1 1-1.2.6-.4 1-.5 1.6-.5h.7v1.6h-.8a2.2 2.2 0 0 0-2.3 1.6l-.1 1v4.6H159V11Z"/></g></svg>